{
.appVersion = "1303";
DisplayStrings = (
"intere/longs/longs ant/longs.base nn",
an,
"/fina.n a",
"h/space/longs t",
"nntnn/longs nn",
"n/longs.base/longs no",
""
);
classes = (
{
automatic = 1;
code = "A Aacute Abreve Acircumflex Adieresis Agrave Amacron Aogonek Aring Aringacute Atilde AE AEacute B C Cacute Ccaron Ccedilla Ccedilla.latn_TRK Ccircumflex Cdotaccent D Eth Dcaron Dcroat E Eacute Ebreve Ecaron Ecircumflex Edieresis Edotaccent Egrave Emacron Eogonek F G G.ss02 Gbreve Gbreve.ss02 Gcircumflex Gcircumflex.ss02 Gcommaaccent Gcommaaccent.ss02 Gdotaccent Gdotaccent.ss02 H Hbar Hcircumflex I I.isol I.latn_DEU I.ss03 IJ IJ.ss03 Iacute Iacute.isol Iacute.ss03 Ibreve Ibreve.isol Ibreve.ss03 Icircumflex Icircumflex.isol Icircumflex.ss03 Idieresis Idieresis.isol Idieresis.ss03 Idotaccent Idotaccent.isol Idotaccent.ss03 Igrave Igrave.isol Igrave.ss03 Imacron Imacron.isol Imacron.ss03 Iogonek Iogonek.isol Iogonek.ss03 Itilde Itilde.isol Itilde.ss03 J J.latn_DEU J.ss03 Jcircumflex Jcircumflex.ss03 K K.ss03 Kcommaaccent Kcommaaccent.ss03 L Lacute Lcaron Lcommaaccent Ldot Lslash Lslash.latn_PLK M M.ss03 N Nacute Ncaron Ncommaaccent Eng Ntilde O Oacute Obreve Ocircumflex Odieresis Ograve Ohungarumlaut Omacron Oslash Oslashacute Otilde OE P Thorn Q R Racute Rcaron Rcommaaccent S Sacute Scaron Scedilla Scedilla.latn_TRK Scircumflex Scommaaccent Germandbls Schwa T Tbar Tcaron Tcommaaccent Tcommaaccent U Uacute Ubreve Ucircumflex Udieresis Ugrave Uhungarumlaut Umacron Uogonek Uring Utilde V W W.ss03 Wacute Wacute.ss03 Wcircumflex Wcircumflex.ss03 Wdieresis Wdieresis.ss03 Wgrave Wgrave.ss03 X Y Yacute Ycircumflex Ydieresis Ygrave Z Zacute Zcaron Zdotaccent Delta Omega";
name = Uppercase;
}
);
customParameters = (
{
name = vendorID;
value = JENS;
}
);
date = "2019-04-08 15:24:12 +0000";
designer = "Jens Kutilek";
familyName = JenS;
featurePrefixes = (
{
automatic = 1;

glyphs = (
{
glyphname = A;
layers = (
{
anchors = (
{
name = top;
position = "{630, 1240}";
}
);
layerId = master01;
paths = (
{
closed = 1;
nodes = (
"555 1295 OFFCURVE",
"520 1254 OFFCURVE",
"487 1193 CURVE SMOOTH",
"378 991 OFFCURVE",
"305 848 OFFCURVE",
"227 674 CURVE SMOOTH",
"155 514 OFFCURVE",
"53 240 OFFCURVE",
"17 116 CURVE SMOOTH",
"-5 40 OFFCURVE",
"2 -34 OFFCURVE",
"69 -34 CURVE SMOOTH",
"96 -34 OFFCURVE",
"126 -22 OFFCURVE",
"144 10 CURVE SMOOTH",
"162 42 OFFCURVE",
"165 82 OFFCURVE",
"162 133 CURVE",
"212 304 OFFCURVE",
"278 471 OFFCURVE",
"319 570 CURVE SMOOTH",
"403 771 OFFCURVE",
"501 968 OFFCURVE",
"630 1203 CURVE",
"608 1203 LINE",
"681 935 OFFCURVE",
"736 674 OFFCURVE",
"776 478 CURVE SMOOTH",
"797 376 OFFCURVE",
"821 237 OFFCURVE",
"836 121 CURVE SMOOTH",
"844 57 OFFCURVE",
"843 13 OFFCURVE",
"849 -17 CURVE SMOOTH",
"859 -67 OFFCURVE",
"882 -87 OFFCURVE",
"922 -87 CURVE SMOOTH",
"974 -87 OFFCURVE",
"997 -51 OFFCURVE",
"990 39 CURVE SMOOTH",
"983 129 OFFCURVE",
"951 291 OFFCURVE",
"888 601 CURVE SMOOTH",
"851 785 OFFCURVE",
"814 935 OFFCURVE",
"751 1170 CURVE SMOOTH",
"732 1241 OFFCURVE",
"707 1295 OFFCURVE",
"623 1295 CURVE SMOOTH"
);
},
{
closed = 1;
nodes = (
"540 516 OFFCURVE",
"353 496 OFFCURVE",
"165 448 CURVE",
"166 336 LINE",
"371 387 OFFCURVE",
"626 397 OFFCURVE",
"848 398 CURVE",
"848 532 LINE"
);
},
{
closed = 1;
nodes = (
"650 1155 LINE",
"677 1221 LINE",
"586 1221 LINE",
"575 1159 LINE"
);
}
);
width = 1112;
}
);
unicode = 0041;
},
{
glyphname = AE;
layers = (
{
anchors = (
{
name = top;
position = "{776, 1240}";
}
);
layerId = master01;
paths = (
{
closed = 1;
nodes = (
"894 450 OFFCURVE",
"797 850 OFFCURVE",
"668 1191 CURVE",
"652 1306 OFFCURVE",
"529 1303 OFFCURVE",
"498 1215 CURVE",
"269 836 OFFCURVE",
"136 480 OFFCURVE",
"-3 90 CURVE",
"-34 -15 OFFCURVE",
"101 -46 OFFCURVE",
"131 51 CURVE",
"266 461 OFFCURVE",
"400 817 OFFCURVE",
"629 1207 CURVE",
"540 1207 LINE",
"668 798 OFFCURVE",
"755 425 OFFCURVE",
"796 20 CURVE SMOOTH",
"801 -29 OFFCURVE",
"830 -43 OFFCURVE",
"862 -43 CURVE SMOOTH",
"900 -43 OFFCURVE",
"960 -25 OFFCURVE",
"1012 -17 CURVE SMOOTH",
"1142 2 OFFCURVE",
"1284 15 OFFCURVE",
"1420 15 CURVE SMOOTH",
"1507 15 OFFCURVE",
"1516 136 OFFCURVE",
"1417 135 CURVE SMOOTH",
"1217 133 OFFCURVE",
"1010 99 OFFCURVE",
"837 60 CURVE",
"936 33 LINE"
);
},
{
closed = 1;
nodes = (
"869 1090 OFFCURVE",
"1077 1095 OFFCURVE",
"1282 1085 CURVE SMOOTH",
"1401 1079 OFFCURVE",
"1402 1215 OFFCURVE",
"1294 1219 CURVE SMOOTH",
"1080 1227 OFFCURVE",
"862 1210 OFFCURVE",
"646 1177 CURVE",
"645 1066 LINE"
);
},
{
closed = 1;
nodes = (
"746 544 LINE",
"1266 556 LINE SMOOTH",
"1358 558 OFFCURVE",
"1362 685 OFFCURVE",
"1258 680 CURVE SMOOTH",
"744 654 LINE"
);
},
{
closed = 1;
nodes = (
"380 357 OFFCURVE",
"609 381 OFFCURVE",
"836 372 CURVE",
"836 503 LINE",
"597 504 OFFCURVE",
"369 476 OFFCURVE",
"144 434 CURVE",
"153 320 LINE"
);
}
);
width = 1528;
}
);
unicode = 00C6;
},
{
glyphname = B;
layers = (
{
layerId = master01;
paths = (
{
closed = 1;
nodes = (
"332 1270 OFFCURVE",
"212 1235 OFFCURVE",
"113 1188 CURVE SMOOTH",
"53 1160 OFFCURVE",
"32 1127 OFFCURVE",
"42 1095 CURVE SMOOTH",
"50 1071 OFFCURVE",
"82 1055 OFFCURVE",
"140 1080 CURVE SMOOTH",
"227 1118 OFFCURVE",
"326 1156 OFFCURVE",
"444 1156 CURVE SMOOTH",
"615 1156 OFFCURVE",
"720 1077 OFFCURVE",
"703 922 CURVE",
"680 698 OFFCURVE",
"415 649 OFFCURVE",
"235 624 CURVE",
"235 535 LINE",
"426 534 OFFCURVE",
"770 554 OFFCURVE",
"761 295 CURVE SMOOTH",
"756 155 OFFCURVE",
"669 63 OFFCURVE",
"476 63 CURVE SMOOTH",
"369 63 OFFCURVE",
"270 81 OFFCURVE",
"181 108 CURVE",
"244 41 LINE",
"235 420 OFFCURVE",
"300 783 OFFCURVE",
"298 1179 CURVE",
"185 1140 LINE",
"172 797 OFFCURVE",
"129 474 OFFCURVE",
"115 138 CURVE",
"88 123 OFFCURVE",
"74 108 OFFCURVE",
"74 80 CURVE SMOOTH",
"74 36 OFFCURVE",
"117 13 OFFCURVE",
"152 0 CURVE SMOOTH",
"248 -37 OFFCURVE",
"360 -52 OFFCURVE",
"465 -52 CURVE SMOOTH",
"758 -52 OFFCURVE",
"881 103 OFFCURVE",
"893 273 CURVE SMOOTH",
"912 538 OFFCURVE",
"693 598 OFFCURVE",
"485 609 CURVE",
"485 633 LINE",
"379 663 OFFCURVE",
"173 681 OFFCURVE",
"173 586 CURVE SMOOTH",
"173 499 OFFCURVE",
"349 507 OFFCURVE",
"487 563 CURVE",
"412 596 LINE",
"575 614 OFFCURVE",
"819 682 OFFCURVE",
"838 937 CURVE SMOOTH",
"854 1151 OFFCURVE",
"705 1270 OFFCURVE",
"476 1270 CURVE"
);
},
{
closed = 1;
nodes = (
"534 589 LINE",
"532 649 LINE",
"393 638 LINE",
"396 567 LINE"
);
}
);
width = 1000;
}
);
unicode = 0042;
},
{
glyphname = C;
layers = (
{
anchors = (
{
name = bottom;
position = "{450, 0}";
},
{
name = top;
position = "{600, 1240}";
}
);
layerId = master01;
paths = (
{
closed = 1;
nodes = (
"309 1261 OFFCURVE",
"113 959 OFFCURVE",
"74 668 CURVE SMOOTH",
"43 438 OFFCURVE",
"71 207 OFFCURVE",
"166 79 CURVE SMOOTH",
"236 -15 OFFCURVE",
"334 -58 OFFCURVE",
"456 -58 CURVE SMOOTH",
"529 -58 OFFCURVE",
"603 -37 OFFCURVE",
"680 1 CURVE SMOOTH",
"755 38 OFFCURVE",
"852 127 OFFCURVE",
"885 194 CURVE SMOOTH",
"907 239 OFFCURVE",
"907 267 OFFCURVE",
"888 281 CURVE SMOOTH",
"860 302 OFFCURVE",
"825 281 OFFCURVE",
"769 225 CURVE SMOOTH",
"723 179 OFFCURVE",
"671 142 OFFCURVE",
"615 115 CURVE SMOOTH",
"562 89 OFFCURVE",
"499 72 OFFCURVE",
"440 72 CURVE SMOOTH",
"227 72 OFFCURVE",
"184 348 OFFCURVE",
"202 577 CURVE SMOOTH",
"220 805 OFFCURVE",
"305 956 OFFCURVE",
"414 1048 CURVE SMOOTH",
"485 1109 OFFCURVE",
"548 1134 OFFCURVE",
"643 1134 CURVE SMOOTH",
"702 1134 OFFCURVE",
"773 1116 OFFCURVE",
"844 1081 CURVE",
"762 1138 LINE",
"734 956 OFFCURVE",
"841 959 OFFCURVE",
"882 980 CURVE SMOOTH",
"932 1007 OFFCURVE",
"934 1084 OFFCURVE",
"902 1139 CURVE SMOOTH",
"855 1219 OFFCURVE",
"753 1261 OFFCURVE",
"629 1261 CURVE SMOOTH"
);
}
);
width = 1008;
}
);
unicode = 0043;
},
{
glyphname = D;
layers = (
{
anchors = (
{
name = top;
position = "{539, 1240}";
}
);
layerId = master01;
paths = (
{
closed = 1;
nodes = (
"271 1245 OFFCURVE",
"158 1233 OFFCURVE",
"85 1207 CURVE SMOOTH",
"4 1179 OFFCURVE",
"37 1092 OFFCURVE",
"107 1103 CURVE SMOOTH",
"180 1114 OFFCURVE",
"285 1126 OFFCURVE",
"375 1126 CURVE SMOOTH",
"720 1126 OFFCURVE",
"885 929 OFFCURVE",
"873 644 CURVE SMOOTH",
"860 334 OFFCURVE",
"679 105 OFFCURVE",
"317 105 CURVE SMOOTH",
"244 105 OFFCURVE",
"153 114 OFFCURVE",
"76 133 CURVE SMOOTH",
"5 151 OFFCURVE",
"-16 58 OFFCURVE",
"39 34 CURVE SMOOTH",
"122 -2 OFFCURVE",
"228 -13 OFFCURVE",
"331 -13 CURVE SMOOTH",
"790 -13 OFFCURVE",
"992 317 OFFCURVE",
"1010 634 CURVE SMOOTH",
"1032 1027 OFFCURVE",
"766 1245 OFFCURVE",
"373 1245 CURVE SMOOTH"
);
},
{
closed = 1;
nodes = (
"291 441 OFFCURVE",
"317 806 OFFCURVE",
"350 1178 CURVE",
"221 1178 LINE",
"206 817 OFFCURVE",
"161 428 OFFCURVE",
"142 68 CURVE",
"281 68 LINE"
);
}
);
width = 1104;
}
);
unicode = 0044;
},
{
color = 7;
glyphname = Eth;
lastChange = "2019-03-29 08:55:40 +0000";
layers = (
{
components = (
{
name = D;
transform = "{1, 0, 0, 1, 56, 0}";
}
);
layerId = master01;
paths = (
{
closed = 1;
nodes = (
"711 612 OFFCURVE",
"705 726 OFFCURVE",
"611 721 CURVE SMOOTH",
"515 716 OFFCURVE",
"298 701 OFFCURVE",
"134 686 CURVE SMOOTH",
"45 677 OFFCURVE",
"51 557 OFFCURVE",
"141 562 CURVE SMOOTH",
"249 568 OFFCURVE",
"466 589 OFFCURVE",
"621 603 CURVE"
);
}
);
width = 1160;
}
);
unicode = 00D0;
},
{
color = 7;
glyphname = Dcroat;
lastChange = "2019-03-29 08:55:40 +0000";
layers = (
{
components = (
{
name = D;
transform = "{1, 0, 0, 1, 56, 0}";
}
);
layerId = master01;
paths = (
{
closed = 1;
nodes = (
"711 612 OFFCURVE",
"705 726 OFFCURVE",
"611 721 CURVE SMOOTH",
"515 716 OFFCURVE",
"298 701 OFFCURVE",
"134 686 CURVE SMOOTH",
"45 677 OFFCURVE",
"51 557 OFFCURVE",
"141 562 CURVE SMOOTH",
"249 568 OFFCURVE",
"466 589 OFFCURVE",
"621 603 CURVE"
);
}
);
width = 1160;
}
);
unicode = 0110;
},
{
glyphname = E;
layers = (
{
anchors = (
{
name = top;
position = "{544, 1240}";
}
);
layerId = master01;
paths = (
{
closed = 1;
nodes = (
"98 1243 OFFCURVE",
"71 1216 OFFCURVE",
"71 1186 CURVE SMOOTH",
"71 1145 OFFCURVE",
"120 1128 OFFCURVE",
"183 1124 CURVE SMOOTH",
"291 1117 OFFCURVE",
"414 1114 OFFCURVE",
"537 1106 CURVE SMOOTH",
"647 1099 OFFCURVE",
"755 1088 OFFCURVE",
"861 1088 CURVE SMOOTH",
"911 1088 OFFCURVE",
"937 1117 OFFCURVE",
"937 1152 CURVE SMOOTH",
"937 1180 OFFCURVE",
"924 1207 OFFCURVE",
"855 1213 CURVE SMOOTH",
"767 1221 OFFCURVE",
"657 1227 OFFCURVE",
"560 1231 CURVE SMOOTH",
"433 1236 OFFCURVE",
"300 1243 OFFCURVE",
"154 1243 CURVE SMOOTH"
);
},
{
closed = 1;
nodes = (
"153 805 OFFCURVE",
"140 439 OFFCURVE",
"84 63 CURVE SMOOTH",
"77 13 OFFCURVE",
"92 -29 OFFCURVE",
"164 -24 CURVE SMOOTH",
"378 -8 OFFCURVE",
"594 2 OFFCURVE",
"776 2 CURVE SMOOTH",
"835 2 OFFCURVE",
"864 25 OFFCURVE",
"864 63 CURVE SMOOTH",
"864 111 OFFCURVE",
"822 129 OFFCURVE",
"774 129 CURVE SMOOTH",
"575 129 OFFCURVE",
"367 113 OFFCURVE",
"164 88 CURVE",
"228 83 LINE",
"276 435 OFFCURVE",
"290 828 OFFCURVE",
"283 1169 CURVE",
"164 1175 LINE"
);
},
{
closed = 1;
nodes = (
"331 555 OFFCURVE",
"476 562 OFFCURVE",
"612 556 CURVE SMOOTH",
"685 553 OFFCURVE",
"719 583 OFFCURVE",
"719 627 CURVE SMOOTH",
"719 666 OFFCURVE",
"693 692 OFFCURVE",
"634 692 CURVE SMOOTH",
"550 692 OFFCURVE",
"343 681 OFFCURVE",
"211 658 CURVE",
"206 549 LINE"
);
}
);
width = 984;
}
);
unicode = 0045;
},
{
glyphname = F;
layers = (
{
layerId = master01;
paths = (
{
closed = 1;
nodes = (
"227 -39 OFFCURVE",
"230 49 OFFCURVE",
"193 130 CURVE",
"193 38 LINE",
"256 416 OFFCURVE",
"295 803 OFFCURVE",
"312 1188 CURVE",
"179 1185 LINE",
"164 823 OFFCURVE",
"132 458 OFFCURVE",
"71 99 CURVE SMOOTH",
"57 20 OFFCURVE",
"86 -39 OFFCURVE",
"145 -39 CURVE SMOOTH"
);
},
{
closed = 1;
nodes = (
"29 1161 OFFCURVE",
"60 1061 OFFCURVE",
"153 1088 CURVE SMOOTH",
"279 1124 OFFCURVE",
"403 1132 OFFCURVE",
"527 1132 CURVE SMOOTH",
"655 1132 OFFCURVE",
"731 1123 OFFCURVE",
"832 1123 CURVE SMOOTH",
"889 1123 OFFCURVE",
"932 1133 OFFCURVE",
"932 1178 CURVE SMOOTH",
"932 1226 OFFCURVE",
"898 1244 OFFCURVE",
"807 1251 CURVE SMOOTH",
"621 1266 OFFCURVE",
"332 1271 OFFCURVE",
"105 1189 CURVE SMOOTH"
);
},
{
closed = 1;
nodes = (
"516 658 OFFCURVE",
"347 639 OFFCURVE",
"204 614 CURVE",
"193 515 LINE",
"329 519 OFFCURVE",
"502 529 OFFCURVE",
"640 533 CURVE SMOOTH",
"683 534 OFFCURVE",
"740 543 OFFCURVE",
"740 601 CURVE SMOOTH",
"740 646 OFFCURVE",
"706 658 OFFCURVE",
"663 658 CURVE SMOOTH"
);
}
);
width = 952;
}
);
unicode = 0046;
},
{
glyphname = G;
layers = (
{
anchors = (
{
name = bottom;
position = "{483, 0}";
},
{
name = top;
position = "{623, 1240}";
}
);
layerId = master01;
paths = (
{
closed = 1;
nodes = (
"760 389 OFFCURVE",
"695 126 OFFCURVE",
"456 126 CURVE SMOOTH",
"270 126 OFFCURVE",
"178 288 OFFCURVE",
"213 598 CURVE SMOOTH",
"247 896 OFFCURVE",
"418 1130 OFFCURVE",
"648 1130 CURVE SMOOTH",
"747 1130 OFFCURVE",
"805 1099 OFFCURVE",
"875 1044 CURVE SMOOTH",
"950 985 OFFCURVE",
"1031 1060 OFFCURVE",
"956 1135 CURVE SMOOTH",
"870 1221 OFFCURVE",
"761 1250 OFFCURVE",
"656 1250 CURVE SMOOTH",
"384 1250 OFFCURVE",
"146 1021 OFFCURVE",
"83 652 CURVE SMOOTH",
"23 298 OFFCURVE",
"129 6 OFFCURVE",
"450 6 CURVE SMOOTH",
"673 6 OFFCURVE",
"823 148 OFFCURVE",
"847 519 CURVE",
"815 519 LINE",
"794 289 OFFCURVE",
"773 116 OFFCURVE",
"802 4 CURVE SMOOTH",
"818 -56 OFFCURVE",
"855 -71 OFFCURVE",
"888 -61 CURVE SMOOTH",
"929 -48 OFFCURVE",
"927 -11 OFFCURVE",
"917 45 CURVE SMOOTH",
"889 197 OFFCURVE",
"901 306 OFFCURVE",
"912 540 CURVE SMOOTH",
"914 585 OFFCURVE",
"895 612 OFFCURVE",
"837 612 CURVE SMOOTH",
"726 612 OFFCURVE",
"627 619 OFFCURVE",
"542 619 CURVE SMOOTH",
"462 619 OFFCURVE",
"455 500 OFFCURVE",
"546 500 CURVE SMOOTH",
"562 500 OFFCURVE",
"620 502 OFFCURVE",
"686 506 CURVE SMOOTH",
"722 508 OFFCURVE",
"759 507 OFFCURVE",
"801 504 CURVE",
"781 548 LINE"
);
},
{
closed = 1;
nodes = (
"814 201 LINE",
"818 276 LINE",
"763 276 LINE",
"761 212 LINE"
);
}
);
width = 1064;
}
);
unicode = 0047;
},
{
glyphname = G.ss02;
layers = (
{
layerId = master01;
paths = (
{
closed = 1;
nodes = (
"922 667 OFFCURVE",
"797 657 OFFCURVE",
"785 568 CURVE SMOOTH",
"764 409 OFFCURVE",
"696 146 OFFCURVE",
"469 146 CURVE SMOOTH",
"274 146 OFFCURVE",
"181 308 OFFCURVE",
"217 618 CURVE SMOOTH",
"250 903 OFFCURVE",
"418 1130 OFFCURVE",
"648 1130 CURVE SMOOTH",
"747 1130 OFFCURVE",
"805 1099 OFFCURVE",
"875 1044 CURVE SMOOTH",
"950 985 OFFCURVE",
"1031 1060 OFFCURVE",
"956 1135 CURVE SMOOTH",
"870 1221 OFFCURVE",
"761 1250 OFFCURVE",
"656 1250 CURVE SMOOTH",
"384 1250 OFFCURVE",
"156 1026 OFFCURVE",
"87 672 CURVE SMOOTH",
"18 320 OFFCURVE",
"133 26 OFFCURVE",
"454 26 CURVE SMOOTH",
"677 26 OFFCURVE",
"827 168 OFFCURVE",
"851 539 CURVE",
"819 539 LINE",
"798 309 OFFCURVE",
"781 88 OFFCURVE",
"822 -21 CURVE SMOOTH",
"844 -79 OFFCURVE",
"887 -100 OFFCURVE",
"924 -88 CURVE SMOOTH",
"967 -74 OFFCURVE",
"973 -31 OFFCURVE",
"955 23 CURVE SMOOTH",
"900 185 OFFCURVE",
"902 326 OFFCURVE",
"916 560 CURVE SMOOTH"
);
},
{
closed = 1;
nodes = (
"822 244 LINE",
"822 296 LINE",
"767 296 LINE",
"767 244 LINE"
);
}
);
userData = {
com.typemytype.robofont.guides = (
{
angle = 0;
isGlobal = 0;
magnetic = 5;
x = 0;
y = 1250;
}
);
};
width = 1064;
}
);
},
{
glyphname = H;
layers = (
{
anchors = (
{
name = top;
position = "{562, 1240}";
}
);
layerId = master01;
paths = (
{
closed = 1;
nodes = (
"235 413 OFFCURVE",
"284 764 OFFCURVE",
"306 1130 CURVE SMOOTH",
"309 1175 OFFCURVE",
"308 1244 OFFCURVE",
"240 1244 CURVE SMOOTH",
"168 1244 OFFCURVE",
"159 1185 OFFCURVE",
"165 1118 CURVE",
"151 770 OFFCURVE",
"104 426 OFFCURVE",
"88 86 CURVE SMOOTH",
"85 20 OFFCURVE",
"113 -12 OFFCURVE",
"163 -12 CURVE SMOOTH",
"260 -12 OFFCURVE",
"254 107 OFFCURVE",
"196 155 CURVE",
"221 55 LINE"
);
},
{
closed = 1;
nodes = (
"818 781 OFFCURVE",
"782 334 OFFCURVE",
"782 63 CURVE SMOOTH",
"782 6 OFFCURVE",
"809 -19 OFFCURVE",
"848 -19 CURVE SMOOTH",
"882 -19 OFFCURVE",
"917 1 OFFCURVE",
"917 59 CURVE SMOOTH",
"916 203 OFFCURVE",
"929 430 OFFCURVE",
"942 654 CURVE SMOOTH",
"954 854 OFFCURVE",
"973 1024 OFFCURVE",
"985 1160 CURVE SMOOTH",
"992 1232 OFFCURVE",
"963 1252 OFFCURVE",
"917 1252 CURVE SMOOTH",
"882 1252 OFFCURVE",
"855 1227 OFFCURVE",
"851 1178 CURVE SMOOTH"
);
},
{
closed = 1;
nodes = (
"500 557 OFFCURVE",
"675 588 OFFCURVE",
"856 596 CURVE SMOOTH",
"904 598 OFFCURVE",
"928 627 OFFCURVE",
"928 657 CURVE SMOOTH",
"928 687 OFFCURVE",
"904 718 OFFCURVE",
"856 721 CURVE",
"638 704 OFFCURVE",
"465 681 OFFCURVE",
"205 681 CURVE",
"165 671 OFFCURVE",
"145 645 OFFCURVE",
"145 618 CURVE SMOOTH",
"145 590 OFFCURVE",
"165 565 OFFCURVE",
"205 555 CURVE"
);
}
);
width = 1104;
}
);
unicode = 0048;
},
{
color = 7;
glyphname = Hbar;
lastChange = "2019-03-29 08:55:40 +0000";
layers = (
{
components = (
{
name = H;
transform = "{1, 0, 0, 1, 16, 0}";
}
);
layerId = master01;
paths = (
{
closed = 1;
nodes = (
"787 1041 OFFCURVE",
"472 1027 OFFCURVE",
"288 1016 CURVE SMOOTH",
"219 1012 OFFCURVE",
"157 1007 OFFCURVE",
"90 997 CURVE SMOOTH",
"3 984 OFFCURVE",
"3 876 OFFCURVE",
"95 876 CURVE SMOOTH",
"151 876 OFFCURVE",
"219 892 OFFCURVE",
"288 896 CURVE SMOOTH",
"472 907 OFFCURVE",
"761 930 OFFCURVE",
"1064 934 CURVE SMOOTH",
"1144 935 OFFCURVE",
"1152 1041 OFFCURVE",
"1067 1041 CURVE SMOOTH"
);
}
);
width = 1136;
}
);
unicode = 0126;
},
{
glyphname = I;
layers = (
{
anchors = (
{
name = top;
position = "{234, 1240}";
}
);
layerId = master01;
paths = (
{
closed = 1;
nodes = (
"245 243 OFFCURVE",
"252 426 OFFCURVE",
"257 500 CURVE SMOOTH",
"268 675 OFFCURVE",
"268 731 OFFCURVE",
"273 811 CURVE SMOOTH",
"280 933 OFFCURVE",
"288 1068 OFFCURVE",
"294 1181 CURVE SMOOTH",
"296 1231 OFFCURVE",
"272 1261 OFFCURVE",
"227 1261 CURVE SMOOTH",
"156 1261 OFFCURVE",
"136 1171 OFFCURVE",
"194 1099 CURVE",
"168 1211 LINE",
"146 997 OFFCURVE",
"136 803 OFFCURVE",
"125 608 CURVE SMOOTH",
"115 430 OFFCURVE",
"105 237 OFFCURVE",
"105 68 CURVE SMOOTH",
"105 20 OFFCURVE",
"130 -12 OFFCURVE",
"181 -12 CURVE SMOOTH",
"250 -12 OFFCURVE",
"279 46 OFFCURVE",
"225 170 CURVE",
"245 87 LINE"
);
}
);
width = 400;
}
);
unicode = 0049;
},
{
glyphname = I.isol;
layers = (
{
anchors = (
{
name = top;
position = "{358, 1240}";
}
);
layerId = master01;
paths = (
{
closed = 1;
nodes = (
"225 1118 OFFCURVE",
"521 1116 OFFCURVE",
"583 1118 CURVE SMOOTH",
"625 1119 OFFCURVE",
"651 1133 OFFCURVE",
"651 1170 CURVE SMOOTH",
"651 1202 OFFCURVE",
"626 1224 OFFCURVE",
"579 1226 CURVE SMOOTH",
"429 1232 OFFCURVE",
"222 1237 OFFCURVE",
"145 1237 CURVE SMOOTH",
"91 1237 OFFCURVE",
"63 1210 OFFCURVE",
"63 1172 CURVE SMOOTH",
"63 1147 OFFCURVE",
"85 1115 OFFCURVE",
"145 1116 CURVE SMOOTH"
);
},
{
closed = 1;
nodes = (
"570 5 OFFCURVE",
"592 27 OFFCURVE",
"592 56 CURVE SMOOTH",
"592 88 OFFCURVE",
"569 100 OFFCURVE",
"505 104 CURVE SMOOTH",
"369 113 OFFCURVE",
"220 119 OFFCURVE",
"77 105 CURVE SMOOTH",
"29 100 OFFCURVE",
"13 75 OFFCURVE",
"13 52 CURVE SMOOTH",
"13 17 OFFCURVE",
"38 -3 OFFCURVE",
"80 -3 CURVE SMOOTH",
"211 -3 OFFCURVE",
"392 -3 OFFCURVE",
"528 3 CURVE SMOOTH"
);
},
{
closed = 1;
nodes = (
"388 416 OFFCURVE",
"395 783 OFFCURVE",
"415 1158 CURVE",
"282 1163 LINE",
"267 793 OFFCURVE",
"257 386 OFFCURVE",
"232 49 CURVE",
"376 44 LINE"
);
}
);
width = 696;
}
);
},
{
glyphname = J;
layers = (
{
anchors = (
{
name = top;
position = "{466, 1240}";
}
);
layerId = master01;
paths = (
{
closed = 1;
nodes = (
"218 1252 OFFCURVE",
"149 1247 OFFCURVE",
"122 1235 CURVE SMOOTH",
"103 1227 OFFCURVE",
"86 1211 OFFCURVE",
"86 1185 CURVE SMOOTH",
"86 1144 OFFCURVE",
"111 1120 OFFCURVE",
"170 1120 CURVE SMOOTH",
"250 1120 OFFCURVE",
"582 1127 OFFCURVE",
"786 1131 CURVE",
"677 1182 LINE",
"727 780 OFFCURVE",
"708 452 OFFCURVE",
"653 298 CURVE SMOOTH",
"604 162 OFFCURVE",
"545 79 OFFCURVE",
"391 79 CURVE SMOOTH",
"274 79 OFFCURVE",
"173 156 OFFCURVE",
"163 347 CURVE",
"163 241 LINE",
"260 318 OFFCURVE",
"220 433 OFFCURVE",
"137 433 CURVE SMOOTH",
"57 433 OFFCURVE",
"35 357 OFFCURVE",
"47 280 CURVE SMOOTH",
"76 95 OFFCURVE",
"198 -44 OFFCURVE",
"405 -44 CURVE SMOOTH",
"569 -44 OFFCURVE",
"700 35 OFFCURVE",
"771 233 CURVE SMOOTH",
"847 445 OFFCURVE",
"857 764 OFFCURVE",
"821 1184 CURVE SMOOTH",
"819 1205 OFFCURVE",
"805 1233 OFFCURVE",
"769 1236 CURVE SMOOTH",
"588 1251 OFFCURVE",
"361 1252 OFFCURVE",
"288 1252 CURVE SMOOTH"
);
}
);
width = 944;
}
);
unicode = 004A;
},
{
glyphname = J.latn_DEU;
layers = (
{
layerId = master01;
paths = (
{
closed = 1;
nodes = (
"142 1179 OFFCURVE",
"98 1166 OFFCURVE",
"98 1118 CURVE SMOOTH",
"98 1077 OFFCURVE",
"132 1057 OFFCURVE",
"193 1057 CURVE SMOOTH",
"297 1057 OFFCURVE",
"531 1087 OFFCURVE",
"743 1137 CURVE",
"643 1179 LINE",
"689 620 OFFCURVE",
"656 243 OFFCURVE",
"590 11 CURVE SMOOTH",
"548 -136 OFFCURVE",
"484 -217 OFFCURVE",
"326 -217 CURVE SMOOTH",
"209 -217 OFFCURVE",
"121 -158 OFFCURVE",
"139 52 CURVE",
"95 -54 LINE",
"269 -59 OFFCURVE",
"238 130 OFFCURVE",
"132 130 CURVE SMOOTH",
"57 130 OFFCURVE",
"23 63 OFFCURVE",
"23 -15 CURVE SMOOTH",
"23 -200 OFFCURVE",
"133 -340 OFFCURVE",
"340 -340 CURVE SMOOTH",
"504 -340 OFFCURVE",
"649 -265 OFFCURVE",
"717 -23 CURVE SMOOTH",
"788 227 OFFCURVE",
"821 643 OFFCURVE",
"781 1184 CURVE SMOOTH",
"778 1219 OFFCURVE",
"759 1248 OFFCURVE",
"710 1248 CURVE SMOOTH",
"677 1248 OFFCURVE",
"639 1238 OFFCURVE",
"610 1232 CURVE SMOOTH",
"468 1202 OFFCURVE",
"327 1188 OFFCURVE",
"223 1183 CURVE SMOOTH"
);
}
);
width = 904;
}
);
},
{
glyphname = J.ss03;
layers = (
{
anchors = (
{
name = top;
position = "{258, 1240}";
}
);
layerId = master01;
paths = (
{
closed = 1;
nodes = (
"161 750 OFFCURVE",
"148 538 OFFCURVE",
"137 202 CURVE SMOOTH",
"132 51 OFFCURVE",
"125 -55 OFFCURVE",
"30 -125 CURVE SMOOTH",
"8 -141 OFFCURVE",
"-23 -159 OFFCURVE",
"-53 -170 CURVE SMOOTH",
"-134 -200 OFFCURVE",
"-103 -281 OFFCURVE",
"-42 -281 CURVE SMOOTH",
"21 -281 OFFCURVE",
"90 -247 OFFCURVE",
"132 -210 CURVE SMOOTH",
"233 -121 OFFCURVE",
"260 -9 OFFCURVE",
"265 122 CURVE SMOOTH",
"278 499 OFFCURVE",
"298 784 OFFCURVE",
"332 1185 CURVE SMOOTH",
"336 1227 OFFCURVE",
"321 1269 OFFCURVE",
"267 1269 CURVE SMOOTH",
"175 1269 OFFCURVE",
"154 1151 OFFCURVE",
"233 1072 CURVE",
"200 1164 LINE"
);
}
);
width = 432;
}
);
},
{
glyphname = K;
layers = (
{
anchors = (
{
name = bottom;
position = "{538, 0}";
}
);
layerId = master01;
paths = (
{
closed = 1;
nodes = (
"185 1274 OFFCURVE",
"156 1232 OFFCURVE",
"169 1163 CURVE",
"132 797 OFFCURVE",
"110 434 OFFCURVE",
"110 63 CURVE SMOOTH",
"110 4 OFFCURVE",
"139 -23 OFFCURVE",
"179 -23 CURVE SMOOTH",
"215 -23 OFFCURVE",
"250 -6 OFFCURVE",
"261 72 CURVE",
"406 350 OFFCURVE",
"560 611 OFFCURVE",
"734 861 CURVE SMOOTH",
"808 967 OFFCURVE",
"869 1038 OFFCURVE",
"940 1110 CURVE SMOOTH",
"1021 1192 OFFCURVE",
"927 1266 OFFCURVE",
"854 1208 CURVE SMOOTH",
"773 1144 OFFCURVE",
"702 1046 OFFCURVE",
"619 925 CURVE SMOOTH",
"529 793 OFFCURVE",
"443 650 OFFCURVE",
"374 528 CURVE SMOOTH",
"290 379 OFFCURVE",
"222 248 OFFCURVE",
"183 102 CURVE",
"217 102 LINE",
"233 245 OFFCURVE",
"238 395 OFFCURVE",
"250 544 CURVE SMOOTH",
"267 754 OFFCURVE",
"284 964 OFFCURVE",
"306 1164 CURVE SMOOTH",
"314 1234 OFFCURVE",
"292 1274 OFFCURVE",
"237 1274 CURVE SMOOTH"
);
},
{
closed = 1;
nodes = (
"553 370 OFFCURVE",
"700 153 OFFCURVE",
"864 6 CURVE SMOOTH",
"893 -20 OFFCURVE",
"938 -28 OFFCURVE",
"964 4 CURVE SMOOTH",
"990 36 OFFCURVE",
"978 82 OFFCURVE",
"940 120 CURVE SMOOTH",
"758 302 OFFCURVE",
"644 444 OFFCURVE",
"518 658 CURVE",
"432 575 LINE"
);
},
{
closed = 1;
nodes = (
"269 192 LINE",
"278 281 LINE",
"203 298 LINE",
"196 198 LINE"
);
}
);
width = 1056;
}
);
unicode = 004B;
},
{
glyphname = K.ss03;
layers = (
{
layerId = master01;
paths = (
{
closed = 1;
nodes = (
"265 443 OFFCURVE",
"275 805 OFFCURVE",
"299 1130 CURVE SMOOTH",
"303 1182 OFFCURVE",
"296 1240 OFFCURVE",
"236 1240 CURVE SMOOTH",
"189 1240 OFFCURVE",
"162 1198 OFFCURVE",
"158 1129 CURVE SMOOTH",
"151 994 OFFCURVE",
"130 571 OFFCURVE",
"123 432 CURVE SMOOTH",
"116 292 OFFCURVE",
"112 180 OFFCURVE",
"104 124 CURVE",
"69 20 OFFCURVE",
"101 -27 OFFCURVE",
"156 -27 CURVE SMOOTH",
"212 -27 OFFCURVE",
"228 19 OFFCURVE",
"236 109 CURVE SMOOTH"
);
},
{
closed = 1;
nodes = (
"538 762 OFFCURVE",
"699 924 OFFCURVE",
"884 1071 CURVE",
"968 1092 OFFCURVE",
"966 1203 OFFCURVE",
"882 1203 CURVE SMOOTH",
"838 1203 OFFCURVE",
"799 1169 OFFCURVE",
"770 1144 CURVE SMOOTH",
"654 1047 OFFCURVE",
"459 857 OFFCURVE",
"312 685 CURVE",
"231 642 OFFCURVE",
"231 583 OFFCURVE",
"289 533 CURVE",
"442 346 OFFCURVE",
"596 170 OFFCURVE",
"793 -5 CURVE SMOOTH",
"893 -94 OFFCURVE",
"983 37 OFFCURVE",
"884 112 CURVE SMOOTH",
"723 234 OFFCURVE",
"511 442 OFFCURVE",
"364 637 CURVE",
"364 592 LINE"
);
}
);
width = 1024;
}
);
},
{
glyphname = L;
layers = (
{
anchors = (
{
name = bottom;
position = "{480, 0}";
},
{
name = top;
position = "{240, 1240}";
}
);
layerId = master01;
paths = (
{
closed = 1;
nodes = (
"168 1254 OFFCURVE",
"146 1194 OFFCURVE",
"144 1110 CURVE SMOOTH",
"140 958 OFFCURVE",
"130 818 OFFCURVE",
"120 650 CURVE SMOOTH",
"108 446 OFFCURVE",
"98 284 OFFCURVE",
"108 60 CURVE SMOOTH",
"110 10 OFFCURVE",
"150 -14 OFFCURVE",
"194 -14 CURVE SMOOTH",
"270 -14 OFFCURVE",
"408 0 OFFCURVE",
"518 0 CURVE SMOOTH",
"604 0 OFFCURVE",
"688 -8 OFFCURVE",
"756 -8 CURVE SMOOTH",
"806 -8 OFFCURVE",
"842 14 OFFCURVE",
"842 54 CURVE SMOOTH",
"842 103 OFFCURVE",
"794 121 OFFCURVE",
"742 121 CURVE SMOOTH",
"630 121 OFFCURVE",
"349 112 OFFCURVE",
"153 100 CURVE",
"238 58 LINE",
"228 236 OFFCURVE",
"240 434 OFFCURVE",
"252 642 CURVE SMOOTH",
"262 806 OFFCURVE",
"269 936 OFFCURVE",
"279 1082 CURVE",
"298 1142 OFFCURVE",
"327 1254 OFFCURVE",
"238 1254 CURVE SMOOTH"
);
}
);
width = 920;
}
);
unicode = 004C;
},
{
color = 7;
glyphname = Lslash;
lastChange = "2019-03-29 08:55:40 +0000";
layers = (
{
components = (
{
name = L;
transform = "{1, 0, 0, 1, 40, 0}";
}
);
layerId = master01;
paths = (
{
closed = 1;
nodes = (
"650 766 OFFCURVE",
"595 852 OFFCURVE",
"509 812 CURVE SMOOTH",
"388 755 OFFCURVE",
"154 611 OFFCURVE",
"24 514 CURVE SMOOTH",
"-54 456 OFFCURVE",
"15 355 OFFCURVE",
"88 408 CURVE SMOOTH",
"178 473 OFFCURVE",
"412 628 OFFCURVE",
"564 716 CURVE SMOOTH"
);
}
);
width = 960;
}
);
unicode = 0141;
},
{
color = 7;
glyphname = Lslash.latn_PLK;
lastChange = "2019-03-29 08:55:40 +0000";
layers = (
{
components = (
{
name = L;
transform = "{1, 0, 0, 1, 40, 0}";
}
);
layerId = master01;
paths = (
{
closed = 1;
nodes = (
"634 971 OFFCURVE",
"615 1073 OFFCURVE",
"521 1065 CURVE SMOOTH",
"416 1056 OFFCURVE",
"185 1014 OFFCURVE",
"59 980 CURVE SMOOTH",
"-35 955 OFFCURVE",
"-8 836 OFFCURVE",
"79 858 CURVE SMOOTH",
"180 883 OFFCURVE",
"409 936 OFFCURVE",
"544 957 CURVE SMOOTH"
);
}
);
width = 960;
}
);
},
{
glyphname = M;
layers = (
{
layerId = master01;
paths = (
{
closed = 1;
nodes = (
"346 1206 OFFCURVE",
"320 1183 OFFCURVE",
"292 1112 CURVE SMOOTH",
"228 937 OFFCURVE",
"154 637 OFFCURVE",
"119 457 CURVE SMOOTH",
"89 303 OFFCURVE",
"64 175 OFFCURVE",
"55 60 CURVE SMOOTH",
"49 -16 OFFCURVE",
"78 -43 OFFCURVE",
"123 -43 CURVE SMOOTH",
"171 -43 OFFCURVE",
"199 -13 OFFCURVE",
"206 65 CURVE SMOOTH",
"217 195 OFFCURVE",
"237 347 OFFCURVE",
"252 443 CURVE SMOOTH",
"281 626 OFFCURVE",
"332 832 OFFCURVE",
"386 996 CURVE",
"371 996 LINE",
"437 762 OFFCURVE",
"534 535 OFFCURVE",
"611 393 CURVE SMOOTH",
"639 340 OFFCURVE",
"661 310 OFFCURVE",
"706 310 CURVE SMOOTH",
"740 310 OFFCURVE",
"772 331 OFFCURVE",
"790 381 CURVE SMOOTH",
"868 602 OFFCURVE",
"990 855 OFFCURVE",
"1117 1040 CURVE",
"1087 1040 LINE",
"1144 709 OFFCURVE",
"1178 390 OFFCURVE",
"1193 127 CURVE SMOOTH",
"1199 26 OFFCURVE",
"1239 1 OFFCURVE",
"1279 1 CURVE SMOOTH",
"1356 1 OFFCURVE",
"1394 87 OFFCURVE",
"1302 266 CURVE",
"1332 142 LINE",
"1306 476 OFFCURVE",
"1267 802 OFFCURVE",
"1205 1099 CURVE",
"1222 1210 OFFCURVE",
"1170 1235 OFFCURVE",
"1143 1235 CURVE SMOOTH",
"1092 1235 OFFCURVE",
"1030 1158 OFFCURVE",
"959 1043 CURVE SMOOTH",
"875 907 OFFCURVE",
"772 691 OFFCURVE",
"692 451 CURVE",
"735 451 LINE",
"625 631 OFFCURVE",
"538 860 OFFCURVE",
"469 1096 CURVE",
"461 1160 OFFCURVE",
"434 1206 OFFCURVE",
"388 1206 CURVE SMOOTH"
);
}
);
width = 1496;
}
);
unicode = 004D;
},
{
glyphname = M.ss03;
layers = (
{
layerId = master01;
paths = (
{
closed = 1;
nodes = (
"393 1221 OFFCURVE",
"366 1198 OFFCURVE",
"335 1127 CURVE",
"264 952 OFFCURVE",
"177 652 OFFCURVE",
"135 472 CURVE SMOOTH",
"98 318 OFFCURVE",
"68 190 OFFCURVE",
"54 75 CURVE SMOOTH",
"45 -1 OFFCURVE",
"73 -28 OFFCURVE",
"112 -28 CURVE SMOOTH",
"161 -28 OFFCURVE",
"189 2 OFFCURVE",
"199 80 CURVE SMOOTH",
"216 210 OFFCURVE",
"242 362 OFFCURVE",
"261 458 CURVE SMOOTH",
"298 641 OFFCURVE",
"371 886 OFFCURVE",
"453 1113 CURVE",
"402 1113 LINE",
"492 793 OFFCURVE",
"579 292 OFFCURVE",
"610 146 CURVE SMOOTH",
"628 62 OFFCURVE",
"658 29 OFFCURVE",
"704 29 CURVE SMOOTH",
"737 29 OFFCURVE",
"772 42 OFFCURVE",
"799 126 CURVE SMOOTH",
"890 415 OFFCURVE",
"1027 787 OFFCURVE",
"1212 1114 CURVE",
"1167 1114 LINE",
"1209 740 OFFCURVE",
"1231 405 OFFCURVE",
"1235 142 CURVE SMOOTH",
"1237 41 OFFCURVE",
"1276 16 OFFCURVE",
"1316 16 CURVE SMOOTH",
"1393 16 OFFCURVE",
"1434 102 OFFCURVE",
"1350 281 CURVE",
"1374 157 LINE",
"1362 491 OFFCURVE",
"1337 817 OFFCURVE",
"1288 1114 CURVE",
"1309 1225 OFFCURVE",
"1258 1250 OFFCURVE",
"1222 1250 CURVE SMOOTH",
"1164 1250 OFFCURVE",
"1110 1178 OFFCURVE",
"1052 1079 CURVE SMOOTH",
"970 942 OFFCURVE",
"868 729 OFFCURVE",
"813 569 CURVE SMOOTH",
"749 381 OFFCURVE",
"720 266 OFFCURVE",
"701 157 CURVE",
"713 157 LINE",
"713 254 OFFCURVE",
"698 366 OFFCURVE",
"675 505 CURVE SMOOTH",
"648 667 OFFCURVE",
"599 879 OFFCURVE",
"532 1111 CURVE",
"515 1184 OFFCURVE",
"490 1221 OFFCURVE",
"435 1221 CURVE SMOOTH"
);
}
);
width = 1544;
}
);
},
{
glyphname = N;
layers = (
{
anchors = (
{
name = bottom;
position = "{517, 0}";
},
{
name = top;
position = "{557, 1240}";
}
);
layerId = master01;
paths = (
{
closed = 1;
nodes = (
"177 1195 OFFCURVE",
"152 1167 OFFCURVE",
"149 1114 CURVE SMOOTH",
"129 791 OFFCURVE",
"117 520 OFFCURVE",
"96 135 CURVE SMOOTH",
"93 71 OFFCURVE",
"108 17 OFFCURVE",
"162 17 CURVE SMOOTH",
"219 17 OFFCURVE",
"239 62 OFFCURVE",
"241 148 CURVE SMOOTH",
"246 339 OFFCURVE",
"248 479 OFFCURVE",
"253 620 CURVE SMOOTH",
"257 742 OFFCURVE",
"256 861 OFFCURVE",
"251 970 CURVE",
"281 994 LINE",
"282 1036 OFFCURVE",
"282 1079 OFFCURVE",
"281 1123 CURVE SMOOTH",
"280 1175 OFFCURVE",
"249 1195 OFFCURVE",
"216 1195 CURVE SMOOTH"
);
},
{
closed = 1;
nodes = (
"257 929 OFFCURVE",
"321 768 OFFCURVE",
"453 540 CURVE SMOOTH",
"526 412 OFFCURVE",
"642 227 OFFCURVE",
"793 41 CURVE",
"822 -13 OFFCURVE",
"875 -28 OFFCURVE",
"916 0 CURVE SMOOTH",
"940 16 OFFCURVE",
"956 51 OFFCURVE",
"961 97 CURVE SMOOTH",
"1001 430 OFFCURVE",
"1025 778 OFFCURVE",
"1005 1138 CURVE SMOOTH",
"1002 1199 OFFCURVE",
"966 1222 OFFCURVE",
"931 1222 CURVE SMOOTH",
"894 1222 OFFCURVE",
"857 1196 OFFCURVE",
"861 1130 CURVE SMOOTH",
"874 901 OFFCURVE",
"871 647 OFFCURVE",
"855 390 CURVE SMOOTH",
"850 305 OFFCURVE",
"842 217 OFFCURVE",
"844 136 CURVE",
"863 136 LINE",
"823 213 OFFCURVE",
"776 281 OFFCURVE",
"725 357 CURVE SMOOTH",
"564 597 OFFCURVE",
"416 864 OFFCURVE",
"270 1162 CURVE",
"189 1084 LINE"
);
},
{
closed = 1;
nodes = (
"287 904 LINE",
"279 1008 LINE",
"200 1008 LINE",
"213 891 LINE"
);
},
{
closed = 1;
nodes = (
"898 112 LINE",
"895 216 LINE",
"793 192 LINE",
"791 112 LINE"
);
}
);
width = 1144;
}
);
unicode = 004E;
},
{
color = 7;
glyphname = Eng;
lastChange = "2019-03-29 08:55:40 +0000";
layers = (
{
components = (
{
name = N;
}
);
layerId = master01;
paths = (
{
closed = 1;
nodes = (
"859 203 OFFCURVE",
"811 -60 OFFCURVE",
"769 -185 CURVE SMOOTH",
"719 -335 OFFCURVE",
"639 -391 OFFCURVE",
"562 -391 CURVE SMOOTH",
"511 -391 OFFCURVE",
"476 -379 OFFCURVE",
"436 -340 CURVE SMOOTH",
"399 -303 OFFCURVE",
"373 -298 OFFCURVE",
"353 -314 CURVE SMOOTH",
"322 -340 OFFCURVE",
"327 -400 OFFCURVE",
"382 -448 CURVE SMOOTH",
"416 -478 OFFCURVE",
"471 -511 OFFCURVE",
"566 -511 CURVE SMOOTH",
"675 -511 OFFCURVE",
"814 -443 OFFCURVE",
"893 -236 CURVE SMOOTH",
"957 -68 OFFCURVE",
"983 203 OFFCURVE",
"994 443 CURVE",
"865 443 LINE"
);
}
);
width = 1144;
}
);
unicode = 014A;
},
{
glyphname = O;
layers = (
{
anchors = (
{
name = top;
position = "{562, 1240}";
}
);
layerId = master01;
paths = (
{
closed = 1;
nodes = (
"456 1265 OFFCURVE",
"359 1231 OFFCURVE",
"280 1157 CURVE SMOOTH",
"186 1069 OFFCURVE",
"116 926 OFFCURVE",
"82 743 CURVE SMOOTH",
"0 307 OFFCURVE",
"150 -36 OFFCURVE",
"459 -36 CURVE SMOOTH",
"663 -36 OFFCURVE",
"889 118 OFFCURVE",
"948 519 CURVE SMOOTH",
"987 784 OFFCURVE",
"940 1048 OFFCURVE",
"779 1177 CURVE SMOOTH",
"677 1258 OFFCURVE",
"612 1173 OFFCURVE",
"686 1104 CURVE SMOOTH",
"826 973 OFFCURVE",
"839 759 OFFCURVE",
"817 565 CURVE SMOOTH",
"784 278 OFFCURVE",
"646 84 OFFCURVE",
"466 84 CURVE SMOOTH",
"235 84 OFFCURVE",
"132 406 OFFCURVE",
"231 788 CURVE SMOOTH",
"291 1021 OFFCURVE",
"391 1127 OFFCURVE",
"551 1141 CURVE SMOOTH",
"603 1146 OFFCURVE",
"673 1120 OFFCURVE",
"688 1180 CURVE SMOOTH",
"703 1241 OFFCURVE",
"630 1265 OFFCURVE",
"554 1265 CURVE SMOOTH"
);
}
);
width = 1056;
}
);
unicode = 004F;
},
{
glyphname = OE;
layers = (
{
layerId = master01;
paths = (
{
closed = 1;
nodes = (
"794 940 OFFCURVE",
"810 776 OFFCURVE",
"784 577 CURVE SMOOTH",
"749 312 OFFCURVE",
"673 117 OFFCURVE",
"465 117 CURVE SMOOTH",
"281 117 OFFCURVE",
"171 329 OFFCURVE",
"205 633 CURVE SMOOTH",
"227 831 OFFCURVE",
"324 1083 OFFCURVE",
"530 1083 CURVE SMOOTH",
"583 1083 OFFCURVE",
"660 1065 OFFCURVE",
"738 1012 CURVE SMOOTH",
"799 971 OFFCURVE",
"823 1026 OFFCURVE",
"782 1085 CURVE SMOOTH",
"729 1160 OFFCURVE",
"629 1203 OFFCURVE",
"532 1203 CURVE SMOOTH",
"245 1203 OFFCURVE",
"108 899 OFFCURVE",
"75 675 CURVE SMOOTH",
"25 332 OFFCURVE",
"151 -3 OFFCURVE",
"451 -3 CURVE SMOOTH",
"764 -3 OFFCURVE",
"891 307 OFFCURVE",
"922 545 CURVE SMOOTH",
"951 769 OFFCURVE",
"927 977 OFFCURVE",
"841 1143 CURVE",
"809 1075 LINE",
"1029 1094 OFFCURVE",
"1221 1095 OFFCURVE",
"1426 1085 CURVE SMOOTH",
"1545 1079 OFFCURVE",
"1546 1215 OFFCURVE",
"1438 1219 CURVE SMOOTH",
"1224 1227 OFFCURVE",
"989 1223 OFFCURVE",
"799 1193 CURVE SMOOTH",
"724 1181 OFFCURVE",
"721 1133 OFFCURVE",
"738 1088 CURVE SMOOTH"
);
},
{
closed = 1;
nodes = (
"830 574 LINE",
"1330 586 LINE SMOOTH",
"1422 588 OFFCURVE",
"1426 715 OFFCURVE",
"1322 710 CURVE SMOOTH",
"828 684 LINE"
);
},
{
closed = 1;
nodes = (
"665 142 OFFCURVE",
"668 5 OFFCURVE",
"773 8 CURVE SMOOTH",
"1336 42 LINE SMOOTH",
"1391 44 OFFCURVE",
"1423 75 OFFCURVE",
"1423 111 CURVE SMOOTH",
"1423 147 OFFCURVE",
"1392 158 OFFCURVE",
"1326 156 CURVE SMOOTH",
"775 143 LINE SMOOTH"
);
}
);
width = 1536;
}
);
unicode = 0152;
},
{
glyphname = P;
layers = (
{
layerId = master01;
paths = (
{
closed = 1;
nodes = (
"709 1162 OFFCURVE",
"835 1049 OFFCURVE",
"824 853 CURVE SMOOTH",
"814 672 OFFCURVE",
"673 585 OFFCURVE",
"471 585 CURVE SMOOTH",
"366 585 OFFCURVE",
"290 603 OFFCURVE",
"217 630 CURVE",
"184 535 LINE",
"276 492 OFFCURVE",
"386 470 OFFCURVE",
"489 470 CURVE SMOOTH",
"745 470 OFFCURVE",
"953 600 OFFCURVE",
"966 869 CURVE SMOOTH",
"980 1155 OFFCURVE",
"762 1286 OFFCURVE",
"497 1286 CURVE SMOOTH",
"365 1286 OFFCURVE",
"195 1250 OFFCURVE",
"91 1181 CURVE SMOOTH",
"67 1165 OFFCURVE",
"53 1141 OFFCURVE",
"53 1120 CURVE SMOOTH",
"53 1044 OFFCURVE",
"172 1033 OFFCURVE",
"187 1130 CURVE",
"150 1095 LINE",
"244 1137 OFFCURVE",
"350 1162 OFFCURVE",
"456 1162 CURVE SMOOTH"
);
},
{
closed = 1;
nodes = (
"251 244 OFFCURVE",
"263 434 OFFCURVE",
"274 631 CURVE SMOOTH",
"284 818 OFFCURVE",
"292 1005 OFFCURVE",
"303 1191 CURVE",
"171 1191 LINE",
"169 1015 OFFCURVE",
"151 844 OFFCURVE",
"141 670 CURVE SMOOTH",
"130 470 OFFCURVE",
"90 103 OFFCURVE",
"90 48 CURVE SMOOTH",
"90 5 OFFCURVE",
"117 -26 OFFCURVE",
"164 -26 CURVE SMOOTH",
"205 -26 OFFCURVE",
"236 -2 OFFCURVE",
"240 57 CURVE SMOOTH"
);
}
);
width = 1024;
}
);
unicode = 0050;
},
{
glyphname = Thorn;
layers = (
{
layerId = master01;
paths = (
{
closed = 1;
nodes = (
"742 925 OFFCURVE",
"836 815 OFFCURVE",
"812 629 CURVE SMOOTH",
"789 450 OFFCURVE",
"678 359 OFFCURVE",
"501 359 CURVE SMOOTH",
"396 359 OFFCURVE",
"293 378 OFFCURVE",
"220 405 CURVE",
"191 322 LINE",
"284 276 OFFCURVE",
"403 244 OFFCURVE",
"534 244 CURVE SMOOTH",
"760 244 OFFCURVE",
"926 390 OFFCURVE",
"952 628 CURVE SMOOTH",
"984 920 OFFCURVE",
"789 1049 OFFCURVE",
"560 1049 CURVE SMOOTH",
"380 1049 OFFCURVE",
"195 1004 OFFCURVE",
"91 935 CURVE SMOOTH",
"67 919 OFFCURVE",
"53 895 OFFCURVE",
"53 874 CURVE SMOOTH",
"53 798 OFFCURVE",
"172 787 OFFCURVE",
"187 884 CURVE",
"150 849 LINE",
"244 891 OFFCURVE",
"397 925 OFFCURVE",
"503 925 CURVE SMOOTH"
);
},
{
closed = 1;
nodes = (
"275 244 OFFCURVE",
"287 434 OFFCURVE",
"298 631 CURVE SMOOTH",
"308 818 OFFCURVE",
"316 1005 OFFCURVE",
"327 1191 CURVE",
"336 1280 OFFCURVE",
"195 1289 OFFCURVE",
"195 1191 CURVE",
"193 1015 OFFCURVE",
"175 844 OFFCURVE",
"165 670 CURVE SMOOTH",
"154 470 OFFCURVE",
"114 103 OFFCURVE",
"114 48 CURVE SMOOTH",
"114 5 OFFCURVE",
"141 -26 OFFCURVE",
"188 -26 CURVE SMOOTH",
"229 -26 OFFCURVE",
"260 -2 OFFCURVE",
"264 57 CURVE SMOOTH"
);
}
);
width = 1040;
}
);
unicode = 00DE;
},
{
glyphname = Q;
layers = (
{
layerId = master01;
paths = (
{
closed = 1;
nodes = (
"389 1258 OFFCURVE",
"148 1055 OFFCURVE",
"83 716 CURVE SMOOTH",
"5 309 OFFCURVE",
"174 14 OFFCURVE",
"447 14 CURVE SMOOTH",
"687 14 OFFCURVE",
"844 192 OFFCURVE",
"933 400 CURVE SMOOTH",
"1037 646 OFFCURVE",
"1028 934 OFFCURVE",
"938 1092 CURVE SMOOTH",
"901 1157 OFFCURVE",
"844 1171 OFFCURVE",
"809 1141 CURVE SMOOTH",
"764 1103 OFFCURVE",
"784 1025 OFFCURVE",
"841 967 CURVE",
"889 811 OFFCURVE",
"887 672 OFFCURVE",
"824 481 CURVE SMOOTH",
"764 298 OFFCURVE",
"622 127 OFFCURVE",
"459 127 CURVE SMOOTH",
"246 127 OFFCURVE",
"162 376 OFFCURVE",
"217 680 CURVE SMOOTH",
"266 952 OFFCURVE",
"444 1139 OFFCURVE",
"612 1139 CURVE SMOOTH",
"677 1139 OFFCURVE",
"720 1120 OFFCURVE",
"761 1087 CURVE SMOOTH",
"846 1019 OFFCURVE",
"920 1117 OFFCURVE",
"847 1178 CURVE SMOOTH",
"774 1239 OFFCURVE",
"699 1258 OFFCURVE",
"612 1258 CURVE SMOOTH"
);
},
{
closed = 1;
nodes = (
"549 477 OFFCURVE",
"535 440 OFFCURVE",
"554 391 CURVE SMOOTH",
"621 216 OFFCURVE",
"765 11 OFFCURVE",
"914 -68 CURVE SMOOTH",
"971 -98 OFFCURVE",
"1019 -89 OFFCURVE",
"1035 -58 CURVE SMOOTH",
"1056 -17 OFFCURVE",
"1031 19 OFFCURVE",
"984 47 CURVE SMOOTH",
"827 141 OFFCURVE",
"737 248 OFFCURVE",
"673 401 CURVE SMOOTH",
"657 439 OFFCURVE",
"639 490 OFFCURVE",
"590 483 CURVE SMOOTH"
);
}
);
width = 1112;
}
);
unicode = 0051;
},
{
glyphname = R;
layers = (
{
anchors = (
{
name = bottom;
position = "{536, 0}";
},
{
name = top;
position = "{496, 1240}";
}
);
layerId = master01;
paths = (
{
closed = 1;
nodes = (
"70 1140 OFFCURVE",
"101 1128 OFFCURVE",
"146 1134 CURVE SMOOTH",
"242 1147 OFFCURVE",
"327 1159 OFFCURVE",
"435 1159 CURVE SMOOTH",
"692 1159 OFFCURVE",
"755 1045 OFFCURVE",
"742 902 CURVE SMOOTH",
"726 721 OFFCURVE",
"523 616 OFFCURVE",
"214 702 CURVE",
"199 588 LINE",
"396 519 OFFCURVE",
"566 403 OFFCURVE",
"680 280 CURVE SMOOTH",
"778 172 OFFCURVE",
"846 83 OFFCURVE",
"896 8 CURVE",
"929 -42 OFFCURVE",
"961 -61 OFFCURVE",
"993 -61 CURVE SMOOTH",
"1058 -61 OFFCURVE",
"1095 28 OFFCURVE",
"997 110 CURVE",
"887 262 OFFCURVE",
"730 414 OFFCURVE",
"610 498 CURVE SMOOTH",
"540 547 OFFCURVE",
"420 587 OFFCURVE",
"322 608 CURVE",
"322 598 LINE",
"442 581 OFFCURVE",
"550 572 OFFCURVE",
"638 603 CURVE SMOOTH",
"771 650 OFFCURVE",
"860 746 OFFCURVE",
"883 874 CURVE SMOOTH",
"925 1109 OFFCURVE",
"777 1275 OFFCURVE",
"459 1275 CURVE SMOOTH",
"349 1275 OFFCURVE",
"225 1259 OFFCURVE",
"131 1236 CURVE SMOOTH",
"87 1225 OFFCURVE",
"70 1205 OFFCURVE",
"70 1179 CURVE SMOOTH"
);
},
{
closed = 1;
nodes = (
"143 814 OFFCURVE",
"103 420 OFFCURVE",
"93 84 CURVE SMOOTH",
"91 18 OFFCURVE",
"116 -13 OFFCURVE",
"166 -13 CURVE SMOOTH",
"215 -13 OFFCURVE",
"234 24 OFFCURVE",
"234 71 CURVE SMOOTH",
"234 427 OFFCURVE",
"268 805 OFFCURVE",
"311 1189 CURVE",
"188 1189 LINE"
);
},
{
closed = 1;
nodes = (
"436 543 LINE",
"453 641 LINE",
"300 644 LINE",
"300 565 LINE"
);
}
);
width = 1064;
}
);
unicode = 0052;
},
{
glyphname = S;
layers = (
{
anchors = (
{
name = bottom;
position = "{396, 0}";
},
{
name = top;
position = "{416, 1240}";
}
);
layerId = master01;
paths = (
{
closed = 1;
nodes = (
"300 1232 OFFCURVE",
"125 1120 OFFCURVE",
"99 940 CURVE SMOOTH",
"67 719 OFFCURVE",
"247 645 OFFCURVE",
"416 576 CURVE SMOOTH",
"573 512 OFFCURVE",
"705 453 OFFCURVE",
"674 285 CURVE SMOOTH",
"653 174 OFFCURVE",
"529 110 OFFCURVE",
"415 110 CURVE SMOOTH",
"318 110 OFFCURVE",
"250 141 OFFCURVE",
"176 187 CURVE",
"252 134 LINE",
"230 196 OFFCURVE",
"194 250 OFFCURVE",
"130 250 CURVE SMOOTH",
"54 250 OFFCURVE",
"27 161 OFFCURVE",
"106 97 CURVE SMOOTH",
"186 32 OFFCURVE",
"305 -3 OFFCURVE",
"409 -3 CURVE SMOOTH",
"586 -3 OFFCURVE",
"784 85 OFFCURVE",
"813 292 CURVE SMOOTH",
"846 525 OFFCURVE",
"676 613 OFFCURVE",
"507 679 CURVE SMOOTH",
"340 745 OFFCURVE",
"223 795 OFFCURVE",
"240 928 CURVE SMOOTH",
"256 1052 OFFCURVE",
"382 1112 OFFCURVE",
"490 1112 CURVE SMOOTH",
"546 1112 OFFCURVE",
"575 1100 OFFCURVE",
"601 1090 CURVE",
"662 1044 OFFCURVE",
"717 1044 OFFCURVE",
"740 1072 CURVE SMOOTH",
"754 1089 OFFCURVE",
"762 1118 OFFCURVE",
"735 1150 CURVE SMOOTH",
"699 1191 OFFCURVE",
"612 1232 OFFCURVE",
"485 1232 CURVE SMOOTH"
);
}
);
width = 928;
}
);
unicode = 0053;
},
{
glyphname = Germandbls;
lastChange = "2019-03-29 09:27:15 +0000";
layers = (
{
layerId = master01;
paths = (
{
closed = 1;
nodes = (
"146 1187 OFFCURVE",
"125 1165 OFFCURVE",
"124 1132 CURVE SMOOTH",
"123 1107 OFFCURVE",
"141 1088 OFFCURVE",
"177 1080 CURVE",
"152 787 OFFCURVE",
"101 423 OFFCURVE",
"93 55 CURVE SMOOTH",
"92 24 OFFCURVE",
"105 -34 OFFCURVE",
"167 -34 CURVE SMOOTH",
"211 -34 OFFCURVE",
"228 -9 OFFCURVE",
"228 40 CURVE SMOOTH",
"231 373 OFFCURVE",
"263 764 OFFCURVE",
"315 1166 CURVE",
"258 1099 LINE",
"473 1131 OFFCURVE",
"679 1132 OFFCURVE",
"876 1111 CURVE",
"844 1154 LINE",
"728 970 OFFCURVE",
"606 807 OFFCURVE",
"452 640 CURVE",
"386 613 OFFCURVE",
"364 571 OFFCURVE",
"380 529 CURVE SMOOTH",
"399 480 OFFCURVE",
"468 482 OFFCURVE",
"513 519 CURVE",
"838 593 OFFCURVE",
"953 438 OFFCURVE",
"923 245 CURVE SMOOTH",
"908 149 OFFCURVE",
"825 85 OFFCURVE",
"727 85 CURVE SMOOTH",
"662 85 OFFCURVE",
"602 106 OFFCURVE",
"552 146 CURVE",
"585 81 LINE",
"599 196 OFFCURVE",
"553 223 OFFCURVE",
"515 223 CURVE SMOOTH",
"450 223 OFFCURVE",
"417 148 OFFCURVE",
"469 82 CURVE SMOOTH",
"523 13 OFFCURVE",
"619 -27 OFFCURVE",
"715 -27 CURVE SMOOTH",
"826 -27 OFFCURVE",
"968 9 OFFCURVE",
"1040 171 CURVE SMOOTH",
"1147 411 OFFCURVE",
"1012 753 OFFCURVE",
"528 624 CURVE",
"530 582 LINE",
"698 746 OFFCURVE",
"855 924 OFFCURVE",
"970 1098 CURVE SMOOTH",
"1010 1159 OFFCURVE",
"981 1209 OFFCURVE",
"922 1220 CURVE SMOOTH",
"727 1255 OFFCURVE",
"364 1246 OFFCURVE",
"188 1199 CURVE SMOOTH"
);
}
);
width = 1168;
}
);
unicode = 1E9E;
},
{
glyphname = Schwa;
lastChange = "2019-03-29 09:27:15 +0000";
layers = (
{
layerId = master01;
paths = (
{
closed = 1;
nodes = (
"414 1243 OFFCURVE",
"316 1218 OFFCURVE",
"256 1190 CURVE SMOOTH",
"209 1168 OFFCURVE",
"177 1135 OFFCURVE",
"195 1087 CURVE SMOOTH",
"217 1032 OFFCURVE",
"311 1026 OFFCURVE",
"347 1120 CURVE",
"292 1072 LINE",
"380 1114 OFFCURVE",
"442 1124 OFFCURVE",
"495 1124 CURVE SMOOTH",
"776 1124 OFFCURVE",
"781 742 OFFCURVE",
"748 529 CURVE SMOOTH",
"721 351 OFFCURVE",
"578 117 OFFCURVE",
"398 117 CURVE SMOOTH",
"196 117 OFFCURVE",
"154 261 OFFCURVE",
"187 540 CURVE",
"155 507 LINE",
"365 485 OFFCURVE",
"586 503 OFFCURVE",
"802 518 CURVE",
"796 626 LINE",
"562 610 OFFCURVE",
"336 613 OFFCURVE",
"129 617 CURVE SMOOTH",
"90 618 OFFCURVE",
"62 591 OFFCURVE",
"58 553 CURVE SMOOTH",
"22 210 OFFCURVE",
"113 -3 OFFCURVE",
"379 -3 CURVE SMOOTH",
"624 -3 OFFCURVE",
"819 208 OFFCURVE",
"874 519 CURVE SMOOTH",
"921 787 OFFCURVE",
"883 1243 OFFCURVE",
"493 1243 CURVE SMOOTH"
);
}
);
width = 976;
}
);
unicode = 018F;
},
{
glyphname = T;
layers = (
{
anchors = (
{
name = bottom;
position = "{465, 0}";
},
{
name = top;
position = "{515, 1200}";
}
);
layerId = master01;
paths = (
{
closed = 1;
nodes = (
"79 1241 OFFCURVE",
"26 1229 OFFCURVE",
"26 1175 CURVE SMOOTH",
"26 1121 OFFCURVE",
"67 1107 OFFCURVE",
"112 1106 CURVE SMOOTH",
"356 1101 OFFCURVE",
"836 1072 OFFCURVE",
"892 1072 CURVE SMOOTH",
"942 1072 OFFCURVE",
"978 1088 OFFCURVE",
"981 1129 CURVE SMOOTH",
"984 1168 OFFCURVE",
"949 1190 OFFCURVE",
"900 1195 CURVE SMOOTH",
"769 1207 OFFCURVE",
"633 1208 OFFCURVE",
"501 1217 CURVE SMOOTH",
"391 1225 OFFCURVE",
"235 1241 OFFCURVE",
"125 1241 CURVE SMOOTH"
);
},
{
closed = 1;
nodes = (
"411 849 OFFCURVE",
"390 435 OFFCURVE",
"391 235 CURVE SMOOTH",
"392 55 OFFCURVE",
"410 -27 OFFCURVE",
"484 -27 CURVE SMOOTH",
"578 -27 OFFCURVE",
"566 76 OFFCURVE",
"531 119 CURVE",
"525 532 OFFCURVE",
"537 843 OFFCURVE",
"561 1176 CURVE",
"441 1188 LINE"
);
}
);
width = 1000;
}
);
unicode = 0054;
},
{
glyphname = U;
layers = (
{
anchors = (
{
name = top;
position = "{613, 1240}";
}
);
layerId = master01;
paths = (
{
closed = 1;
nodes = (
"53 209 OFFCURVE",
"133 18 OFFCURVE",
"397 18 CURVE SMOOTH",
"668 18 OFFCURVE",
"793 224 OFFCURVE",
"881 615 CURVE",
"815 615 LINE",
"804 423 OFFCURVE",
"804 209 OFFCURVE",
"845 60 CURVE SMOOTH",
"859 9 OFFCURVE",
"880 -15 OFFCURVE",
"926 -15 CURVE SMOOTH",
"969 -15 OFFCURVE",
"1005 21 OFFCURVE",
"983 98 CURVE SMOOTH",
"943 241 OFFCURVE",
"916 402 OFFCURVE",
"910 570 CURVE",
"950 761 OFFCURVE",
"993 975 OFFCURVE",
"993 1138 CURVE SMOOTH",
"993 1203 OFFCURVE",
"961 1228 OFFCURVE",
"925 1228 CURVE SMOOTH",
"889 1228 OFFCURVE",
"867 1203 OFFCURVE",
"855 1148 CURVE SMOOTH",
"815 965 OFFCURVE",
"797 798 OFFCURVE",
"783 599 CURVE",
"722 322 OFFCURVE",
"607 136 OFFCURVE",
"425 136 CURVE SMOOTH",
"195 136 OFFCURVE",
"205 335 OFFCURVE",
"247 576 CURVE SMOOTH",
"279 760 OFFCURVE",
"298 911 OFFCURVE",
"308 1077 CURVE SMOOTH",
"313 1163 OFFCURVE",
"302 1214 OFFCURVE",
"239 1214 CURVE SMOOTH",
"174 1214 OFFCURVE",
"161 1140 OFFCURVE",
"173 1061 CURVE",
"165 896 OFFCURVE",
"145 753 OFFCURVE",
"113 561 CURVE SMOOTH"
);
},
{
closed = 1;
nodes = (
"841 325 LINE",
"841 404 LINE",
"769 404 LINE",
"769 333 LINE"
);
}
);
width = 1120;
}
);
unicode = 0055;
},
{
glyphname = V;
layers = (
{
layerId = master01;
paths = (
{
closed = 1;
nodes = (
"212 771 OFFCURVE",
"286 402 OFFCURVE",
"339 37 CURVE SMOOTH",
"348 -28 OFFCURVE",
"379 -52 OFFCURVE",
"415 -52 CURVE SMOOTH",
"446 -52 OFFCURVE",
"484 -30 OFFCURVE",
"502 33 CURVE",
"693 379 OFFCURVE",
"868 738 OFFCURVE",
"1004 1104 CURVE SMOOTH",
"1035 1187 OFFCURVE",
"1043 1269 OFFCURVE",
"961 1269 CURVE SMOOTH",
"901 1269 OFFCURVE",
"879 1207 OFFCURVE",
"874 1145 CURVE",
"726 779 OFFCURVE",
"566 417 OFFCURVE",
"389 57 CURVE",
"457 57 LINE",
"414 410 OFFCURVE",
"351 763 OFFCURVE",
"250 1149 CURVE SMOOTH",
"235 1205 OFFCURVE",
"215 1248 OFFCURVE",
"162 1248 CURVE SMOOTH",
"81 1248 OFFCURVE",
"54 1145 OFFCURVE",
"146 1050 CURVE",
"113 1142 LINE"
);
},
{
closed = 1;
nodes = (
"474 40 LINE",
"474 192 LINE",
"379 202 LINE",
"379 40 LINE"
);
}
);
width = 1064;
}
);
unicode = 0056;
},
{
glyphname = W;
layers = (
{
anchors = (
{
name = top;
position = "{698, 1240}";
}
);
layerId = master01;
paths = (
{
closed = 1;
nodes = (
"243 1208 OFFCURVE",
"212 1234 OFFCURVE",
"175 1234 CURVE SMOOTH",
"136 1234 OFFCURVE",
"91 1203 OFFCURVE",
"114 1122 CURVE",
"158 754 OFFCURVE",
"194 397 OFFCURVE",
"255 35 CURVE SMOOTH",
"271 -60 OFFCURVE",
"402 -69 OFFCURVE",
"427 38 CURVE",
"483 166 OFFCURVE",
"563 364 OFFCURVE",
"611 494 CURVE SMOOTH",
"648 596 OFFCURVE",
"666 691 OFFCURVE",
"689 796 CURVE",
"657 796 LINE",
"670 685 OFFCURVE",
"680 582 OFFCURVE",
"709 455 CURVE SMOOTH",
"734 344 OFFCURVE",
"788 163 OFFCURVE",
"832 53 CURVE",
"846 5 OFFCURVE",
"867 -24 OFFCURVE",
"913 -24 CURVE SMOOTH",
"959 -24 OFFCURVE",
"997 4 OFFCURVE",
"1026 89 CURVE",
"1147 413 OFFCURVE",
"1249 794 OFFCURVE",
"1311 1102 CURVE SMOOTH",
"1326 1178 OFFCURVE",
"1344 1272 OFFCURVE",
"1271 1272 CURVE SMOOTH",
"1238 1272 OFFCURVE",
"1209 1251 OFFCURVE",
"1196 1182 CURVE SMOOTH",
"1147 929 OFFCURVE",
"1065 645 OFFCURVE",
"995 394 CURVE SMOOTH",
"959 266 OFFCURVE",
"939 202 OFFCURVE",
"920 97 CURVE",
"940 97 LINE",
"887 301 OFFCURVE",
"821 565 OFFCURVE",
"764 780 CURVE",
"758 841 OFFCURVE",
"746 906 OFFCURVE",
"682 906 CURVE SMOOTH",
"644 906 OFFCURVE",
"621 883 OFFCURVE",
"602 837 CURVE",
"502 595 OFFCURVE",
"379 249 OFFCURVE",
"345 72 CURVE",
"356 72 LINE",
"349 186 OFFCURVE",
"338 341 OFFCURVE",
"323 466 CURVE SMOOTH",
"294 710 OFFCURVE",
"276 923 OFFCURVE",
"249 1156 CURVE SMOOTH"
);
},
{
closed = 1;
nodes = (
"391 67 LINE",
"391 163 LINE",
"306 171 LINE",
"304 67 LINE"
);
},
{
closed = 1;
nodes = (
"972 67 LINE",
"972 179 LINE",
"887 175 LINE",
"885 67 LINE"
);
},
{
closed = 1;
nodes = (
"724 655 LINE",
"724 808 LINE",
"639 808 LINE",
"637 658 LINE"
);
}
);
width = 1400;
}
);
unicode = 0057;
},
{
glyphname = W.ss03;
layers = (
{
anchors = (
{
name = top;
position = "{784, 1240}";
}
);
layerId = master01;
paths = (
{
closed = 1;
nodes = (
"108 1232 OFFCURVE",
"110 1142 OFFCURVE",
"135 1071 CURVE",
"179 711 OFFCURVE",
"230 378 OFFCURVE",
"302 28 CURVE SMOOTH",
"312 -21 OFFCURVE",
"340 -49 OFFCURVE",
"377 -49 CURVE SMOOTH",
"439 -49 OFFCURVE",
"466 -8 OFFCURVE",
"477 63 CURVE",
"624 418 OFFCURVE",
"731 748 OFFCURVE",
"800 1098 CURVE",
"752 1098 LINE",
"780 735 OFFCURVE",
"849 316 OFFCURVE",
"951 53 CURVE",
"965 5 OFFCURVE",
"986 -24 OFFCURVE",
"1032 -24 CURVE SMOOTH",
"1078 -24 OFFCURVE",
"1121 6 OFFCURVE",
"1145 89 CURVE",
"1265 411 OFFCURVE",
"1379 785 OFFCURVE",
"1456 1100 CURVE SMOOTH",
"1471 1162 OFFCURVE",
"1486 1271 OFFCURVE",
"1414 1271 CURVE SMOOTH",
"1384 1271 OFFCURVE",
"1354 1252 OFFCURVE",
"1343 1210 CURVE SMOOTH",
"1249 848 OFFCURVE",
"1147 478 OFFCURVE",
"1024 97 CURVE",
"1063 97 LINE",
"984 365 OFFCURVE",
"924 728 OFFCURVE",
"849 1139 CURVE SMOOTH",
"834 1221 OFFCURVE",
"736 1217 OFFCURVE",
"710 1138 CURVE SMOOTH",
"561 679 OFFCURVE",
"455 363 OFFCURVE",
"376 91 CURVE",
"402 91 LINE",
"395 205 OFFCURVE",
"370 341 OFFCURVE",
"352 466 CURVE SMOOTH",
"319 691 OFFCURVE",
"292 891 OFFCURVE",
"268 1104 CURVE",
"266 1166 OFFCURVE",
"259 1232 OFFCURVE",
"194 1232 CURVE SMOOTH"
);
}
);
width = 1536;
}
);
},
{
glyphname = X;
layers = (
{
layerId = master01;
paths = (
{
closed = 1;
nodes = (
"740 -36 OFFCURVE",
"769 -59 OFFCURVE",
"797 -59 CURVE SMOOTH",
"837 -59 OFFCURVE",
"872 -16 OFFCURVE",
"843 50 CURVE SMOOTH",
"664 457 OFFCURVE",
"529 755 OFFCURVE",
"314 1158 CURVE SMOOTH",
"290 1202 OFFCURVE",
"259 1222 OFFCURVE",
"219 1222 CURVE SMOOTH",
"173 1222 OFFCURVE",
"146 1195 OFFCURVE",
"146 1155 CURVE SMOOTH",
"146 1121 OFFCURVE",
"168 1081 OFFCURVE",
"212 1057 CURVE",
"397 693 OFFCURVE",
"546 379 OFFCURVE",
"723 2 CURVE"
);
},
{
closed = 1;
nodes = (
"500 873 OFFCURVE",
"248 526 OFFCURVE",
"16 118 CURVE",
"-40 38 OFFCURVE",
"-23 -26 OFFCURVE",
"42 -26 CURVE SMOOTH",
"80 -26 OFFCURVE",
"112 -3 OFFCURVE",
"132 54 CURVE",
"353 450 OFFCURVE",
"581 766 OFFCURVE",
"999 1075 CURVE SMOOTH",
"1039 1104 OFFCURVE",
"1044 1150 OFFCURVE",
"1025 1176 CURVE SMOOTH",
"1007 1200 OFFCURVE",
"971 1206 OFFCURVE",
"933 1182 CURVE"
);
}
);
width = 1032;
}
);
unicode = 0058;
},
{
glyphname = Y;
layers = (
{
anchors = (
{
name = top;
position = "{532, 1240}";
}
);
layerId = master01;
paths = (
{
closed = 1;
nodes = (
"74 1237 OFFCURVE",
"89 1130 OFFCURVE",
"122 1067 CURVE",
"157 864 OFFCURVE",
"253 662 OFFCURVE",
"352 511 CURVE SMOOTH",
"398 441 OFFCURVE",
"473 440 OFFCURVE",
"534 491 CURVE SMOOTH",
"735 659 OFFCURVE",
"884 893 OFFCURVE",
"985 1163 CURVE SMOOTH",
"1005 1216 OFFCURVE",
"999 1274 OFFCURVE",
"933 1274 CURVE SMOOTH",
"891 1274 OFFCURVE",
"866 1245 OFFCURVE",
"850 1202 CURVE SMOOTH",
"744 919 OFFCURVE",
"636 713 OFFCURVE",
"424 548 CURVE",
"462 548 LINE",
"366 707 OFFCURVE",
"287 896 OFFCURVE",
"245 1099 CURVE",
"235 1175 OFFCURVE",
"219 1237 OFFCURVE",
"159 1237 CURVE SMOOTH"
);
},
{
closed = 1;
nodes = (
"342 62 LINE SMOOTH",
"336 -1 OFFCURVE",
"353 -44 OFFCURVE",
"402 -44 CURVE SMOOTH",
"446 -44 OFFCURVE",
"472 -25 OFFCURVE",
"477 72 CURVE SMOOTH",
"500 538 LINE",
"384 538 LINE"
);
}
);
width = 1024;
}
);
unicode = 0059;
},
{
glyphname = Z;
layers = (
{
anchors = (
{
name = top;
position = "{508, 1240}";
}
);
layerId = master01;
paths = (
{
closed = 1;
nodes = (
"76 1231 OFFCURVE",
"86 1110 OFFCURVE",
"179 1113 CURVE SMOOTH",
"400 1119 OFFCURVE",
"542 1125 OFFCURVE",
"845 1144 CURVE",
"777 1200 LINE",
"522 852 OFFCURVE",
"285 505 OFFCURVE",
"58 146 CURVE SMOOTH",
"12 74 OFFCURVE",
"31 22 OFFCURVE",
"112 20 CURVE SMOOTH",
"339 14 OFFCURVE",
"561 9 OFFCURVE",
"783 -12 CURVE SMOOTH",
"878 -21 OFFCURVE",
"899 112 OFFCURVE",
"795 118 CURVE SMOOTH",
"578 131 OFFCURVE",
"363 134 OFFCURVE",
"145 133 CURVE",
"165 60 LINE",
"386 428 OFFCURVE",
"635 787 OFFCURVE",
"899 1145 CURVE SMOOTH",
"936 1195 OFFCURVE",
"908 1249 OFFCURVE",
"835 1250 CURVE SMOOTH",
"616 1254 OFFCURVE",
"392 1248 OFFCURVE",
"172 1236 CURVE SMOOTH"
);
}
);
width = 968;
}
);
unicode = 005A;
},
{
color = 5;
glyphname = a.base;
lastChange = "2019-03-29 09:23:44 +0000";
layers = (
{
anchors = (
{
name = top;
position = "{601, 800}";
}
);
layerId = master01;
paths = (
{
closed = 1;
nodes = (
"467 -16 OFFCURVE",
"592 116 OFFCURVE",
"657 254 CURVE SMOOTH",
"711 369 OFFCURVE",
"741 494 OFFCURVE",
"741 595 CURVE SMOOTH",
"741 753 OFFCURVE",
"664 821 OFFCURVE",
"567 821 CURVE SMOOTH",
"456 821 OFFCURVE",
"383 735 OFFCURVE",
"376 633 CURVE SMOOTH",
"366 477 OFFCURVE",
"497 417 OFFCURVE",
"592 417 CURVE SMOOTH",
"747 417 OFFCURVE",
"854 504 OFFCURVE",
"937 676 CURVE",
"890 688 LINE",
"826 609 OFFCURVE",
"746 521 OFFCURVE",
"610 521 CURVE SMOOTH",
"538 521 OFFCURVE",
"477 569 OFFCURVE",
"494 652 CURVE SMOOTH",
"501 688 OFFCURVE",
"522 710 OFFCURVE",
"556 710 CURVE SMOOTH",
"602 710 OFFCURVE",
"618 670 OFFCURVE",
"618 597 CURVE SMOOTH",
"618 481 OFFCURVE",
"595 407 OFFCURVE",
"555 316 CURVE SMOOTH",
"503 200 OFFCURVE",
"404 104 OFFCURVE",
"302 104 CURVE SMOOTH",
"180 104 OFFCURVE",
"171 320 OFFCURVE",
"234 508 CURVE SMOOTH",
"255 571 OFFCURVE",
"285 620 OFFCURVE",
"320 662 CURVE",
"382 697 OFFCURVE",
"367 774 OFFCURVE",
"303 774 CURVE SMOOTH",
"271 774 OFFCURVE",
"243 754 OFFCURVE",
"225 733 CURVE SMOOTH",
"171 670 OFFCURVE",
"131 603 OFFCURVE",
"106 532 CURVE SMOOTH",
"25 299 OFFCURVE",
"50 -16 OFFCURVE",
"290 -16 CURVE SMOOTH"
);
},
{
closed = 1;
nodes = (
"980 -14 OFFCURVE",
"1001 14 OFFCURVE",
"1001 39 CURVE SMOOTH",
"1001 82 OFFCURVE",
"965 94 OFFCURVE",
"946 120 CURVE SMOOTH",
"911 168 OFFCURVE",
"922 266 OFFCURVE",
"928 330 CURVE SMOOTH",
"937 420 OFFCURVE",
"955 539 OFFCURVE",
"986 636 CURVE",
"1038 695 OFFCURVE",
"1025 774 OFFCURVE",
"955 774 CURVE SMOOTH",
"887 774 OFFCURVE",
"865 665 OFFCURVE",
"856 619 CURVE SMOOTH",
"841 543 OFFCURVE",
"815 411 OFFCURVE",
"806 296 CURVE SMOOTH",
"799 197 OFFCURVE",
"800 88 OFFCURVE",
"849 30 CURVE SMOOTH",
"870 5 OFFCURVE",
"901 -14 OFFCURVE",
"940 -14 CURVE SMOOTH"
);
}
);
userData = {
com.typemytype.robofont.mark = (
0.656,
1,
0.6,
1
);
};
width = 1168;
}
);
},
{
glyphname = ae;
layers = (
{
anchors = (
{
name = top;
position = "{730, 800}";
}
);
layerId = master01;
paths = (
{
closed = 1;
nodes = (
"625 712 OFFCURVE",
"573 594 OFFCURVE",
"597 488 CURVE",
"641 468 LINE",
"673 374 OFFCURVE",
"740 310 OFFCURVE",
"857 310 CURVE SMOOTH",
"1016 310 OFFCURVE",
"1220 399 OFFCURVE",
"1250 577 CURVE SMOOTH",
"1277 733 OFFCURVE",
"1169 816 OFFCURVE",
"1027 816 CURVE SMOOTH",
"825 816 OFFCURVE",
"644 652 OFFCURVE",
"587 422 CURVE SMOOTH",
"535 211 OFFCURVE",
"602 -34 OFFCURVE",
"879 -34 CURVE SMOOTH",
"971 -34 OFFCURVE",
"1064 -6 OFFCURVE",
"1136 43 CURVE SMOOTH",
"1175 69 OFFCURVE",
"1187 100 OFFCURVE",
"1176 125 CURVE SMOOTH",
"1166 147 OFFCURVE",
"1138 153 OFFCURVE",
"1089 133 CURVE",
"1027 106 OFFCURVE",
"960 86 OFFCURVE",
"893 86 CURVE SMOOTH",
"717 86 OFFCURVE",
"672 219 OFFCURVE",
"713 404 CURVE SMOOTH",
"749 565 OFFCURVE",
"887 696 OFFCURVE",
"1017 696 CURVE SMOOTH",
"1093 696 OFFCURVE",
"1121 653 OFFCURVE",
"1111 588 CURVE SMOOTH",
"1094 483 OFFCURVE",
"959 414 OFFCURVE",
"866 414 CURVE SMOOTH",
"775 414 OFFCURVE",
"740 461 OFFCURVE",
"730 532 CURVE SMOOTH",
"720 600 OFFCURVE",
"777 712 OFFCURVE",
"682 712 CURVE SMOOTH"
);
},
{
closed = 1;
nodes = (
"627 190 LINE",
"634 292 LINE",
"554 292 LINE",
"547 199 LINE"
);
},
{
closed = 1;
nodes = (
"587 515 OFFCURVE",
"563 407 OFFCURVE",
"526 328 CURVE SMOOTH",
"479 227 OFFCURVE",
"382 104 OFFCURVE",
"300 104 CURVE SMOOTH",
"178 104 OFFCURVE",
"172 320 OFFCURVE",
"234 478 CURVE",
"278 586 OFFCURVE",
"359 700 OFFCURVE",
"499 700 CURVE SMOOTH",
"582 700 OFFCURVE",
"610 671 OFFCURVE",
"639 656 CURVE SMOOTH",
"667 641 OFFCURVE",
"695 653 OFFCURVE",
"710 677 CURVE SMOOTH",
"731 710 OFFCURVE",
"706 751 OFFCURVE",
"666 776 CURVE SMOOTH",
"627 800 OFFCURVE",
"552 818 OFFCURVE",
"492 818 CURVE SMOOTH",
"302 818 OFFCURVE",
"174 664 OFFCURVE",
"118 524 CURVE SMOOTH",
"24 290 OFFCURVE",
"48 -16 OFFCURVE",
"288 -16 CURVE SMOOTH",
"446 -16 OFFCURVE",
"538 136 OFFCURVE",
"606 256 CURVE",
"682 384 OFFCURVE",
"726 508 OFFCURVE",
"726 628 CURVE",
"616 636 LINE"
);
}
);
width = 1360;
}
);
unicode = 00E6;
},
{
glyphname = b.base;
lastChange = "2019-03-29 09:08:57 +0000";
layers = (
{
layerId = master01;
paths = (
{
closed = 1;
nodes = (
"652 -24 OFFCURVE",
"786 140 OFFCURVE",
"824 352 CURVE SMOOTH",
"862 572 OFFCURVE",
"790 782 OFFCURVE",
"584 782 CURVE SMOOTH",
"408 782 OFFCURVE",
"226 614 OFFCURVE",
"160 308 CURVE",
"226 298 LINE",
"244 430 OFFCURVE",
"256 552 OFFCURVE",
"264 680 CURVE SMOOTH",
"274 814 OFFCURVE",
"288 960 OFFCURVE",
"301 1090 CURVE SMOOTH",
"311 1189 OFFCURVE",
"296 1244 OFFCURVE",
"232 1244 CURVE SMOOTH",
"166 1244 OFFCURVE",
"154 1183 OFFCURVE",
"171 1118 CURVE",
"165 984 OFFCURVE",
"150 782 OFFCURVE",
"142 648 CURVE SMOOTH",
"132 506 OFFCURVE",
"116 340 OFFCURVE",
"106 200 CURVE",
"232 176 LINE",
"280 442 OFFCURVE",
"404 662 OFFCURVE",
"570 662 CURVE SMOOTH",
"676 662 OFFCURVE",
"716 532 OFFCURVE",
"692 374 CURVE SMOOTH",
"672 232 OFFCURVE",
"594 96 OFFCURVE",
"442 96 CURVE SMOOTH",
"336 96 OFFCURVE",
"273 136 OFFCURVE",
"194 212 CURVE SMOOTH",
"151 253 OFFCURVE",
"88 267 OFFCURVE",
"88 196 CURVE SMOOTH",
"88 148 OFFCURVE",
"126 103 OFFCURVE",
"180 63 CURVE SMOOTH",
"244 15 OFFCURVE",
"331 -24 OFFCURVE",
"432 -24 CURVE SMOOTH"
);
},
{
closed = 1;
nodes = (
"304 494 LINE",
"304 576 LINE",
"225 591 LINE",
"224 494 LINE"
);
}
);
width = 960;
}
);
},
{
glyphname = d.base;
lastChange = "2019-03-29 09:44:30 +0000";
layers = (
{
layerId = master01;
paths = (
{
closed = 1;
nodes = (
"320 796 OFFCURVE",
"162 660 OFFCURVE",
"96 472 CURVE SMOOTH",
"12 232 OFFCURVE",
"68 -14 OFFCURVE",
"298 -14 CURVE SMOOTH",
"430 -14 OFFCURVE",
"536 82 OFFCURVE",
"608 218 CURVE SMOOTH",
"742 476 OFFCURVE",
"780 860 OFFCURVE",
"818 1180 CURVE",
"738 1188 LINE",
"692 904 OFFCURVE",
"598 334 OFFCURVE",
"650 68 CURVE SMOOTH",
"664 -3 OFFCURVE",
"698 -33 OFFCURVE",
"747 -33 CURVE SMOOTH",
"803 -33 OFFCURVE",
"882 -2 OFFCURVE",
"882 55 CURVE SMOOTH",
"882 80 OFFCURVE",
"858 104 OFFCURVE",
"741 94 CURVE",
"775 57 LINE",
"746 197 OFFCURVE",
"750 388 OFFCURVE",
"762 536 CURVE SMOOTH",
"778 728 OFFCURVE",
"818 968 OFFCURVE",
"836 1102 CURVE SMOOTH",
"838 1128 OFFCURVE",
"848 1140 OFFCURVE",
"852 1174 CURVE SMOOTH",
"858 1212 OFFCURVE",
"836 1250 OFFCURVE",
"792 1250 CURVE SMOOTH",
"750 1250 OFFCURVE",
"718 1210 OFFCURVE",
"714 1168 CURVE SMOOTH",
"690 980 OFFCURVE",
"654 572 OFFCURVE",
"542 328 CURVE SMOOTH",
"494 226 OFFCURVE",
"420 106 OFFCURVE",
"306 106 CURVE SMOOTH",
"170 106 OFFCURVE",
"170 276 OFFCURVE",
"206 408 CURVE SMOOTH",
"248 556 OFFCURVE",
"354 676 OFFCURVE",
"464 676 CURVE SMOOTH",
"504 676 OFFCURVE",
"526 670 OFFCURVE",
"552 648 CURVE SMOOTH",
"576 628 OFFCURVE",
"598 622 OFFCURVE",
"622 622 CURVE SMOOTH",
"660 622 OFFCURVE",
"678 650 OFFCURVE",
"678 676 CURVE SMOOTH",
"678 748 OFFCURVE",
"578 796 OFFCURVE",
"478 796 CURVE SMOOTH"
);
},
{
closed = 1;
nodes = (
"678 255 LINE",
"678 340 LINE",
"598 340 LINE",
"598 263 LINE"
);
}
);
width = 968;
}
);
},
{
glyphname = eth;
layers = (
{
layerId = master01;
paths = (
{
closed = 1;
nodes = (
"359 1108 OFFCURVE",
"491 1042 OFFCURVE",
"575 913 CURVE SMOOTH",
"652 794 OFFCURVE",
"693 624 OFFCURVE",
"652 420 CURVE SMOOTH",
"625 287 OFFCURVE",
"508 105 OFFCURVE",
"366 105 CURVE SMOOTH",
"248 105 OFFCURVE",
"195 247 OFFCURVE",
"241 435 CURVE SMOOTH",
"276 579 OFFCURVE",
"375 704 OFFCURVE",
"518 704 CURVE SMOOTH",
"578 704 OFFCURVE",
"628 686 OFFCURVE",
"676 655 CURVE SMOOTH",
"740 612 OFFCURVE",
"764 673 OFFCURVE",
"709 726 CURVE SMOOTH",
"650 787 OFFCURVE",
"568 813 OFFCURVE",
"489 813 CURVE SMOOTH",
"279 813 OFFCURVE",
"150 624 OFFCURVE",
"108 439 CURVE SMOOTH",
"59 217 OFFCURVE",
"126 -15 OFFCURVE",
"352 -15 CURVE SMOOTH",
"573 -15 OFFCURVE",
"766 209 OFFCURVE",
"793 476 CURVE SMOOTH",
"804 579 OFFCURVE",
"798 686 OFFCURVE",
"769 784 CURVE SMOOTH",
"743 871 OFFCURVE",
"699 949 OFFCURVE",
"643 1017 CURVE SMOOTH",
"541 1141 OFFCURVE",
"383 1227 OFFCURVE",
"233 1252 CURVE SMOOTH",
"158 1264 OFFCURVE",
"129 1172 OFFCURVE",
"209 1150 CURVE SMOOTH"
);
},
{
closed = 1;
nodes = (
"305 915 OFFCURVE",
"342 939 OFFCURVE",
"363 954 CURVE SMOOTH",
"431 997 OFFCURVE",
"457 1018 OFFCURVE",
"529 1056 CURVE SMOOTH",
"576 1081 OFFCURVE",
"636 1108 OFFCURVE",
"684 1134 CURVE SMOOTH",
"745 1166 OFFCURVE",
"725 1228 OFFCURVE",
"668 1220 CURVE SMOOTH",
"615 1213 OFFCURVE",
"525 1172 OFFCURVE",
"483 1152 CURVE SMOOTH",
"426 1123 OFFCURVE",
"369 1084 OFFCURVE",
"315 1051 CURVE SMOOTH",
"265 1021 OFFCURVE",
"223 989 OFFCURVE",
"203 965 CURVE SMOOTH",
"170 923 OFFCURVE",
"214 852 OFFCURVE",
"282 898 CURVE SMOOTH"
);
}
);
width = 920;
}
);
unicode = 00F0;
},
{
color = 5;
glyphname = e.base;
lastChange = "2019-03-29 09:23:44 +0000";
layers = (
{
layerId = master01;
paths = (
{
closed = 1;
nodes = (
"609 -30 OFFCURVE",
"637 2 OFFCURVE",
"637 32 CURVE SMOOTH",
"637 62 OFFCURVE",
"624 100 OFFCURVE",
"563 120 CURVE",
"588 75 LINE",
"573 200 OFFCURVE",
"593 367 OFFCURVE",
"604 436 CURVE SMOOTH",
"622 548 OFFCURVE",
"643 625 OFFCURVE",
"664 674 CURVE",
"723 744 OFFCURVE",
"683 807 OFFCURVE",
"633 807 CURVE SMOOTH",
"591 807 OFFCURVE",
"558 775 OFFCURVE",
"542 704 CURVE SMOOTH",
"526 634 OFFCURVE",
"502 562 OFFCURVE",
"482 445 CURVE SMOOTH",
"466 350 OFFCURVE",
"454 221 OFFCURVE",
"454 157 CURVE SMOOTH",
"454 124 OFFCURVE",
"457 81 OFFCURVE",
"468 47 CURVE SMOOTH",
"485 -5 OFFCURVE",
"522 -30 OFFCURVE",
"563 -30 CURVE SMOOTH"
);
},
{
closed = 1;
nodes = (
"223 -12 OFFCURVE",
"254 37 OFFCURVE",
"235 101 CURVE",
"287 366 OFFCURVE",
"316 555 OFFCURVE",
"321 704 CURVE",
"344 775 OFFCURVE",
"322 832 OFFCURVE",
"257 832 CURVE SMOOTH",
"223 832 OFFCURVE",
"189 812 OFFCURVE",
"181 742 CURVE SMOOTH",
"176 698 OFFCURVE",
"188 634 OFFCURVE",
"183 566 CURVE SMOOTH",
"175 446 OFFCURVE",
"127 215 OFFCURVE",
"115 113 CURVE SMOOTH",
"107 44 OFFCURVE",
"118 -12 OFFCURVE",
"177 -12 CURVE SMOOTH"
);
},
{
closed = 1;
nodes = (
"386 518 OFFCURVE",
"521 597 OFFCURVE",
"607 704 CURVE",
"580 768 LINE",
"487 691 OFFCURVE",
"373 627 OFFCURVE",
"240 593 CURVE",
"244 488 LINE"
);
}
);
userData = {
com.typemytype.robofont.mark = (
0.656,
1,
0.6,
1
);
};
width = 816;
}
);
},
{
glyphname = f.base;
lastChange = "2019-03-29 09:44:34 +0000";
layers = (
{
layerId = master01;
paths = (
{
closed = 1;
nodes = (
"378 1310 OFFCURVE",
"288 1116 OFFCURVE",
"246 880 CURVE SMOOTH",
"202 644 OFFCURVE",
"188 347 OFFCURVE",
"188 152 CURVE SMOOTH",
"188 45 OFFCURVE",
"199 -37 OFFCURVE",
"268 -37 CURVE SMOOTH",
"331 -37 OFFCURVE",
"357 19 OFFCURVE",
"324 103 CURVE",
"310 349 OFFCURVE",
"335 632 OFFCURVE",
"368 856 CURVE SMOOTH",
"394 1048 OFFCURVE",
"463 1190 OFFCURVE",
"552 1190 CURVE SMOOTH",
"599 1190 OFFCURVE",
"638 1175 OFFCURVE",
"693 1124 CURVE SMOOTH",
"722 1097 OFFCURVE",
"748 1085 OFFCURVE",
"774 1104 CURVE SMOOTH",
"797 1121 OFFCURVE",
"798 1148 OFFCURVE",
"780 1184 CURVE SMOOTH",
"746 1254 OFFCURVE",
"670 1310 OFFCURVE",
"552 1310 CURVE SMOOTH"
);
},
{
closed = 1;
nodes = (
"46 794 OFFCURVE",
"10 770 OFFCURVE",
"10 724 CURVE SMOOTH",
"10 682 OFFCURVE",
"42 668 OFFCURVE",
"92 668 CURVE SMOOTH",
"272 668 OFFCURVE",
"429 681 OFFCURVE",
"589 688 CURVE SMOOTH",
"689 692 OFFCURVE",
"715 713 OFFCURVE",
"713 748 CURVE SMOOTH",
"711 788 OFFCURVE",
"670 802 OFFCURVE",
"612 802 CURVE SMOOTH",
"462 802 OFFCURVE",
"274 794 OFFCURVE",
"94 794 CURVE SMOOTH"
);
}
);
width = 713;
}
);
},
{
color = 5;
glyphname = g.base;
lastChange = "2019-03-29 09:23:44 +0000";
layers = (
{
anchors = (
{
name = top;
position = "{516, 800}";
}
);
layerId = master01;
paths = (
{
closed = 1;
nodes = (
"677 -520 OFFCURVE",
"799 -393 OFFCURVE",
"861 -178 CURVE SMOOTH",
"900 -44 OFFCURVE",
"918 133 OFFCURVE",
"928 241 CURVE SMOOTH",
"945 430 OFFCURVE",
"970 539 OFFCURVE",
"1001 636 CURVE",
"1053 695 OFFCURVE",
"1040 774 OFFCURVE",
"970 774 CURVE SMOOTH",
"902 774 OFFCURVE",
"880 665 OFFCURVE",
"871 619 CURVE SMOOTH",
"856 543 OFFCURVE",
"818 419 OFFCURVE",
"802 243 CURVE SMOOTH",
"790 107 OFFCURVE",
"764 -28 OFFCURVE",
"729 -157 CURVE SMOOTH",
"682 -325 OFFCURVE",
"602 -411 OFFCURVE",
"476 -411 CURVE SMOOTH",
"414 -411 OFFCURVE",
"372 -375 OFFCURVE",
"377 -321 CURVE SMOOTH",
"381 -275 OFFCURVE",
"421 -244 OFFCURVE",
"501 -197 CURVE SMOOTH",
"588 -146 OFFCURVE",
"734 -78 OFFCURVE",
"880 40 CURVE",
"858 151 LINE",
"701 19 OFFCURVE",
"542 -57 OFFCURVE",
"430 -117 CURVE SMOOTH",
"315 -179 OFFCURVE",
"257 -238 OFFCURVE",
"250 -321 CURVE SMOOTH",
"242 -414 OFFCURVE",
"304 -520 OFFCURVE",
"476 -520 CURVE SMOOTH"
);
},
{
closed = 1;
nodes = (
"638 13 OFFCURVE",
"766 316 OFFCURVE",
"766 565 CURVE SMOOTH",
"766 727 OFFCURVE",
"679 788 OFFCURVE",
"584 788 CURVE SMOOTH",
"475 788 OFFCURVE",
"398 723 OFFCURVE",
"391 624 CURVE SMOOTH",
"379 463 OFFCURVE",
"518 412 OFFCURVE",
"613 412 CURVE SMOOTH",
"768 412 OFFCURVE",
"869 504 OFFCURVE",
"952 676 CURVE",
"905 688 LINE",
"841 609 OFFCURVE",
"764 509 OFFCURVE",
"628 509 CURVE SMOOTH",
"556 509 OFFCURVE",
"508 543 OFFCURVE",
"508 610 CURVE SMOOTH",
"508 653 OFFCURVE",
"533 687 OFFCURVE",
"572 687 CURVE SMOOTH",
"620 687 OFFCURVE",
"643 644 OFFCURVE",
"643 566 CURVE SMOOTH",
"643 379 OFFCURVE",
"550 130 OFFCURVE",
"372 130 CURVE SMOOTH",
"250 130 OFFCURVE",
"206 314 OFFCURVE",
"249 508 CURVE SMOOTH",
"258 549 OFFCURVE",
"271 592 OFFCURVE",
"290 629 CURVE",
"331 670 OFFCURVE",
"367 756 OFFCURVE",
"296 777 CURVE SMOOTH",
"241 793 OFFCURVE",
"183 754 OFFCURVE",
"171 665 CURVE",
"147 619 OFFCURVE",
"128 563 OFFCURVE",
"116 508 CURVE SMOOTH",
"68 292 OFFCURVE",
"124 13 OFFCURVE",
"364 13 CURVE SMOOTH"
);
}
);
userData = {
com.typemytype.robofont.mark = (
0.656,
1,
0.6,
1
);
};
width = 1148;
}
);
},
{
color = 5;
glyphname = h.base;
lastChange = "2019-03-29 09:23:44 +0000";
layers = (
{
layerId = master01;
paths = (
{
closed = 1;
nodes = (
"130 -520 OFFCURVE",
"237 -403 OFFCURVE",
"262 -180 CURVE SMOOTH",
"279 -28 OFFCURVE",
"263 133 OFFCURVE",
"282 397 CURVE SMOOTH",
"298 612 OFFCURVE",
"305 822 OFFCURVE",
"356 1010 CURVE SMOOTH",
"381 1102 OFFCURVE",
"420 1151 OFFCURVE",
"469 1151 CURVE SMOOTH",
"516 1151 OFFCURVE",
"535 1103 OFFCURVE",
"527 1045 CURVE SMOOTH",
"507 900 OFFCURVE",
"406 719 OFFCURVE",
"327 609 CURVE SMOOTH",
"286 552 OFFCURVE",
"240 496 OFFCURVE",
"190 442 CURVE",
"225 337 LINE",
"300 412 OFFCURVE",
"366 489 OFFCURVE",
"422 568 CURVE SMOOTH",
"511 691 OFFCURVE",
"634 905 OFFCURVE",
"649 1042 CURVE SMOOTH",
"663 1178 OFFCURVE",
"591 1265 OFFCURVE",
"473 1265 CURVE SMOOTH",
"331 1265 OFFCURVE",
"256 1128 OFFCURVE",
"229 1011 CURVE SMOOTH",
"183 810 OFFCURVE",
"170 599 OFFCURVE",
"155 397 CURVE SMOOTH",
"134 107 OFFCURVE",
"145 -16 OFFCURVE",
"130 -159 CURVE SMOOTH",
"112 -335 OFFCURVE",
"55 -411 OFFCURVE",
"-49 -411 CURVE SMOOTH",
"-121 -411 OFFCURVE",
"-142 -371 OFFCURVE",
"-138 -336 CURVE SMOOTH",
"-133 -290 OFFCURVE",
"-101 -233 OFFCURVE",
"0 -168 CURVE SMOOTH",
"46 -138 OFFCURVE",
"124 -88 OFFCURVE",
"206 -31 CURVE",
"207 101 LINE",
"98 20 OFFCURVE",
"7 -40 OFFCURVE",
"-58 -80 CURVE SMOOTH",
"-202 -169 OFFCURVE",
"-257 -253 OFFCURVE",
"-265 -337 CURVE SMOOTH",
"-273 -421 OFFCURVE",
"-219 -520 OFFCURVE",
"-57 -520 CURVE SMOOTH"
);
}
);
userData = {
com.typemytype.robofont.mark = (
0.656,
1,
0.6,
1
);
};
width = 624;
}
);
},
{
color = 5;
glyphname = h.base.Lo;
lastChange = "2019-03-29 09:23:31 +0000";
layers = (
{
layerId = master01;
paths = (
{
closed = 1;
nodes = (
"98 20 OFFCURVE",
"7 -40 OFFCURVE",
"-58 -80 CURVE SMOOTH",
"-202 -169 OFFCURVE",
"-257 -253 OFFCURVE",
"-265 -337 CURVE SMOOTH",
"-273 -421 OFFCURVE",
"-219 -520 OFFCURVE",
"-57 -520 CURVE SMOOTH",
"130 -520 OFFCURVE",
"237 -403 OFFCURVE",
"262 -180 CURVE SMOOTH",
"279 -28 OFFCURVE",
"263 133 OFFCURVE",
"282 397 CURVE SMOOTH",
"298 612 OFFCURVE",
"305 822 OFFCURVE",
"356 1010 CURVE SMOOTH",
"381 1102 OFFCURVE",
"420 1151 OFFCURVE",
"469 1151 CURVE SMOOTH",
"516 1151 OFFCURVE",
"536 1104 OFFCURVE",
"519 990 CURVE SMOOTH",
"501 869 OFFCURVE",
"440 739 OFFCURVE",
"283 629 CURVE SMOOTH",
"265 616 OFFCURVE",
"246 605 OFFCURVE",
"225 594 CURVE",
"225 484 LINE",
"271 504 OFFCURVE",
"315 528 OFFCURVE",
"357 556 CURVE SMOOTH",
"535 675 OFFCURVE",
"632 860 OFFCURVE",
"646 1014 CURVE SMOOTH",
"661 1178 OFFCURVE",
"591 1265 OFFCURVE",
"473 1265 CURVE SMOOTH",
"331 1265 OFFCURVE",
"256 1128 OFFCURVE",
"229 1011 CURVE SMOOTH",
"183 810 OFFCURVE",
"170 599 OFFCURVE",
"155 397 CURVE SMOOTH",
"134 107 OFFCURVE",
"145 -16 OFFCURVE",
"130 -159 CURVE SMOOTH",
"112 -335 OFFCURVE",
"55 -411 OFFCURVE",
"-49 -411 CURVE SMOOTH",
"-121 -411 OFFCURVE",
"-142 -371 OFFCURVE",
"-138 -336 CURVE SMOOTH",
"-133 -290 OFFCURVE",
"-101 -233 OFFCURVE",
"0 -168 CURVE SMOOTH",
"46 -138 OFFCURVE",
"124 -88 OFFCURVE",
"206 -31 CURVE",
"207 101 LINE"
);
}
);
userData = {
com.typemytype.robofont.mark = (
0.656,
1,
0.6,
1
);
};
width = 624;
}
);
},
{
color = 5;
glyphname = i.base;
lastChange = "2019-03-29 09:23:44 +0000";
layers = (
{
anchors = (
{
name = _top;
position = "{253, 800}";
}
);
layerId = master01;
paths = (
{
closed = 1;
nodes = (
"278 -14 OFFCURVE",
"294 50 OFFCURVE",
"267 120 CURVE",
"265 240 OFFCURVE",
"276 373 OFFCURVE",
"284 461 CURVE SMOOTH",
"293 560 OFFCURVE",
"307 632 OFFCURVE",
"314 687 CURVE",
"340 743 OFFCURVE",
"330 816 OFFCURVE",
"253 816 CURVE SMOOTH",
"212 816 OFFCURVE",
"176 792 OFFCURVE",
"188 704 CURVE",
"163 501 OFFCURVE",
"130 262 OFFCURVE",
"136 80 CURVE SMOOTH",
"138 10 OFFCURVE",
"168 -14 OFFCURVE",
"212 -14 CURVE SMOOTH"
);
},
{
closed = 1;
nodes = (
"344 982 OFFCURVE",
"384 1006 OFFCURVE",
"384 1054 CURVE SMOOTH",
"384 1078 OFFCURVE",
"374 1090 OFFCURVE",
"360 1102 CURVE",
"356 1142 OFFCURVE",
"316 1172 OFFCURVE",
"264 1172 CURVE SMOOTH",
"208 1172 OFFCURVE",
"168 1132 OFFCURVE",
"168 1084 CURVE SMOOTH",
"168 1030 OFFCURVE",
"224 982 OFFCURVE",
"290 982 CURVE SMOOTH"
);
}
);
userData = {
com.typemytype.robofont.mark = (
0.656,
1,
0.6,
1
);
};
width = 476;
}
);
},
{
color = 5;
glyphname = idotless.base;
lastChange = "2019-03-29 09:23:44 +0000";
layers = (
{
anchors = (
{
name = top;
position = "{253, 800}";
}
);
layerId = master01;
paths = (
{
closed = 1;
nodes = (
"212 816 OFFCURVE",
"176 792 OFFCURVE",
"188 704 CURVE",
"163 501 OFFCURVE",
"130 262 OFFCURVE",
"136 80 CURVE SMOOTH",
"138 10 OFFCURVE",
"168 -14 OFFCURVE",
"212 -14 CURVE SMOOTH",
"278 -14 OFFCURVE",
"294 50 OFFCURVE",
"267 120 CURVE",
"265 240 OFFCURVE",
"276 373 OFFCURVE",
"284 461 CURVE SMOOTH",
"293 560 OFFCURVE",
"307 632 OFFCURVE",
"314 687 CURVE",
"340 743 OFFCURVE",
"330 816 OFFCURVE",
"253 816 CURVE SMOOTH"
);
}
);
userData = {
com.typemytype.robofont.mark = (
0.656,
1,
0.6,
1
);
};
width = 476;
}
);
},
{
color = 5;
glyphname = j.base;
lastChange = "2019-03-29 09:23:44 +0000";
layers = (
{
anchors = (
{
name = top;
position = "{307, 800}";
}
);
layerId = master01;
paths = (
{
closed = 1;
nodes = (
"49 -520 OFFCURVE",
"193 -395 OFFCURVE",
"255 -180 CURVE SMOOTH",
"294 -46 OFFCURVE",
"291 133 OFFCURVE",
"300 241 CURVE SMOOTH",
"308 335 OFFCURVE",
"327 520 OFFCURVE",
"339 594 CURVE",
"397 699 OFFCURVE",
"380 776 OFFCURVE",
"310 776 CURVE SMOOTH",
"242 776 OFFCURVE",
"215 716 OFFCURVE",
"207 631 CURVE SMOOTH",
"200 554 OFFCURVE",
"190 419 OFFCURVE",
"174 243 CURVE SMOOTH",
"162 107 OFFCURVE",
"158 -30 OFFCURVE",
"123 -159 CURVE SMOOTH",
"76 -327 OFFCURVE",
"-26 -411 OFFCURVE",
"-137 -411 CURVE SMOOTH",
"-202 -411 OFFCURVE",
"-217 -375 OFFCURVE",
"-213 -340 CURVE SMOOTH",
"-208 -294 OFFCURVE",
"-155 -247 OFFCURVE",
"-90 -205 CURVE SMOOTH",
"-12 -155 OFFCURVE",
"126 -62 OFFCURVE",
"252 40 CURVE",
"230 151 LINE",
"91 36 OFFCURVE",
"-59 -62 OFFCURVE",
"-148 -117 CURVE SMOOTH",
"-259 -186 OFFCURVE",
"-332 -257 OFFCURVE",
"-340 -341 CURVE SMOOTH",
"-348 -425 OFFCURVE",
"-300 -520 OFFCURVE",
"-149 -520 CURVE SMOOTH"
);
},
{
closed = 1;
nodes = (
"398 962 OFFCURVE",
"458 1038 OFFCURVE",
"418 1108 CURVE",
"408 1152 OFFCURVE",
"370 1168 OFFCURVE",
"334 1168 CURVE SMOOTH",
"280 1168 OFFCURVE",
"216 1130 OFFCURVE",
"216 1054 CURVE SMOOTH",
"216 1008 OFFCURVE",
"256 962 OFFCURVE",
"318 962 CURVE SMOOTH"
);
}
);
userData = {
com.typemytype.robofont.mark = (
0.656,
1,
0.6,
1
);
};
width = 520;
}
);
},
{
color = 5;
glyphname = jdotless.base;
lastChange = "2019-03-29 09:23:44 +0000";
layers = (
{
anchors = (
{
name = top;
position = "{307, 800}";
}
);
layerId = master01;
paths = (
{
closed = 1;
nodes = (
"91 36 OFFCURVE",
"-59 -62 OFFCURVE",
"-148 -117 CURVE SMOOTH",
"-259 -186 OFFCURVE",
"-332 -257 OFFCURVE",
"-340 -341 CURVE SMOOTH",
"-348 -425 OFFCURVE",
"-300 -520 OFFCURVE",
"-149 -520 CURVE SMOOTH",
"49 -520 OFFCURVE",
"193 -395 OFFCURVE",
"255 -180 CURVE SMOOTH",
"294 -46 OFFCURVE",
"291 133 OFFCURVE",
"300 241 CURVE SMOOTH",
"308 335 OFFCURVE",
"327 520 OFFCURVE",
"339 594 CURVE",
"397 699 OFFCURVE",
"380 776 OFFCURVE",
"310 776 CURVE SMOOTH",
"242 776 OFFCURVE",
"215 716 OFFCURVE",
"207 631 CURVE SMOOTH",
"200 554 OFFCURVE",
"190 419 OFFCURVE",
"174 243 CURVE SMOOTH",
"162 107 OFFCURVE",
"158 -30 OFFCURVE",
"123 -159 CURVE SMOOTH",
"76 -327 OFFCURVE",
"-26 -411 OFFCURVE",
"-137 -411 CURVE SMOOTH",
"-202 -411 OFFCURVE",
"-217 -375 OFFCURVE",
"-213 -340 CURVE SMOOTH",
"-208 -294 OFFCURVE",
"-155 -247 OFFCURVE",
"-90 -205 CURVE SMOOTH",
"-12 -155 OFFCURVE",
"126 -62 OFFCURVE",
"252 40 CURVE",
"230 151 LINE"
);
}
);
userData = {
com.typemytype.robofont.mark = (
0.656,
1,
0.6,
1
);
};
width = 520;
}
);
},
{
glyphname = k.base;
lastChange = "2019-03-29 09:44:42 +0000";
layers = (
{
anchors = (
{
name = bottom;
position = "{450, 0}";
}
);
layerId = master01;
paths = (
{
closed = 1;
nodes = (
"705 100 OFFCURVE",
"638 164 OFFCURVE",
"596 202 CURVE SMOOTH",
"530 264 OFFCURVE",
"490 316 OFFCURVE",
"456 362 CURVE",
"386 338 LINE",
"386 286 LINE",
"514 266 OFFCURVE",
"660 328 OFFCURVE",
"742 428 CURVE SMOOTH",
"868 580 OFFCURVE",
"844 808 OFFCURVE",
"632 808 CURVE SMOOTH",
"496 808 OFFCURVE",
"364 700 OFFCURVE",
"276 518 CURVE SMOOTH",
"228 422 OFFCURVE",
"154 190 OFFCURVE",
"128 50 CURVE",
"182 50 LINE",
"204 304 OFFCURVE",
"252 568 OFFCURVE",
"272 724 CURVE SMOOTH",
"288 866 OFFCURVE",
"315 1019 OFFCURVE",
"329 1099 CURVE",
"341 1170 OFFCURVE",
"346 1237 OFFCURVE",
"274 1237 CURVE SMOOTH",
"197 1237 OFFCURVE",
"190 1156 OFFCURVE",
"200 1091 CURVE",
"185 975 OFFCURVE",
"158 778 OFFCURVE",
"144 662 CURVE SMOOTH",
"130 550 OFFCURVE",
"116 440 OFFCURVE",
"104 326 CURVE SMOOTH",
"94 242 OFFCURVE",
"80 152 OFFCURVE",
"80 74 CURVE SMOOTH",
"80 34 OFFCURVE",
"94 -16 OFFCURVE",
"148 -16 CURVE SMOOTH",
"218 -16 OFFCURVE",
"224 40 OFFCURVE",
"212 92 CURVE",
"250 220 OFFCURVE",
"310 362 OFFCURVE",
"364 466 CURVE SMOOTH",
"434 598 OFFCURVE",
"538 688 OFFCURVE",
"612 688 CURVE SMOOTH",
"712 688 OFFCURVE",
"700 552 OFFCURVE",
"622 472 CURVE SMOOTH",
"564 416 OFFCURVE",
"480 376 OFFCURVE",
"448 376 CURVE",
"432 396 OFFCURVE",
"412 416 OFFCURVE",
"380 416 CURVE SMOOTH",
"292 416 OFFCURVE",
"250 280 OFFCURVE",
"384 272 CURVE",
"434 204 OFFCURVE",
"492 144 OFFCURVE",
"566 74 CURVE SMOOTH",
"634 10 OFFCURVE",
"706 -40 OFFCURVE",
"776 -40 CURVE SMOOTH",
"856 -40 OFFCURVE",
"880 52 OFFCURVE",
"830 94 CURVE SMOOTH",
"802 118 OFFCURVE",
"754 122 OFFCURVE",
"656 39 CURVE",
"775 -28 LINE",
"795 87 LINE"
);
},
{
closed = 1;
nodes = (
"278 315 LINE",
"283 447 LINE",
"182 467 LINE",
"164 315 LINE"
);
}
);
width = 960;
}
);
},
{
glyphname = kgreenlandic;
layers = (
{
layerId = master01;
paths = (
{
closed = 1;
nodes = (
"127 844 OFFCURVE",
"109 761 OFFCURVE",
"153 685 CURVE",
"144 754 LINE",
"144 536 OFFCURVE",
"134 305 OFFCURVE",
"115 105 CURVE",
"80 58 OFFCURVE",
"80 -26 OFFCURVE",
"157 -26 CURVE SMOOTH",
"191 -26 OFFCURVE",
"216 -2 OFFCURVE",
"244 42 CURVE SMOOTH",
"316 155 OFFCURVE",
"398 289 OFFCURVE",
"474 388 CURVE SMOOTH",
"551 489 OFFCURVE",
"658 598 OFFCURVE",
"768 704 CURVE SMOOTH",
"817 751 OFFCURVE",
"800 818 OFFCURVE",
"740 818 CURVE SMOOTH",
"700 818 OFFCURVE",
"664 787 OFFCURVE",
"637 762 CURVE SMOOTH",
"541 671 OFFCURVE",
"455 560 OFFCURVE",
"388 466 CURVE SMOOTH",
"302 345 OFFCURVE",
"242 237 OFFCURVE",
"181 129 CURVE",
"215 94 LINE",
"255 354 OFFCURVE",
"276 573 OFFCURVE",
"279 698 CURVE SMOOTH",
"282 814 OFFCURVE",
"250 844 OFFCURVE",
"204 844 CURVE SMOOTH"
);
},
{
closed = 1;
nodes = (
"466 193 OFFCURVE",
"580 93 OFFCURVE",
"650 48 CURVE SMOOTH",
"709 10 OFFCURVE",
"763 -13 OFFCURVE",
"805 -13 CURVE SMOOTH",
"882 -13 OFFCURVE",
"892 76 OFFCURVE",
"819 111 CURVE SMOOTH",
"692 171 OFFCURVE",
"563 272 OFFCURVE",
"458 419 CURVE",
"367 345 LINE"
);
},
{
closed = 1;
nodes = (
"277 160 LINE",
"277 239 LINE",
"199 259 LINE",
"199 160 LINE"
);
}
);
width = 948;
}
);
unicode = 0138;
},
{
color = 5;
glyphname = l.base;
lastChange = "2019-03-29 09:23:44 +0000";
layers = (
{
anchors = (
{
name = top;
position = "{473, 1240}";
}
);
layerId = master01;
paths = (
{
closed = 1;
nodes = (
"401 -17 OFFCURVE",
"444 -10 OFFCURVE",
"476 8 CURVE SMOOTH",
"507 25 OFFCURVE",
"528 46 OFFCURVE",
"519 78 CURVE SMOOTH",
"512 103 OFFCURVE",
"488 107 OFFCURVE",
"459 105 CURVE SMOOTH",
"435 103 OFFCURVE",
"406 100 OFFCURVE",
"390 100 CURVE SMOOTH",
"288 100 OFFCURVE",
"261 202 OFFCURVE",
"274 408 CURVE SMOOTH",
"287 616 OFFCURVE",
"305 822 OFFCURVE",
"356 1010 CURVE SMOOTH",
"381 1102 OFFCURVE",
"420 1151 OFFCURVE",
"469 1151 CURVE SMOOTH",
"516 1151 OFFCURVE",
"535 1103 OFFCURVE",
"527 1045 CURVE SMOOTH",
"507 900 OFFCURVE",
"406 719 OFFCURVE",
"327 609 CURVE SMOOTH",
"286 552 OFFCURVE",
"240 496 OFFCURVE",
"190 442 CURVE",
"225 337 LINE",
"300 412 OFFCURVE",
"366 489 OFFCURVE",
"422 568 CURVE SMOOTH",
"511 691 OFFCURVE",
"635 905 OFFCURVE",
"649 1042 CURVE",
"664 1178 OFFCURVE",
"591 1265 OFFCURVE",
"473 1265 CURVE SMOOTH",
"331 1265 OFFCURVE",
"256 1128 OFFCURVE",
"229 1011 CURVE SMOOTH",
"183 810 OFFCURVE",
"155 592 OFFCURVE",
"145 412 CURVE SMOOTH",
"127 79 OFFCURVE",
"218 -17 OFFCURVE",
"360 -17 CURVE SMOOTH"
);
}
);
userData = {
com.typemytype.robofont.mark = (
0.656,
1,
0.6,
1
);
};
width = 744;
}
);
},
{
color = 5;
glyphname = l.base.Lo;
lastChange = "2019-03-29 09:23:31 +0000";
layers = (
{
layerId = master01;
paths = (
{
closed = 1;
nodes = (
"271 504 OFFCURVE",
"315 528 OFFCURVE",
"357 556 CURVE SMOOTH",
"535 675 OFFCURVE",
"632 860 OFFCURVE",
"646 1014 CURVE SMOOTH",
"661 1178 OFFCURVE",
"591 1265 OFFCURVE",
"473 1265 CURVE SMOOTH",
"331 1265 OFFCURVE",
"256 1128 OFFCURVE",
"229 1011 CURVE SMOOTH",
"183 810 OFFCURVE",
"155 592 OFFCURVE",
"145 412 CURVE SMOOTH",
"127 79 OFFCURVE",
"218 -17 OFFCURVE",
"360 -17 CURVE SMOOTH",
"401 -17 OFFCURVE",
"444 -10 OFFCURVE",
"476 8 CURVE SMOOTH",
"507 25 OFFCURVE",
"528 46 OFFCURVE",
"519 78 CURVE SMOOTH",
"512 103 OFFCURVE",
"488 107 OFFCURVE",
"459 105 CURVE SMOOTH",
"435 103 OFFCURVE",
"406 100 OFFCURVE",
"390 100 CURVE SMOOTH",
"288 100 OFFCURVE",
"261 202 OFFCURVE",
"274 408 CURVE SMOOTH",
"287 616 OFFCURVE",
"305 822 OFFCURVE",
"356 1010 CURVE SMOOTH",
"381 1102 OFFCURVE",
"420 1151 OFFCURVE",
"469 1151 CURVE SMOOTH",
"516 1151 OFFCURVE",
"536 1104 OFFCURVE",
"519 990 CURVE SMOOTH",
"501 869 OFFCURVE",
"440 739 OFFCURVE",
"283 629 CURVE SMOOTH",
"265 616 OFFCURVE",
"246 605 OFFCURVE",
"225 594 CURVE",
"225 484 LINE"
);
}
);
userData = {
com.typemytype.robofont.mark = (
0.656,
1,
0.6,
1
);
};
width = 744;
}
);
},
{
color = 7;
glyphname = lslash;
lastChange = "2019-03-29 08:55:40 +0000";
layers = (
{
components = (
{
name = l.base;
transform = "{1, 0, 0, 1, 8, 0}";
}
);
layerId = master01;
paths = (
{
closed = 1;
nodes = (
"583 749 OFFCURVE",
"528 837 OFFCURVE",
"443 795 CURVE SMOOTH",
"329 738 OFFCURVE",
"123 611 OFFCURVE",
"-7 514 CURVE SMOOTH",
"-85 456 OFFCURVE",
"-16 355 OFFCURVE",
"57 408 CURVE SMOOTH",
"147 473 OFFCURVE",
"362 618 OFFCURVE",
"505 703 CURVE SMOOTH"
);
}
);
width = 576;
}
);
unicode = 0142;
},
{
color = 7;
glyphname = lslash.latn_PLK;
lastChange = "2019-03-29 08:55:40 +0000";
layers = (
{
components = (
{
name = l.base;
transform = "{1, 0, 0, 1, 8, 0}";
}
);
layerId = master01;
paths = (
{
closed = 1;
nodes = (
"644 1031 OFFCURVE",
"625 1133 OFFCURVE",
"531 1125 CURVE SMOOTH",
"426 1116 OFFCURVE",
"195 1074 OFFCURVE",
"69 1040 CURVE SMOOTH",
"-25 1015 OFFCURVE",
"2 896 OFFCURVE",
"89 918 CURVE SMOOTH",
"190 943 OFFCURVE",
"419 996 OFFCURVE",
"554 1017 CURVE SMOOTH"
);
}
);
width = 576;
}
);
},
{
color = 5;
glyphname = m.base;
lastChange = "2019-03-29 09:23:44 +0000";
layers = (
{
layerId = master01;
paths = (
{
closed = 1;
nodes = (
"1341 -35 OFFCURVE",
"1377 7 OFFCURVE",
"1377 30 CURVE SMOOTH",
"1377 93 OFFCURVE",
"1303 113 OFFCURVE",
"1241 95 CURVE",
"1259 41 LINE",
"1278 272 OFFCURVE",
"1330 443 OFFCURVE",
"1388 659 CURVE",
"1429 720 OFFCURVE",
"1408 795 OFFCURVE",
"1339 795 CURVE SMOOTH",
"1303 795 OFFCURVE",
"1268 769 OFFCURVE",
"1257 726 CURVE",
"1129 563 OFFCURVE",
"954 377 OFFCURVE",
"728 182 CURVE",
"777 150 LINE",
"838 370 OFFCURVE",
"859 569 OFFCURVE",
"876 696 CURVE",
"915 772 OFFCURVE",
"888 832 OFFCURVE",
"834 832 CURVE SMOOTH",
"783 832 OFFCURVE",
"761 796 OFFCURVE",
"743 755 CURVE",
"589 517 OFFCURVE",
"440 320 OFFCURVE",
"207 116 CURVE",
"256 62 LINE",
"297 326 OFFCURVE",
"318 512 OFFCURVE",
"318 676 CURVE SMOOTH",
"318 779 OFFCURVE",
"282 798 OFFCURVE",
"245 798 CURVE SMOOTH",
"192 798 OFFCURVE",
"147 744 OFFCURVE",
"190 637 CURVE",
"198 524 OFFCURVE",
"188 417 OFFCURVE",
"180 311 CURVE",
"173 231 OFFCURVE",
"169 161 OFFCURVE",
"162 106 CURVE",
"124 -4 OFFCURVE",
"176 -21 OFFCURVE",
"210 -21 CURVE SMOOTH",
"245 -21 OFFCURVE",
"274 1 OFFCURVE",
"277 39 CURVE",
"494 211 OFFCURVE",
"683 461 OFFCURVE",
"818 744 CURVE",
"768 744 LINE",
"737 515 OFFCURVE",
"701 293 OFFCURVE",
"680 173 CURVE",
"619 103 OFFCURVE",
"605 -2 OFFCURVE",
"691 -2 CURVE SMOOTH",
"728 -2 OFFCURVE",
"766 17 OFFCURVE",
"784 98 CURVE",
"937 223 OFFCURVE",
"1161 429 OFFCURVE",
"1305 664 CURVE",
"1278 664 LINE",
"1202 451 OFFCURVE",
"1149 203 OFFCURVE",
"1145 117 CURVE SMOOTH",
"1138 -18 OFFCURVE",
"1222 -35 OFFCURVE",
"1273 -35 CURVE SMOOTH"
);
}
);
userData = {
com.typemytype.robofont.mark = (
0.656,
1,
0.6,
1
);
};
width = 1564;
}
);
},
{
color = 5;
glyphname = n.base;
lastChange = "2019-03-29 09:23:44 +0000";
layers = (
{
anchors = (
{
name = bottom;
position = "{438, 0}";
},
{
name = top;
position = "{508, 800}";
}
);
layerId = master01;
paths = (
{
closed = 1;
nodes = (
"434 203 OFFCURVE",
"633 424 OFFCURVE",
"784 738 CURVE",
"737 788 LINE",
"567 514 OFFCURVE",
"385 290 OFFCURVE",
"166 100 CURVE",
"226 10 LINE"
);
},
{
closed = 1;
nodes = (
"266 -12 OFFCURVE",
"263 114 OFFCURVE",
"263 236 CURVE SMOOTH",
"263 328 OFFCURVE",
"282 457 OFFCURVE",
"299 587 CURVE SMOOTH",
"307 649 OFFCURVE",
"314 699 OFFCURVE",
"317 758 CURVE SMOOTH",
"319 802 OFFCURVE",
"301 832 OFFCURVE",
"257 832 CURVE SMOOTH",
"223 832 OFFCURVE",
"187 812 OFFCURVE",
"181 742 CURVE",
"175 698 OFFCURVE",
"182 634 OFFCURVE",
"177 566 CURVE SMOOTH",
"169 446 OFFCURVE",
"142 192 OFFCURVE",
"132 106 CURVE",
"107 50 OFFCURVE",
"116 -12 OFFCURVE",
"182 -12 CURVE SMOOTH"
);
},
{
closed = 1;
nodes = (
"762 -31 OFFCURVE",
"786 2 OFFCURVE",
"786 34 CURVE SMOOTH",
"786 64 OFFCURVE",
"773 100 OFFCURVE",
"726 133 CURVE",
"756 75 LINE",
"731 209 OFFCURVE",
"753 367 OFFCURVE",
"764 436 CURVE SMOOTH",
"782 548 OFFCURVE",
"797 611 OFFCURVE",
"812 665 CURVE",
"864 750 OFFCURVE",
"828 807 OFFCURVE",
"779 807 CURVE SMOOTH",
"740 807 OFFCURVE",
"720 784 OFFCURVE",
"702 704 CURVE SMOOTH",
"686 634 OFFCURVE",
"669 561 OFFCURVE",
"649 444 CURVE SMOOTH",
"632 344 OFFCURVE",
"614 221 OFFCURVE",
"614 157 CURVE SMOOTH",
"614 124 OFFCURVE",
"617 81 OFFCURVE",
"628 47 CURVE SMOOTH",
"643 2 OFFCURVE",
"671 -31 OFFCURVE",
"717 -31 CURVE SMOOTH"
);
}
);
userData = {
com.typemytype.robofont.mark = (
0.656,
1,
0.6,
1
);
};
width = 976;
}
);
},
{
glyphname = eng;
layers = (
{
layerId = master01;
paths = (
{
closed = 1;
nodes = (
"177 832 OFFCURVE",
"141 812 OFFCURVE",
"135 742 CURVE",
"129 698 OFFCURVE",
"135 634 OFFCURVE",
"129 566 CURVE",
"123 446 OFFCURVE",
"107 233 OFFCURVE",
"97 147 CURVE",
"63 64 OFFCURVE",
"74 -12 OFFCURVE",
"154 -12 CURVE SMOOTH",
"256 -12 OFFCURVE",
"230 114 OFFCURVE",
"225 236 CURVE",
"225 328 OFFCURVE",
"236 457 OFFCURVE",
"253 587 CURVE SMOOTH",
"261 649 OFFCURVE",
"268 699 OFFCURVE",
"271 758 CURVE SMOOTH",
"273 802 OFFCURVE",
"255 832 OFFCURVE",
"211 832 CURVE SMOOTH"
);
},
{
closed = 1;
nodes = (
"499 -511 OFFCURVE",
"638 -443 OFFCURVE",
"717 -236 CURVE SMOOTH",
"781 -68 OFFCURVE",
"803 208 OFFCURVE",
"804 443 CURVE SMOOTH",
"805 675 OFFCURVE",
"766 820 OFFCURVE",
"618 820 CURVE SMOOTH",
"404 820 OFFCURVE",
"192 486 OFFCURVE",
"136 92 CURVE",
"223 70 LINE",
"263 444 OFFCURVE",
"490 700 OFFCURVE",
"592 700 CURVE SMOOTH",
"671 700 OFFCURVE",
"673 584 OFFCURVE",
"675 446 CURVE SMOOTH",
"678 206 OFFCURVE",
"644 -65 OFFCURVE",
"602 -190 CURVE SMOOTH",
"552 -340 OFFCURVE",
"456 -391 OFFCURVE",
"386 -391 CURVE SMOOTH",
"335 -391 OFFCURVE",
"300 -380 OFFCURVE",
"260 -340 CURVE SMOOTH",
"223 -303 OFFCURVE",
"197 -298 OFFCURVE",
"177 -314 CURVE SMOOTH",
"145 -339 OFFCURVE",
"151 -400 OFFCURVE",
"206 -448 CURVE SMOOTH",
"240 -478 OFFCURVE",
"295 -511 OFFCURVE",
"390 -511 CURVE SMOOTH"
);
},
{
closed = 1;
nodes = (
"270 396 LINE",
"270 481 LINE",
"203 496 LINE",
"192 396 LINE"
);
}
);
width = 960;
}
);
unicode = 014B;
},
{
color = 5;
glyphname = o.base;
lastChange = "2019-03-29 09:23:44 +0000";
layers = (
{
anchors = (
{
name = top;
position = "{476, 800}";
}
);
layerId = master01;
paths = (
{
closed = 1;
nodes = (
"574 -28 OFFCURVE",
"706 144 OFFCURVE",
"754 308 CURVE SMOOTH",
"792 436 OFFCURVE",
"803 574 OFFCURVE",
"781 651 CURVE SMOOTH",
"762 717 OFFCURVE",
"717 793 OFFCURVE",
"599 793 CURVE SMOOTH",
"524 793 OFFCURVE",
"419 748 OFFCURVE",
"402 613 CURVE SMOOTH",
"386 485 OFFCURVE",
"484 386 OFFCURVE",
"644 386 CURVE SMOOTH",
"667 386 OFFCURVE",
"690 388 OFFCURVE",
"713 392 CURVE",
"712 500 LINE",
"689 496 OFFCURVE",
"664 494 OFFCURVE",
"640 494 CURVE SMOOTH",
"560 494 OFFCURVE",
"519 527 OFFCURVE",
"522 584 CURVE SMOOTH",
"524 633 OFFCURVE",
"547 673 OFFCURVE",
"597 673 CURVE SMOOTH",
"700 673 OFFCURVE",
"672 492 OFFCURVE",
"636 346 CURVE",
"616 260 OFFCURVE",
"538 92 OFFCURVE",
"378 92 CURVE SMOOTH",
"236 92 OFFCURVE",
"168 230 OFFCURVE",
"202 418 CURVE SMOOTH",
"219 510 OFFCURVE",
"255 583 OFFCURVE",
"298 633 CURVE",
"363 630 OFFCURVE",
"386 673 OFFCURVE",
"386 708 CURVE SMOOTH",
"386 743 OFFCURVE",
"358 772 OFFCURVE",
"317 772 CURVE SMOOTH",
"283 772 OFFCURVE",
"253 755 OFFCURVE",
"230 736 CURVE SMOOTH",
"152 672 OFFCURVE",
"105 570 OFFCURVE",
"82 448 CURVE SMOOTH",
"30 170 OFFCURVE",
"162 -28 OFFCURVE",
"370 -28 CURVE SMOOTH"
);
}
);
userData = {
com.typemytype.robofont.mark = (
0.656,
1,
0.6,
1
);
};
width = 886;
}
);
},
{
glyphname = oe;
layers = (
{
layerId = master01;
paths = (
{
closed = 1;
nodes = (
"785 816 OFFCURVE",
"639 656 OFFCURVE",
"582 426 CURVE SMOOTH",
"530 215 OFFCURVE",
"562 -34 OFFCURVE",
"839 -34 CURVE SMOOTH",
"931 -34 OFFCURVE",
"1024 -6 OFFCURVE",
"1096 43 CURVE SMOOTH",
"1135 69 OFFCURVE",
"1147 100 OFFCURVE",
"1136 125 CURVE SMOOTH",
"1126 147 OFFCURVE",
"1098 153 OFFCURVE",
"1049 133 CURVE",
"987 106 OFFCURVE",
"920 86 OFFCURVE",
"853 86 CURVE SMOOTH",
"677 86 OFFCURVE",
"667 221 OFFCURVE",
"708 406 CURVE SMOOTH",
"744 567 OFFCURVE",
"847 696 OFFCURVE",
"977 696 CURVE SMOOTH",
"1053 696 OFFCURVE",
"1081 653 OFFCURVE",
"1071 588 CURVE SMOOTH",
"1061 528 OFFCURVE",
"1019 463 OFFCURVE",
"915 443 CURVE SMOOTH",
"839 428 OFFCURVE",
"703 444 OFFCURVE",
"684 611 CURVE",
"593 581 LINE",
"661 321 OFFCURVE",
"858 324 OFFCURVE",
"961 342 CURVE SMOOTH",
"1073 362 OFFCURVE",
"1187 441 OFFCURVE",
"1210 577 CURVE SMOOTH",
"1237 733 OFFCURVE",
"1129 816 OFFCURVE",
"987 816 CURVE SMOOTH"
);
},
{
closed = 1;
nodes = (
"321 821 OFFCURVE",
"162 677 OFFCURVE",
"106 448 CURVE SMOOTH",
"33 151 OFFCURVE",
"124 -28 OFFCURVE",
"335 -28 CURVE SMOOTH",
"524 -28 OFFCURVE",
"626 116 OFFCURVE",
"665 280 CURVE SMOOTH",
"707 457 OFFCURVE",
"698 594 OFFCURVE",
"676 686 CURVE SMOOTH",
"666 726 OFFCURVE",
"632 768 OFFCURVE",
"577 744 CURVE SMOOTH",
"519 719 OFFCURVE",
"541 651 OFFCURVE",
"566 595 CURVE SMOOTH",
"586 550 OFFCURVE",
"598 450 OFFCURVE",
"578 339 CURVE SMOOTH",
"555 215 OFFCURVE",
"483 92 OFFCURVE",
"353 92 CURVE SMOOTH",
"218 92 OFFCURVE",
"183 210 OFFCURVE",
"228 407 CURVE SMOOTH",
"275 611 OFFCURVE",
"396 701 OFFCURVE",
"499 701 CURVE SMOOTH",
"552 701 OFFCURVE",
"601 691 OFFCURVE",
"616 738 CURVE SMOOTH",
"624 762 OFFCURVE",
"598 821 OFFCURVE",
"494 821 CURVE SMOOTH"
);
}
);
width = 1320;
}
);
unicode = 0153;
},
{
glyphname = p.base;
lastChange = "2019-03-29 09:44:49 +0000";
layers = (
{
layerId = master01;
paths = (
{
closed = 1;
nodes = (
"129 685 OFFCURVE",
"139 654 OFFCURVE",
"148 627 CURVE",
"148 599 OFFCURVE",
"148 564 OFFCURVE",
"122 348 CURVE SMOOTH",
"106 225 OFFCURVE",
"83 41 OFFCURVE",
"62 -145 CURVE SMOOTH",
"49 -266 OFFCURVE",
"36 -387 OFFCURVE",
"28 -494 CURVE",
"102 -494 LINE",
"122 -370 OFFCURVE",
"152 -256 OFFCURVE",
"176 -136 CURVE SMOOTH",
"224 104 OFFCURVE",
"280 368 OFFCURVE",
"420 534 CURVE SMOOTH",
"486 612 OFFCURVE",
"548 646 OFFCURVE",
"606 646 CURVE SMOOTH",
"722 646 OFFCURVE",
"784 498 OFFCURVE",
"722 294 CURVE SMOOTH",
"684 170 OFFCURVE",
"598 86 OFFCURVE",
"450 86 CURVE SMOOTH",
"376 86 OFFCURVE",
"282 106 OFFCURVE",
"212 164 CURVE",
"176 84 LINE",
"238 18 OFFCURVE",
"342 -30 OFFCURVE",
"466 -30 CURVE SMOOTH",
"668 -30 OFFCURVE",
"796 108 OFFCURVE",
"848 262 CURVE SMOOTH",
"942 542 OFFCURVE",
"834 766 OFFCURVE",
"624 766 CURVE SMOOTH",
"506 766 OFFCURVE",
"404 692 OFFCURVE",
"348 622 CURVE SMOOTH",
"168 394 OFFCURVE",
"116 122 OFFCURVE",
"84 -12 CURVE SMOOTH",
"34 -222 OFFCURVE",
"-3 -355 OFFCURVE",
"-3 -427 CURVE SMOOTH",
"-3 -501 OFFCURVE",
"25 -531 OFFCURVE",
"61 -531 CURVE SMOOTH",
"83 -531 OFFCURVE",
"118 -523 OFFCURVE",
"137 -447 CURVE SMOOTH",
"160 -354 OFFCURVE",
"160 -264 OFFCURVE",
"168 -159 CURVE SMOOTH",
"182 4 OFFCURVE",
"208 142 OFFCURVE",
"226 292 CURVE",
"218 314 LINE",
"246 430 OFFCURVE",
"272 568 OFFCURVE",
"272 664 CURVE SMOOTH",
"272 724 OFFCURVE",
"256 790 OFFCURVE",
"184 790 CURVE SMOOTH",
"130 790 OFFCURVE",
"120 755 OFFCURVE",
"126 708 CURVE SMOOTH"
);
},
{
closed = 1;
nodes = (
"292 422 LINE",
"292 490 LINE",
"214 514 LINE",
"214 422 LINE"
);
}
);
width = 1000;
}
);
},
{
glyphname = thorn;
layers = (
{
layerId = master01;
paths = (
{
closed = 1;
nodes = (
"184 1246 OFFCURVE",
"165 1207 OFFCURVE",
"166 1170 CURVE SMOOTH",
"175 766 OFFCURVE",
"109 346 OFFCURVE",
"80 -70 CURVE",
"44 -188 OFFCURVE",
"21 -300 OFFCURVE",
"21 -405 CURVE SMOOTH",
"21 -480 OFFCURVE",
"39 -523 OFFCURVE",
"86 -523 CURVE SMOOTH",
"149 -523 OFFCURVE",
"154 -466 OFFCURVE",
"159 -415 CURVE SMOOTH",
"182 -203 OFFCURVE",
"197 11 OFFCURVE",
"272 209 CURVE SMOOTH",
"347 408 OFFCURVE",
"457 645 OFFCURVE",
"622 645 CURVE SMOOTH",
"752 645 OFFCURVE",
"807 535 OFFCURVE",
"749 334 CURVE SMOOTH",
"706 185 OFFCURVE",
"618 90 OFFCURVE",
"488 90 CURVE SMOOTH",
"411 90 OFFCURVE",
"320 132 OFFCURVE",
"253 197 CURVE",
"202 111 LINE",
"267 30 OFFCURVE",
"377 -30 OFFCURVE",
"496 -30 CURVE SMOOTH",
"691 -30 OFFCURVE",
"814 119 OFFCURVE",
"868 281 CURVE SMOOTH",
"960 557 OFFCURVE",
"873 765 OFFCURVE",
"639 765 CURVE SMOOTH",
"192 765 OFFCURVE",
"121 -64 OFFCURVE",
"57 -403 CURVE",
"116 -401 LINE",
"182 113 OFFCURVE",
"290 598 OFFCURVE",
"300 1140 CURVE SMOOTH",
"301 1186 OFFCURVE",
"304 1246 OFFCURVE",
"233 1246 CURVE SMOOTH"
);
},
{
closed = 1;
nodes = (
"256 327 LINE",
"290 430 LINE",
"210 449 LINE",
"184 327 LINE"
);
}
);
width = 1008;
}
);
unicode = 00FE;
},
{
color = 5;
glyphname = q.base;
lastChange = "2019-03-29 09:23:44 +0000";
layers = (
{
layerId = master01;
paths = (
{
closed = 1;
nodes = (
"638 13 OFFCURVE",
"766 316 OFFCURVE",
"766 565 CURVE SMOOTH",
"766 727 OFFCURVE",
"679 788 OFFCURVE",
"584 788 CURVE SMOOTH",
"475 788 OFFCURVE",
"398 723 OFFCURVE",
"391 624 CURVE SMOOTH",
"379 463 OFFCURVE",
"518 412 OFFCURVE",
"613 412 CURVE SMOOTH",
"768 412 OFFCURVE",
"869 504 OFFCURVE",
"952 676 CURVE",
"905 688 LINE",
"841 609 OFFCURVE",
"764 509 OFFCURVE",
"628 509 CURVE SMOOTH",
"556 509 OFFCURVE",
"508 543 OFFCURVE",
"508 610 CURVE SMOOTH",
"508 653 OFFCURVE",
"533 687 OFFCURVE",
"572 687 CURVE SMOOTH",
"620 687 OFFCURVE",
"643 644 OFFCURVE",
"643 566 CURVE SMOOTH",
"643 379 OFFCURVE",
"550 130 OFFCURVE",
"379 130 CURVE SMOOTH",
"250 130 OFFCURVE",
"201 291 OFFCURVE",
"249 508 CURVE SMOOTH",
"258 549 OFFCURVE",
"271 592 OFFCURVE",
"290 629 CURVE",
"331 670 OFFCURVE",
"367 756 OFFCURVE",
"296 777 CURVE SMOOTH",
"241 793 OFFCURVE",
"183 754 OFFCURVE",
"171 665 CURVE",
"147 619 OFFCURVE",
"128 563 OFFCURVE",
"116 508 CURVE SMOOTH",
"64 274 OFFCURVE",
"124 13 OFFCURVE",
"369 13 CURVE SMOOTH"
);
},
{
closed = 1;
nodes = (
"845 -518 OFFCURVE",
"868 -470 OFFCURVE",
"871 -361 CURVE SMOOTH",
"878 -91 OFFCURVE",
"902 112 OFFCURVE",
"920 240 CURVE SMOOTH",
"946 428 OFFCURVE",
"970 539 OFFCURVE",
"1001 636 CURVE",
"1053 695 OFFCURVE",
"1040 774 OFFCURVE",
"970 774 CURVE SMOOTH",
"902 774 OFFCURVE",
"880 665 OFFCURVE",
"871 619 CURVE SMOOTH",
"856 543 OFFCURVE",
"830 418 OFFCURVE",
"797 209 CURVE SMOOTH",
"761 -17 OFFCURVE",
"741 -248 OFFCURVE",
"735 -358 CURVE SMOOTH",
"729 -460 OFFCURVE",
"741 -518 OFFCURVE",
"787 -518 CURVE SMOOTH"
);
}
);
userData = {
com.typemytype.robofont.mark = (
0.656,
1,
0.6,
1
);
};
width = 1164;
}
);
},
{
color = 5;
glyphname = r.base;
lastChange = "2019-03-29 09:23:44 +0000";
layers = (
{
anchors = (
{
name = bottom;
position = "{203, 0}";
},
{
name = top;
position = "{402, 800}";
}
);
layerId = master01;
paths = (
{
closed = 1;
nodes = (
"331 106 OFFCURVE",
"458 217 OFFCURVE",
"599 217 CURVE SMOOTH",
"650 217 OFFCURVE",
"688 201 OFFCURVE",
"682 162 CURVE SMOOTH",
"678 134 OFFCURVE",
"650 116 OFFCURVE",
"612 116 CURVE SMOOTH",
"515 116 OFFCURVE",
"485 237 OFFCURVE",
"504 396 CURVE SMOOTH",
"515 489 OFFCURVE",
"540 577 OFFCURVE",
"557 615 CURVE SMOOTH",
"577 660 OFFCURVE",
"593 682 OFFCURVE",
"611 701 CURVE",
"649 701 OFFCURVE",
"677 722 OFFCURVE",
"677 755 CURVE SMOOTH",
"677 783 OFFCURVE",
"651 806 OFFCURVE",
"614 806 CURVE SMOOTH",
"550 806 OFFCURVE",
"505 750 OFFCURVE",
"468 682 CURVE SMOOTH",
"433 618 OFFCURVE",
"406 514 OFFCURVE",
"393 419 CURVE SMOOTH",
"372 263 OFFCURVE",
"394 120 OFFCURVE",
"474 48 CURVE SMOOTH",
"507 19 OFFCURVE",
"549 -4 OFFCURVE",
"607 -4 CURVE SMOOTH",
"710 -4 OFFCURVE",
"796 57 OFFCURVE",
"804 161 CURVE SMOOTH",
"811 249 OFFCURVE",
"760 327 OFFCURVE",
"631 327 CURVE SMOOTH",
"459 327 OFFCURVE",
"296 195 OFFCURVE",
"189 48 CURVE",
"242 -8 LINE"
);
},
{
closed = 1;
nodes = (
"249 -28 OFFCURVE",
"279 3 OFFCURVE",
"265 72 CURVE",
"277 230 OFFCURVE",
"284 418 OFFCURVE",
"293 599 CURVE",
"295 624 OFFCURVE",
"300 691 OFFCURVE",
"300 726 CURVE SMOOTH",
"300 778 OFFCURVE",
"280 808 OFFCURVE",
"234 808 CURVE SMOOTH",
"154 808 OFFCURVE",
"154 706 OFFCURVE",
"190 629 CURVE",
"181 668 LINE",
"177 443 OFFCURVE",
"167 328 OFFCURVE",
"158 232 CURVE SMOOTH",
"150 144 OFFCURVE",
"140 96 OFFCURVE",
"140 50 CURVE SMOOTH",
"140 2 OFFCURVE",
"162 -28 OFFCURVE",
"204 -28 CURVE SMOOTH"
);
}
);
userData = {
com.typemytype.robofont.mark = (
0.656,
1,
0.6,
1
);
};
width = 920;
}
);
},
{
glyphname = s.base;
lastChange = "2019-03-29 09:44:52 +0000";
layers = (
{
anchors = (
{
name = bottom;
position = "{340, 0}";
},
{
name = top;
position = "{410, 800}";
}
);
layerId = master01;
paths = (
{
closed = 1;
nodes = (
"504 605 OFFCURVE",
"556 557 OFFCURVE",
"603 557 CURVE SMOOTH",
"643 557 OFFCURVE",
"682 586 OFFCURVE",
"674 650 CURVE SMOOTH",
"668 699 OFFCURVE",
"637 735 OFFCURVE",
"596 764 CURVE SMOOTH",
"554 794 OFFCURVE",
"488 824 OFFCURVE",
"401 824 CURVE SMOOTH",
"269 824 OFFCURVE",
"161 741 OFFCURVE",
"146 611 CURVE SMOOTH",
"129 461 OFFCURVE",
"217 398 OFFCURVE",
"345 335 CURVE SMOOTH",
"448 284 OFFCURVE",
"533 246 OFFCURVE",
"509 163 CURVE SMOOTH",
"489 93 OFFCURVE",
"422 76 OFFCURVE",
"364 76 CURVE SMOOTH",
"276 76 OFFCURVE",
"208 106 OFFCURVE",
"154 144 CURVE SMOOTH",
"93 187 OFFCURVE",
"44 226 OFFCURVE",
"19 208 CURVE SMOOTH",
"-34 170 OFFCURVE",
"40 85 OFFCURVE",
"76 56 CURVE SMOOTH",
"149 -4 OFFCURVE",
"238 -46 OFFCURVE",
"360 -46 CURVE SMOOTH",
"496 -46 OFFCURVE",
"612 17 OFFCURVE",
"639 139 CURVE SMOOTH",
"671 284 OFFCURVE",
"570 367 OFFCURVE",
"406 440 CURVE SMOOTH",
"325 476 OFFCURVE",
"261 518 OFFCURVE",
"273 600 CURVE SMOOTH",
"282 664 OFFCURVE",
"328 709 OFFCURVE",
"407 709 CURVE SMOOTH",
"477 709 OFFCURVE",
"532 674 OFFCURVE",
"569 634 CURVE",
"545 681 LINE"
);
}
);
width = 800;
}
);
},
{
glyphname = germandbls.base;
lastChange = "2019-03-29 09:46:26 +0000";
layers = (
{
layerId = master01;
paths = (
{
closed = 1;
nodes = (
"206 -178 OFFCURVE",
"206 16 OFFCURVE",
"218 222 CURVE SMOOTH",
"232 454 OFFCURVE",
"260 646 OFFCURVE",
"294 792 CURVE SMOOTH",
"328 940 OFFCURVE",
"400 1174 OFFCURVE",
"554 1174 CURVE SMOOTH",
"676 1174 OFFCURVE",
"706 1012 OFFCURVE",
"646 892 CURVE SMOOTH",
"612 824 OFFCURVE",
"548 768 OFFCURVE",
"484 724 CURVE",
"440 726 OFFCURVE",
"398 700 OFFCURVE",
"398 656 CURVE SMOOTH",
"398 624 OFFCURVE",
"422 594 OFFCURVE",
"470 594 CURVE SMOOTH",
"488 594 OFFCURVE",
"514 598 OFFCURVE",
"540 602 CURVE",
"774 602 OFFCURVE",
"788 428 OFFCURVE",
"742 290 CURVE SMOOTH",
"692 138 OFFCURVE",
"576 86 OFFCURVE",
"490 86 CURVE SMOOTH",
"456 86 OFFCURVE",
"416 92 OFFCURVE",
"388 102 CURVE",
"392 168 OFFCURVE",
"352 192 OFFCURVE",
"318 192 CURVE SMOOTH",
"272 192 OFFCURVE",
"248 144 OFFCURVE",
"264 90 CURVE SMOOTH",
"292 0 OFFCURVE",
"402 -26 OFFCURVE",
"494 -26 CURVE SMOOTH",
"634 -26 OFFCURVE",
"784 46 OFFCURVE",
"862 228 CURVE SMOOTH",
"998 544 OFFCURVE",
"800 758 OFFCURVE",
"462 702 CURVE",
"462 630 LINE",
"646 698 OFFCURVE",
"758 806 OFFCURVE",
"796 932 CURVE SMOOTH",
"848 1108 OFFCURVE",
"764 1294 OFFCURVE",
"560 1294 CURVE SMOOTH",
"338 1294 OFFCURVE",
"246 1092 OFFCURVE",
"196 918 CURVE SMOOTH",
"70 488 OFFCURVE",
"72 4 OFFCURVE",
"98 -396 CURVE",
"104 -468 OFFCURVE",
"132 -502 OFFCURVE",
"180 -502 CURVE SMOOTH",
"230 -502 OFFCURVE",
"288 -452 OFFCURVE",
"226 -348 CURVE"
);
}
);
width = 1000;
}
);
},
{
color = 5;
glyphname = longs;
lastChange = "2019-05-16 22:01:23 +0000";
layers = (
{
background = {
paths = (
{
closed = 1;
nodes = (
"369 1158 LINE",
"320 871 OFFCURVE",
"275 593 OFFCURVE",
"250 361 CURVE SMOOTH",
"226 136 OFFCURVE",
"198 -161 OFFCURVE",
"186 -413 CURVE SMOOTH",
"181 -516 OFFCURVE",
"304 -520 OFFCURVE",
"311 -432 CURVE SMOOTH",
"330 -190 OFFCURVE",
"353 76 OFFCURVE",
"384 349 CURVE SMOOTH",
"415 623 OFFCURVE",
"449 903 OFFCURVE",
"488 1168 CURVE",
"512 1219 OFFCURVE",
"489 1278 OFFCURVE",
"427 1278 CURVE SMOOTH",
"388 1278 OFFCURVE",
"360 1249 OFFCURVE",
"356 1179 CURVE"
);
},
{
closed = 1;
nodes = (
"152 452 OFFCURVE",
"320 641 OFFCURVE",
"424 1165 CURVE",
"356 1179 LINE",
"264 790 OFFCURVE",
"101 573 OFFCURVE",
"-128 418 CURVE SMOOTH",
"-190 376 OFFCURVE",
"-134 274 OFFCURVE",
"-44 330 CURVE SMOOTH"
);
}
);
};
components = (
{
name = init.longs;
},
{
name = longs.base;
transform = "{1, 0, 0, 1, 177, 0}";
}
);
layerId = master01;
width = 747;
}
);
unicode = 017F;
},
{
color = 5;
glyphname = longs.base;
lastChange = "2019-05-16 22:05:26 +0000";
layers = (
{
background = {
paths = (
{
closed = 1;
nodes = (
"309 1158 LINE",
"260 871 OFFCURVE",
"215 593 OFFCURVE",
"190 361 CURVE SMOOTH",
"166 136 OFFCURVE",
"138 -161 OFFCURVE",
"126 -413 CURVE SMOOTH",
"121 -516 OFFCURVE",
"244 -520 OFFCURVE",
"251 -432 CURVE SMOOTH",
"270 -190 OFFCURVE",
"293 76 OFFCURVE",
"324 349 CURVE SMOOTH",
"355 623 OFFCURVE",
"389 903 OFFCURVE",
"428 1168 CURVE",
"452 1219 OFFCURVE",
"429 1278 OFFCURVE",
"367 1278 CURVE SMOOTH",
"328 1278 OFFCURVE",
"300 1249 OFFCURVE",
"296 1179 CURVE"
);
},
{
closed = 1;
nodes = (
"92 452 OFFCURVE",
"260 641 OFFCURVE",
"364 1165 CURVE",
"296 1179 LINE",
"204 790 OFFCURVE",
"41 573 OFFCURVE",
"-188 418 CURVE SMOOTH",
"-250 376 OFFCURVE",
"-194 274 OFFCURVE",
"-104 330 CURVE SMOOTH"
);
},
{
closed = 1;
nodes = (
"21 290 OFFCURVE",
"281 671 OFFCURVE",
"484 1148 CURVE",
"412 1188 LINE",
"205 773 OFFCURVE",
"-68 369 OFFCURVE",
"-394 75 CURVE",
"-334 -14 LINE"
);
},
{
closed = 1;
nodes = (
"79 371 OFFCURVE",
"311 648 OFFCURVE",
"524 1148 CURVE",
"452 1188 LINE",
"231 746 OFFCURVE",
"9 483 OFFCURVE",
"-373 310 CURVE",
"-372 187 LINE"
);
}
);
};
layerId = master01;
paths = (
{
closed = 1;
nodes = (
"309 1158 LINE",
"260 871 OFFCURVE",
"215 593 OFFCURVE",
"190 361 CURVE SMOOTH",
"166 136 OFFCURVE",
"138 -161 OFFCURVE",
"126 -413 CURVE SMOOTH",
"121 -516 OFFCURVE",
"244 -520 OFFCURVE",
"251 -432 CURVE SMOOTH",
"270 -190 OFFCURVE",
"293 76 OFFCURVE",
"324 349 CURVE SMOOTH",
"355 623 OFFCURVE",
"389 903 OFFCURVE",
"428 1168 CURVE",
"452 1219 OFFCURVE",
"429 1278 OFFCURVE",
"367 1278 CURVE SMOOTH",
"324 1278 OFFCURVE",
"293 1237 OFFCURVE",
"296 1179 CURVE"
);
}
);
width = 570;
}
);
},
{
color = 5;
glyphname = t.base;
lastChange = "2019-03-29 09:23:44 +0000";
layers = (
{
layerId = master01;
paths = (
{
closed = 1;
nodes = (
"557 -32 OFFCURVE",
"597 2 OFFCURVE",
"568 66 CURVE",
"569 156 OFFCURVE",
"573 293 OFFCURVE",
"589 481 CURVE SMOOTH",
"608 695 OFFCURVE",
"625 917 OFFCURVE",
"653 1138 CURVE",
"686 1197 OFFCURVE",
"664 1263 OFFCURVE",
"598 1263 CURVE SMOOTH",
"539 1263 OFFCURVE",
"506 1196 OFFCURVE",
"542 1129 CURVE",
"506 895 OFFCURVE",
"475 638 OFFCURVE",
"462 470 CURVE SMOOTH",
"447 274 OFFCURVE",
"443 200 OFFCURVE",
"449 52 CURVE SMOOTH",
"451 1 OFFCURVE",
"472 -32 OFFCURVE",
"515 -32 CURVE SMOOTH"
);
},
{
closed = 1;
nodes = (
"520 149 LINE",
"556 390 OFFCURVE",
"423 479 OFFCURVE",
"315 479 CURVE SMOOTH",
"199 479 OFFCURVE",
"129 402 OFFCURVE",
"129 319 CURVE SMOOTH",
"129 210 OFFCURVE",
"207 153 OFFCURVE",
"337 153 CURVE SMOOTH",
"407 153 OFFCURVE",
"478 166 OFFCURVE",
"548 192 CURVE",
"547 319 LINE",
"493 294 OFFCURVE",
"430 273 OFFCURVE",
"357 273 CURVE SMOOTH",
"268 273 OFFCURVE",
"252 297 OFFCURVE",
"252 326 CURVE SMOOTH",
"252 355 OFFCURVE",
"276 379 OFFCURVE",
"320 379 CURVE SMOOTH",
"393 379 OFFCURVE",
"445 318 OFFCURVE",
"449 131 CURVE"
);
}
);
userData = {
com.typemytype.robofont.mark = (
0.656,
1,
0.6,
1
);
};
width = 840;
}
);
},
{
glyphname = u.base;
lastChange = "2019-03-29 09:44:55 +0000";
layers = (
{
anchors = (
{
name = top;
position = "{510, 800}";
}
);
layerId = master01;
paths = (
{
closed = 1;
nodes = (
"120 807 OFFCURVE",
"122 700 OFFCURVE",
"167 631 CURVE",
"148 759 LINE",
"160 610 OFFCURVE",
"114 433 OFFCURVE",
"100 284 CURVE",
"83 116 OFFCURVE",
"128 -18 OFFCURVE",
"309 -18 CURVE SMOOTH",
"604 -18 OFFCURVE",
"694 364 OFFCURVE",
"747 584 CURVE",
"796 594 LINE",
"808 634 OFFCURVE",
"820 675 OFFCURVE",
"820 716 CURVE SMOOTH",
"820 771 OFFCURVE",
"785 793 OFFCURVE",
"755 793 CURVE SMOOTH",
"719 793 OFFCURVE",
"683 771 OFFCURVE",
"673 719 CURVE SMOOTH",
"666 684 OFFCURVE",
"661 574 OFFCURVE",
"661 454 CURVE SMOOTH",
"661 275 OFFCURVE",
"675 80 OFFCURVE",
"738 18 CURVE",
"764 -9 OFFCURVE",
"796 -18 OFFCURVE",
"829 -18 CURVE SMOOTH",
"868 -18 OFFCURVE",
"901 3 OFFCURVE",
"901 42 CURVE SMOOTH",
"901 66 OFFCURVE",
"886 83 OFFCURVE",
"868 90 CURVE SMOOTH",
"856 95 OFFCURVE",
"844 98 OFFCURVE",
"833 107 CURVE",
"796 147 OFFCURVE",
"791 296 OFFCURVE",
"791 438 CURVE SMOOTH",
"791 574 OFFCURVE",
"808 702 OFFCURVE",
"809 716 CURVE",
"690 726 LINE",
"671 632 OFFCURVE",
"644 519 OFFCURVE",
"615 430 CURVE SMOOTH",
"572 293 OFFCURVE",
"479 102 OFFCURVE",
"330 102 CURVE SMOOTH",
"229 102 OFFCURVE",
"223 186 OFFCURVE",
"229 275 CURVE SMOOTH",
"241 433 OFFCURVE",
"282 607 OFFCURVE",
"286 705 CURVE SMOOTH",
"289 776 OFFCURVE",
"256 807 OFFCURVE",
"212 807 CURVE SMOOTH"
);
},
{
closed = 1;
nodes = (
"711 267 LINE",
"716 355 LINE",
"640 355 LINE",
"636 281 LINE"
);
}
);
width = 992;
}
);
},
{
glyphname = v.base;
lastChange = "2019-03-29 09:44:59 +0000";
layers = (
{
layerId = master01;
paths = (
{
closed = 1;
nodes = (
"55 664 OFFCURVE",
"78 572 OFFCURVE",
"101 484 CURVE SMOOTH",
"138 344 OFFCURVE",
"182 202 OFFCURVE",
"240 64 CURVE SMOOTH",
"270 -7 OFFCURVE",
"290 -32 OFFCURVE",
"325 -32 CURVE SMOOTH",
"411 -32 OFFCURVE",
"509 129 OFFCURVE",
"553 199 CURVE SMOOTH",
"622 310 OFFCURVE",
"691 428 OFFCURVE",
"739 548 CURVE",
"759 594 OFFCURVE",
"777 648 OFFCURVE",
"793 690 CURVE SMOOTH",
"829 784 OFFCURVE",
"795 820 OFFCURVE",
"747 820 CURVE SMOOTH",
"715 820 OFFCURVE",
"689 804 OFFCURVE",
"673 774 CURVE SMOOTH",
"651 734 OFFCURVE",
"645 664 OFFCURVE",
"621 604 CURVE SMOOTH",
"545 414 OFFCURVE",
"435 222 OFFCURVE",
"303 76 CURVE",
"369 76 LINE",
"275 291 OFFCURVE",
"214 542 OFFCURVE",
"182 757 CURVE SMOOTH",
"169 848 OFFCURVE",
"45 838 OFFCURVE",
"51 734 CURVE SMOOTH"
);
}
);
width = 880;
}
);
},
{
glyphname = w.base;
lastChange = "2019-03-29 09:45:06 +0000";
layers = (
{
layerId = master01;
paths = (
{
closed = 1;
nodes = (
"723 133 OFFCURVE",
"677 352 OFFCURVE",
"657 456 CURVE SMOOTH",
"648 506 OFFCURVE",
"624 524 OFFCURVE",
"588 524 CURVE SMOOTH",
"562 524 OFFCURVE",
"533 505 OFFCURVE",
"524 463 CURVE",
"474 360 OFFCURVE",
"430 293 OFFCURVE",
"371 215 CURVE SMOOTH",
"315 140 OFFCURVE",
"273 99 OFFCURVE",
"213 55 CURVE",
"292 55 LINE",
"218 210 OFFCURVE",
"225 467 OFFCURVE",
"236 656 CURVE SMOOTH",
"239 714 OFFCURVE",
"205 735 OFFCURVE",
"173 735 CURVE SMOOTH",
"147 735 OFFCURVE",
"107 721 OFFCURVE",
"103 660 CURVE SMOOTH",
"90 497 OFFCURVE",
"86 238 OFFCURVE",
"156 68 CURVE SMOOTH",
"176 22 OFFCURVE",
"205 -20 OFFCURVE",
"254 -20 CURVE SMOOTH",
"364 -20 OFFCURVE",
"501 155 OFFCURVE",
"634 447 CURVE",
"528 447 LINE",
"580 225 OFFCURVE",
"643 -60 OFFCURVE",
"799 -60 CURVE SMOOTH",
"815 -60 OFFCURVE",
"832 -56 OFFCURVE",
"850 -48 CURVE SMOOTH",
"1026 35 OFFCURVE",
"1156 318 OFFCURVE",
"1196 541 CURVE SMOOTH",
"1227 716 OFFCURVE",
"1215 841 OFFCURVE",
"1122 841 CURVE SMOOTH",
"1032 841 OFFCURVE",
"1019 728 OFFCURVE",
"1096 704 CURVE",
"1085 754 LINE",
"1089 674 OFFCURVE",
"1074 592 OFFCURVE",
"1067 558 CURVE SMOOTH",
"1027 362 OFFCURVE",
"928 147 OFFCURVE",
"794 61 CURVE",
"811 59 LINE"
);
}
);
width = 1320;
}
);
},
{
glyphname = x.base;
lastChange = "2019-03-29 09:45:09 +0000";
layers = (
{
layerId = master01;
paths = (
{
closed = 1;
nodes = (
"-33 130 OFFCURVE",
"-28 4 OFFCURVE",
"55 1 CURVE SMOOTH",
"87 0 OFFCURVE",
"108 22 OFFCURVE",
"131 47 CURVE SMOOTH",
"354 300 OFFCURVE",
"486 461 OFFCURVE",
"784 687 CURVE SMOOTH",
"828 720 OFFCURVE",
"845 757 OFFCURVE",
"830 783 CURVE SMOOTH",
"805 827 OFFCURVE",
"742 803 OFFCURVE",
"696 769 CURVE SMOOTH",
"449 590 OFFCURVE",
"227 344 OFFCURVE",
"11 88 CURVE",
"98 127 LINE"
);
},
{
closed = 1;
nodes = (
"205 633 OFFCURVE",
"307 482 OFFCURVE",
"385 358 CURVE SMOOTH",
"453 250 OFFCURVE",
"509 150 OFFCURVE",
"563 49 CURVE SMOOTH",
"610 -40 OFFCURVE",
"644 -88 OFFCURVE",
"691 -66 CURVE SMOOTH",
"739 -42 OFFCURVE",
"697 51 OFFCURVE",
"674 97 CURVE SMOOTH",
"583 285 OFFCURVE",
"370 645 OFFCURVE",
"244 780 CURVE SMOOTH",
"212 815 OFFCURVE",
"171 840 OFFCURVE",
"124 812 CURVE SMOOTH",
"72 780 OFFCURVE",
"88 697 OFFCURVE",
"176 696 CURVE",
"130 720 LINE"
);
}
);
width = 872;
}
);
},
{
glyphname = y.base;
lastChange = "2019-03-29 09:45:12 +0000";
layers = (
{
anchors = (
{
name = top;
position = "{490, 800}";
}
);
layerId = master01;
paths = (
{
closed = 1;
nodes = (
"142 545 OFFCURVE",
"134 482 OFFCURVE",
"129 428 CURVE SMOOTH",
"116 283 OFFCURVE",
"148 193 OFFCURVE",
"198 118 CURVE SMOOTH",
"223 80 OFFCURVE",
"265 49 OFFCURVE",
"314 49 CURVE SMOOTH",
"360 49 OFFCURVE",
"398 65 OFFCURVE",
"450 124 CURVE SMOOTH",
"550 237 OFFCURVE",
"636 407 OFFCURVE",
"717 575 CURVE",
"757 550 LINE",
"771 568 OFFCURVE",
"778 590 OFFCURVE",
"787 609 CURVE SMOOTH",
"812 661 OFFCURVE",
"887 816 OFFCURVE",
"777 816 CURVE SMOOTH",
"731 816 OFFCURVE",
"704 775 OFFCURVE",
"695 754 CURVE SMOOTH",
"660 675 OFFCURVE",
"655 576 OFFCURVE",
"645 491 CURVE SMOOTH",
"632 377 OFFCURVE",
"626 265 OFFCURVE",
"610 152 CURVE SMOOTH",
"591 16 OFFCURVE",
"572 -107 OFFCURVE",
"511 -224 CURVE SMOOTH",
"455 -331 OFFCURVE",
"388 -386 OFFCURVE",
"296 -386 CURVE SMOOTH",
"219 -386 OFFCURVE",
"155 -368 OFFCURVE",
"89 -330 CURVE SMOOTH",
"164 -373 LINE",
"150 -298 OFFCURVE",
"116 -240 OFFCURVE",
"65 -240 CURVE SMOOTH",
"7 -240 OFFCURVE",
"-27 -299 OFFCURVE",
"18 -363 CURVE SMOOTH",
"80 -451 OFFCURVE",
"202 -499 OFFCURVE",
"312 -499 CURVE SMOOTH",
"510 -499 OFFCURVE",
"623 -331 OFFCURVE",
"671 -171 CURVE SMOOTH",
"738 51 OFFCURVE",
"748 292 OFFCURVE",
"778 532 CURVE SMOOTH",
"788 609 OFFCURVE",
"799 660 OFFCURVE",
"815 741 CURVE",
"726 768 LINE",
"670 644 OFFCURVE",
"606 526 OFFCURVE",
"530 415 CURVE SMOOTH",
"451 300 OFFCURVE",
"387 223 OFFCURVE",
"273 132 CURVE",
"320 157 LINE",
"268 217 OFFCURVE",
"246 306 OFFCURVE",
"249 389 CURVE SMOOTH",
"253 500 OFFCURVE",
"292 670 OFFCURVE",
"217 760 CURVE SMOOTH",
"198 784 OFFCURVE",
"173 797 OFFCURVE",
"145 797 CURVE SMOOTH",
"108 797 OFFCURVE",
"83 772 OFFCURVE",
"83 737 CURVE SMOOTH",
"83 697 OFFCURVE",
"114 652 OFFCURVE",
"125 609 CURVE SMOOTH"
);
},
{
closed = 1;
nodes = (
"679 385 LINE",
"679 474 LINE",
"591 474 LINE",
"591 398 LINE"
);
}
);
width = 960;
}
);
},
{
glyphname = z.base;
lastChange = "2019-03-29 09:45:14 +0000";
layers = (
{
anchors = (
{
name = top;
position = "{391, 800}";
}
);
layerId = master01;
paths = (
{
closed = 1;
nodes = (
"293 678 OFFCURVE",
"464 682 OFFCURVE",
"614 692 CURVE",
"596 730 LINE",
"521 640 OFFCURVE",
"397 519 OFFCURVE",
"355 477 CURVE SMOOTH",
"241 363 OFFCURVE",
"140 262 OFFCURVE",
"55 155 CURVE SMOOTH",
"26 118 OFFCURVE",
"21 91 OFFCURVE",
"21 77 CURVE SMOOTH",
"21 44 OFFCURVE",
"45 32 OFFCURVE",
"60 26 CURVE SMOOTH",
"154 -13 OFFCURVE",
"406 -41 OFFCURVE",
"580 -41 CURVE SMOOTH",
"676 -41 OFFCURVE",
"731 -16 OFFCURVE",
"733 38 CURVE SMOOTH",
"736 104 OFFCURVE",
"664 134 OFFCURVE",
"612 86 CURVE",
"582 83 OFFCURVE",
"530 80 OFFCURVE",
"480 80 CURVE SMOOTH",
"396 80 OFFCURVE",
"264 94 OFFCURVE",
"139 115 CURVE",
"138 66 LINE",
"180 120 OFFCURVE",
"242 190 OFFCURVE",
"298 248 CURVE SMOOTH",
"410 364 OFFCURVE",
"540 487 OFFCURVE",
"670 632 CURVE SMOOTH",
"698 663 OFFCURVE",
"729 698 OFFCURVE",
"723 747 CURVE SMOOTH",
"718 791 OFFCURVE",
"688 802 OFFCURVE",
"638 802 CURVE SMOOTH",
"477 802 OFFCURVE",
"292 799 OFFCURVE",
"150 793 CURVE SMOOTH",
"102 791 OFFCURVE",
"85 760 OFFCURVE",
"85 730 CURVE SMOOTH",
"85 702 OFFCURVE",
"101 667 OFFCURVE",
"155 670 CURVE SMOOTH"
);
}
);
width = 832;
}
);
},
{
glyphname = f_f;
lastChange = "2019-04-08 15:27:05 +0000";
layers = (
{
layerId = master01;
paths = (
{
closed = 1;
nodes = (
"368 1273 OFFCURVE",
"270 1123 OFFCURVE",
"235 903 CURVE SMOOTH",
"192 637 OFFCURVE",
"186 363 OFFCURVE",
"192 152 CURVE SMOOTH",
"195 45 OFFCURVE",
"199 -37 OFFCURVE",
"268 -37 CURVE SMOOTH",
"331 -37 OFFCURVE",
"361 19 OFFCURVE",
"328 103 CURVE",
"309 363 OFFCURVE",
"324 627 OFFCURVE",
"357 884 CURVE SMOOTH",
"379 1054 OFFCURVE",
"448 1153 OFFCURVE",
"567 1153 CURVE SMOOTH",
"614 1153 OFFCURVE",
"666 1139 OFFCURVE",
"710 1110 CURVE SMOOTH",
"755 1081 OFFCURVE",
"786 1070 OFFCURVE",
"807 1095 CURVE SMOOTH",
"823 1114 OFFCURVE",
"817 1149 OFFCURVE",
"781 1187 CURVE SMOOTH",
"732 1239 OFFCURVE",
"664 1273 OFFCURVE",
"567 1273 CURVE SMOOTH"
);
},
{
closed = 1;
nodes = (
"44 770 OFFCURVE",
"8 750 OFFCURVE",
"8 704 CURVE SMOOTH",
"8 662 OFFCURVE",
"40 644 OFFCURVE",
"90 648 CURVE SMOOTH",
"427 672 OFFCURVE",
"836 698 OFFCURVE",
"1237 688 CURVE SMOOTH",
"1337 686 OFFCURVE",
"1361 710 OFFCURVE",
"1361 748 CURVE SMOOTH",
"1361 788 OFFCURVE",
"1318 801 OFFCURVE",
"1260 802 CURVE SMOOTH",
"867 809 OFFCURVE",
"420 798 OFFCURVE",
"92 774 CURVE SMOOTH"
);
},
{
closed = 1;
nodes = (
"1017 1310 OFFCURVE",
"936 1116 OFFCURVE",
"894 880 CURVE SMOOTH",
"850 644 OFFCURVE",
"828 330 OFFCURVE",
"828 154 CURVE SMOOTH",
"828 28 OFFCURVE",
"842 -55 OFFCURVE",
"896 -55 CURVE SMOOTH",
"959 -55 OFFCURVE",
"959 -12 OFFCURVE",
"957 89 CURVE SMOOTH",
"953 339 OFFCURVE",
"983 632 OFFCURVE",
"1016 856 CURVE SMOOTH",
"1042 1048 OFFCURVE",
"1107 1190 OFFCURVE",
"1200 1190 CURVE SMOOTH",
"1247 1190 OFFCURVE",
"1286 1175 OFFCURVE",
"1341 1124 CURVE SMOOTH",
"1370 1097 OFFCURVE",
"1396 1085 OFFCURVE",
"1422 1104 CURVE SMOOTH",
"1445 1121 OFFCURVE",
"1446 1148 OFFCURVE",
"1428 1184 CURVE SMOOTH",
"1394 1254 OFFCURVE",
"1318 1310 OFFCURVE",
"1200 1310 CURVE SMOOTH"
);
}
);
width = 1360;
}
);
},
{
color = 7;
glyphname = lslash_lslash;
lastChange = "2019-03-29 08:55:40 +0000";
layers = (
{
components = (
{
name = l.base;
transform = "{1, 0, 0, 1, -16, 0}";
},
{
name = l.base;
transform = "{1, 0, 0, 1, 536, 0}";
}
);
layerId = master01;
paths = (
{
closed = 1;
nodes = (
"181 1346 OFFCURVE",
"256 1358 OFFCURVE",
"346 1358 CURVE SMOOTH",
"513 1358 OFFCURVE",
"672 1311 OFFCURVE",
"894 1311 CURVE SMOOTH",
"1012 1311 OFFCURVE",
"1119 1338 OFFCURVE",
"1151 1430 CURVE SMOOTH",
"1167 1477 OFFCURVE",
"1134 1503 OFFCURVE",
"1108 1503 CURVE SMOOTH",
"1062 1503 OFFCURVE",
"1055 1474 OFFCURVE",
"1024 1455 CURVE SMOOTH",
"993 1436 OFFCURVE",
"947 1430 OFFCURVE",
"899 1430 CURVE SMOOTH",
"682 1430 OFFCURVE",
"559 1478 OFFCURVE",
"354 1478 CURVE SMOOTH",
"233 1478 OFFCURVE",
"104 1452 OFFCURVE",
"31 1419 CURVE SMOOTH",
"-45 1385 OFFCURVE",
"-1 1280 OFFCURVE",
"90 1313 CURVE SMOOTH"
);
}
);
width = 1104;
}
);
},
{
color = 5;
glyphname = t_t;
lastChange = "2019-03-29 09:28:10 +0000";
layers = (
{
background = {
paths = (
{
closed = 1;
nodes = (
"878 988 OFFCURVE",
"881 932 OFFCURVE",
"858 765 CURVE SMOOTH",
"849 704 OFFCURVE",
"837 622 OFFCURVE",
"814 518 CURVE SMOOTH",
"794 428 OFFCURVE",
"765 314 OFFCURVE",
"762 235 CURVE SMOOTH",
"756 86 OFFCURVE",
"846 0 OFFCURVE",
"980 0 CURVE SMOOTH",
"1062 0 OFFCURVE",
"1140 36 OFFCURVE",
"1186 94 CURVE SMOOTH",
"1246 170 OFFCURVE",
"1164 236 OFFCURVE",
"1104 180 CURVE SMOOTH",
"1068 146 OFFCURVE",
"1030 120 OFFCURVE",
"980 120 CURVE SMOOTH",
"934 120 OFFCURVE",
"883 144 OFFCURVE",
"889 246 CURVE SMOOTH",
"893 315 OFFCURVE",
"910 371 OFFCURVE",
"927 450 CURVE SMOOTH",
"952 564 OFFCURVE",
"971 671 OFFCURVE",
"985 763 CURVE SMOOTH",
"1001 866 OFFCURVE",
"1010 966 OFFCURVE",
"1012 1026 CURVE",
"1028 1090 OFFCURVE",
"1000 1116 OFFCURVE",
"960 1116 CURVE SMOOTH",
"916 1116 OFFCURVE",
"888 1088 OFFCURVE",
"882 1028 CURVE SMOOTH"
);
},
{
closed = 1;
nodes = (
"181 752 OFFCURVE",
"140 478 OFFCURVE",
"133 285 CURVE SMOOTH",
"126 64 OFFCURVE",
"226 1 OFFCURVE",
"332 1 CURVE SMOOTH",
"417 1 OFFCURVE",
"513 23 OFFCURVE",
"590 80 CURVE SMOOTH",
"625 106 OFFCURVE",
"625 143 OFFCURVE",
"602 165 CURVE SMOOTH",
"576 190 OFFCURVE",
"524 170 OFFCURVE",
"473 118 CURVE",
"508 145 LINE",
"453 126 OFFCURVE",
"403 120 OFFCURVE",
"372 120 CURVE SMOOTH",
"302 120 OFFCURVE",
"263 174 OFFCURVE",
"267 283 CURVE SMOOTH",
"273 486 OFFCURVE",
"313 749 OFFCURVE",
"358 991 CURVE SMOOTH",
"376 1088 OFFCURVE",
"254 1100 OFFCURVE",
"235 1011 CURVE SMOOTH"
);
},
{
closed = 1;
nodes = (
"-24 739 OFFCURVE",
"-16 631 OFFCURVE",
"69 639 CURVE SMOOTH",
"445 674 OFFCURVE",
"821 693 OFFCURVE",
"1216 697 CURVE SMOOTH",
"1294 698 OFFCURVE",
"1308 817 OFFCURVE",
"1216 817 CURVE SMOOTH",
"889 817 OFFCURVE",
"390 786 OFFCURVE",
"65 749 CURVE SMOOTH"
);
}
);
};
components = (
{
name = init.t;
},
{
name = t.base;
transform = "{1, 0, 0, 1, 80, 0}";
},
{
name = conn.t.t;
transform = "{1, 0, 0, 1, 920, 0}";
},
{
name = t.base;
transform = "{1, 0, 0, 1, 920, 0}";
},
{
name = fina.t;
transform = "{1, 0, 0, 1, 1760, 0}";
}
);
layerId = master01;
width = 1784;
}
);
},
{
glyphname = ordfeminine;
layers = (
{
layerId = master01;
paths = (
{
closed = 1;
nodes = (
"277 1168 OFFCURVE",
"158 1062 OFFCURVE",
"100 918 CURVE SMOOTH",
"33 750 OFFCURVE",
"62 539 OFFCURVE",
"263 539 CURVE SMOOTH",
"399 539 OFFCURVE",
"487 641 OFFCURVE",
"534 753 CURVE",
"605 845 OFFCURVE",
"654 937 OFFCURVE",
"654 1016 CURVE SMOOTH",
"654 1055 OFFCURVE",
"645 1089 OFFCURVE",
"593 1089 CURVE SMOOTH",
"538 1089 OFFCURVE",
"519 1009 OFFCURVE",
"512 973 CURVE SMOOTH",
"497 903 OFFCURVE",
"502 838 OFFCURVE",
"504 789 CURVE SMOOTH",
"507 692 OFFCURVE",
"539 606 OFFCURVE",
"589 562 CURVE SMOOTH",
"614 540 OFFCURVE",
"646 529 OFFCURVE",
"671 529 CURVE SMOOTH",
"710 529 OFFCURVE",
"727 557 OFFCURVE",
"727 580 CURVE SMOOTH",
"727 616 OFFCURVE",
"697 634 OFFCURVE",
"677 650 CURVE SMOOTH",
"636 683 OFFCURVE",
"619 742 OFFCURVE",
"617 792 CURVE SMOOTH",
"614 879 OFFCURVE",
"635 946 OFFCURVE",
"642 1024 CURVE",
"537 1030 LINE",
"519 863 OFFCURVE",
"407 645 OFFCURVE",
"281 645 CURVE SMOOTH",
"188 645 OFFCURVE",
"178 778 OFFCURVE",
"228 900 CURVE SMOOTH",
"265 990 OFFCURVE",
"336 1064 OFFCURVE",
"444 1064 CURVE SMOOTH",
"494 1064 OFFCURVE",
"539 1049 OFFCURVE",
"563 1041 CURVE SMOOTH",
"639 1018 OFFCURVE",
"658 1100 OFFCURVE",
"589 1138 CURVE SMOOTH",
"556 1156 OFFCURVE",
"514 1168 OFFCURVE",
"448 1168 CURVE SMOOTH"
);
}
);
width = 776;
}
);
unicode = 00AA;
},
{
glyphname = ordmasculine;
layers = (
{
layerId = master01;
paths = (
{
closed = 1;
nodes = (
"241 1162 OFFCURVE",
"103 1048 OFFCURVE",
"80 877 CURVE SMOOTH",
"54 687 OFFCURVE",
"172 524 OFFCURVE",
"370 524 CURVE SMOOTH",
"562 524 OFFCURVE",
"647 647 OFFCURVE",
"672 727 CURVE SMOOTH",
"713 861 OFFCURVE",
"677 1012 OFFCURVE",
"574 1073 CURVE SMOOTH",
"499 1117 OFFCURVE",
"473 1053 OFFCURVE",
"528 985 CURVE SMOOTH",
"567 937 OFFCURVE",
"575 856 OFFCURVE",
"562 792 CURVE SMOOTH",
"538 674 OFFCURVE",
"463 635 OFFCURVE",
"378 635 CURVE SMOOTH",
"266 635 OFFCURVE",
"192 719 OFFCURVE",
"205 851 CURVE SMOOTH",
"215 954 OFFCURVE",
"301 1047 OFFCURVE",
"404 1047 CURVE SMOOTH",
"424 1047 OFFCURVE",
"456 1044 OFFCURVE",
"485 1032 CURVE SMOOTH",
"578 993 OFFCURVE",
"585 1094 OFFCURVE",
"541 1128 CURVE SMOOTH",
"511 1151 OFFCURVE",
"450 1162 OFFCURVE",
"406 1162 CURVE SMOOTH"
);
}
);
width = 784;
}
);
unicode = 00BA;
},
{
glyphname = nmod;
lastChange = "2019-03-29 09:27:15 +0000";
layers = (
{
layerId = master01;
paths = (
{
closed = 1;
nodes = (
"147 1183 OFFCURVE",
"134 1107 OFFCURVE",
"153 1047 CURVE",
"148 915 OFFCURVE",
"141 791 OFFCURVE",
"129 673 CURVE",
"106 616 OFFCURVE",
"106 541 OFFCURVE",
"182 541 CURVE SMOOTH",
"233 541 OFFCURVE",
"251 582 OFFCURVE",
"251 638 CURVE SMOOTH",
"251 655 OFFCURVE",
"249 675 OFFCURVE",
"248 695 CURVE SMOOTH",
"247 709 OFFCURVE",
"246 721 OFFCURVE",
"246 735 CURVE SMOOTH",
"246 801 OFFCURVE",
"253 895 OFFCURVE",
"266 991 CURVE SMOOTH",
"272 1034 OFFCURVE",
"277 1071 OFFCURVE",
"279 1116 CURVE SMOOTH",
"281 1156 OFFCURVE",
"265 1183 OFFCURVE",
"223 1183 CURVE SMOOTH"
);
},
{
closed = 1;
nodes = (
"741 1028 OFFCURVE",
"721 1174 OFFCURVE",
"563 1174 CURVE SMOOTH",
"520 1174 OFFCURVE",
"468 1162 OFFCURVE",
"418 1127 CURVE SMOOTH",
"317 1057 OFFCURVE",
"217 911 OFFCURVE",
"166 620 CURVE",
"242 598 LINE",
"271 874 OFFCURVE",
"443 1062 OFFCURVE",
"540 1062 CURVE SMOOTH",
"625 1062 OFFCURVE",
"605 942 OFFCURVE",
"597 889 CURVE SMOOTH",
"583 786 OFFCURVE",
"550 687 OFFCURVE",
"568 602 CURVE SMOOTH",
"579 550 OFFCURVE",
"623 527 OFFCURVE",
"662 527 CURVE SMOOTH",
"696 527 OFFCURVE",
"751 536 OFFCURVE",
"762 572 CURVE SMOOTH",
"773 607 OFFCURVE",
"754 634 OFFCURVE",
"641 665 CURVE",
"685 610 LINE",
"669 697 OFFCURVE",
"692 804 OFFCURVE",
"708 879 CURVE SMOOTH"
);
}
);
width = 872;
}
);
unicode = 207F;
},
{
glyphname = pi;
layers = (
{
layerId = master01;
paths = (
{
closed = 1;
nodes = (
"178 834 OFFCURVE",
"95 822 OFFCURVE",
"51 780 CURVE SMOOTH",
"-15 718 OFFCURVE",
"50 627 OFFCURVE",
"137 690 CURVE SMOOTH",
"158 705 OFFCURVE",
"190 711 OFFCURVE",
"232 711 CURVE SMOOTH",
"536 711 OFFCURVE",
"661 647 OFFCURVE",
"864 647 CURVE SMOOTH",
"1022 647 OFFCURVE",
"1073 683 OFFCURVE",
"1073 742 CURVE SMOOTH",
"1073 811 OFFCURVE",
"961 840 OFFCURVE",
"948 742 CURVE",
"1002 766 LINE",
"758 739 OFFCURVE",
"558 834 OFFCURVE",
"252 834 CURVE SMOOTH"
);
},
{
closed = 1;
nodes = (
"206 494 OFFCURVE",
"185 215 OFFCURVE",
"199 66 CURVE SMOOTH",
"204 13 OFFCURVE",
"230 -7 OFFCURVE",
"261 -7 CURVE SMOOTH",
"293 -7 OFFCURVE",
"326 14 OFFCURVE",
"326 76 CURVE SMOOTH",
"326 299 OFFCURVE",
"339 494 OFFCURVE",
"436 747 CURVE",
"329 769 LINE"
);
},
{
closed = 1;
nodes = (
"624 343 OFFCURVE",
"649 189 OFFCURVE",
"685 102 CURVE SMOOTH",
"723 11 OFFCURVE",
"787 -18 OFFCURVE",
"840 -18 CURVE SMOOTH",
"887 -18 OFFCURVE",
"950 -5 OFFCURVE",
"950 58 CURVE SMOOTH",
"950 100 OFFCURVE",
"897 133 OFFCURVE",
"825 88 CURVE",
"877 59 LINE",
"743 168 OFFCURVE",
"754 346 OFFCURVE",
"806 695 CURVE",
"692 701 LINE"
);
}
);
width = 1136;
}
);
unicode = 03C0;
},
{
glyphname = gscript;
lastChange = "2019-03-29 09:27:15 +0000";
layers = (
{
anchors = (
{
name = top;
position = "{516, 800}";
}
);
layerId = master01;
paths = (
{
closed = 1;
nodes = (
"356 818 OFFCURVE",
"196 736 OFFCURVE",
"120 518 CURVE SMOOTH",
"44 296 OFFCURVE",
"128 56 OFFCURVE",
"348 56 CURVE SMOOTH",
"564 56 OFFCURVE",
"730 296 OFFCURVE",
"812 598 CURVE",
"704 632 LINE",
"691 242 OFFCURVE",
"654 20 OFFCURVE",
"634 -64 CURVE SMOOTH",
"582 -283 OFFCURVE",
"473 -404 OFFCURVE",
"315 -404 CURVE SMOOTH",
"257 -404 OFFCURVE",
"197 -383 OFFCURVE",
"188 -330 CURVE SMOOTH",
"172 -236 OFFCURVE",
"287 -118 OFFCURVE",
"699 -72 CURVE",
"696 36 LINE",
"203 -10 OFFCURVE",
"7 -184 OFFCURVE",
"64 -376 CURVE SMOOTH",
"88 -456 OFFCURVE",
"171 -520 OFFCURVE",
"308 -520 CURVE SMOOTH",
"545 -520 OFFCURVE",
"707 -361 OFFCURVE",
"771 -30 CURVE SMOOTH",
"791 74 OFFCURVE",
"810 305 OFFCURVE",
"812 428 CURVE",
"846 494 OFFCURVE",
"858 552 OFFCURVE",
"858 592 CURVE SMOOTH",
"858 658 OFFCURVE",
"826 684 OFFCURVE",
"784 684 CURVE SMOOTH",
"708 684 OFFCURVE",
"690 602 OFFCURVE",
"688 540 CURVE",
"654 370 OFFCURVE",
"520 178 OFFCURVE",
"372 178 CURVE SMOOTH",
"228 178 OFFCURVE",
"192 336 OFFCURVE",
"256 506 CURVE SMOOTH",
"300 628 OFFCURVE",
"388 700 OFFCURVE",
"480 700 CURVE SMOOTH",
"538 700 OFFCURVE",
"596 682 OFFCURVE",
"632 656 CURVE",
"658 620 OFFCURVE",
"682 608 OFFCURVE",
"718 608 CURVE SMOOTH",
"756 608 OFFCURVE",
"776 636 OFFCURVE",
"776 658 CURVE SMOOTH",
"776 692 OFFCURVE",
"752 716 OFFCURVE",
"730 734 CURVE SMOOTH",
"684 772 OFFCURVE",
"596 818 OFFCURVE",
"490 818 CURVE SMOOTH"
);
},
{
closed = 1;
nodes = (
"730 270 LINE",
"730 350 LINE",
"652 350 LINE",
"653 283 LINE"
);
},
{
closed = 1;
nodes = (
"810 -63 OFFCURVE",
"857 -52 OFFCURVE",
"857 -4 CURVE SMOOTH",
"857 45 OFFCURVE",
"809 44 OFFCURVE",
"770 42 CURVE",
"759 -70 LINE"
);
}
);
width = 1008;
}
);
unicode = 210A;
},
{
glyphname = zero;
layers = (
{
layerId = master01;
paths = (
{
closed = 1;
nodes = (
"362 1146 OFFCURVE",
"92 963 OFFCURVE",
"50 557 CURVE SMOOTH",
"18 248 OFFCURVE",
"127 0 OFFCURVE",
"392 0 CURVE SMOOTH",
"596 0 OFFCURVE",
"819 156 OFFCURVE",
"875 487 CURVE SMOOTH",
"929 804 OFFCURVE",
"811 994 OFFCURVE",
"681 1084 CURVE SMOOTH",
"654 1103 OFFCURVE",
"611 1127 OFFCURVE",
"578 1127 CURVE SMOOTH",
"540 1127 OFFCURVE",
"512 1099 OFFCURVE",
"512 1068 CURVE SMOOTH",
"512 1049 OFFCURVE",
"522 1030 OFFCURVE",
"547 1015 CURVE",
"565 1005 OFFCURVE",
"585 999 OFFCURVE",
"601 986 CURVE SMOOTH",
"694 913 OFFCURVE",
"770 769 OFFCURVE",
"745 534 CURVE SMOOTH",
"719 295 OFFCURVE",
"581 120 OFFCURVE",
"394 120 CURVE SMOOTH",
"175 120 OFFCURVE",
"159 397 OFFCURVE",
"186 576 CURVE SMOOTH",
"217 779 OFFCURVE",
"303 915 OFFCURVE",
"409 980 CURVE SMOOTH",
"476 1021 OFFCURVE",
"523 1026 OFFCURVE",
"594 1034 CURVE SMOOTH",
"640 1040 OFFCURVE",
"640 1054 OFFCURVE",
"640 1083 CURVE SMOOTH",
"640 1130 OFFCURVE",
"580 1146 OFFCURVE",
"534 1146 CURVE SMOOTH"
);
}
);
width = 1000;
}
);
unicode = 0030;
},
{
glyphname = zero.ss01;
layers = (
{
layerId = master01;
paths = (
{
closed = 1;
nodes = (
"255 873 OFFCURVE",
"117 686 OFFCURVE",
"81 471 CURVE SMOOTH",
"36 203 OFFCURVE",
"167 -23 OFFCURVE",
"422 -23 CURVE SMOOTH",
"647 -23 OFFCURVE",
"815 134 OFFCURVE",
"853 374 CURVE SMOOTH",
"896 642 OFFCURVE",
"778 873 OFFCURVE",
"509 873 CURVE SMOOTH"
);
},
{
closed = 1;
nodes = (
"684 753 OFFCURVE",
"747 579 OFFCURVE",
"709 372 CURVE SMOOTH",
"682 225 OFFCURVE",
"598 97 OFFCURVE",
"434 97 CURVE SMOOTH",
"240 97 OFFCURVE",
"190 269 OFFCURVE",
"220 449 CURVE SMOOTH",
"246 606 OFFCURVE",
"330 753 OFFCURVE",
"497 753 CURVE SMOOTH"
);
}
);
width = 1000;
}
);
},
{
glyphname = zero.tf;
layers = (
{
layerId = master01;
paths = (
{
closed = 1;
nodes = (
"320 1268 OFFCURVE",
"88 1025 OFFCURVE",
"57 617 CURVE SMOOTH",
"27 224 OFFCURVE",
"160 -20 OFFCURVE",
"409 -20 CURVE SMOOTH",
"713 -20 OFFCURVE",
"870 278 OFFCURVE",
"892 570 CURVE SMOOTH",
"905 749 OFFCURVE",
"880 889 OFFCURVE",
"853 951 CURVE SMOOTH",
"815 1037 OFFCURVE",
"727 1008 OFFCURVE",
"738 939 CURVE SMOOTH",
"761 796 OFFCURVE",
"755 671 OFFCURVE",
"749 585 CURVE SMOOTH",
"736 403 OFFCURVE",
"678 267 OFFCURVE",
"602 187 CURVE SMOOTH",
"545 127 OFFCURVE",
"485 100 OFFCURVE",
"415 100 CURVE SMOOTH",
"239 100 OFFCURVE",
"176 386 OFFCURVE",
"205 642 CURVE SMOOTH",
"246 990 OFFCURVE",
"417 1148 OFFCURVE",
"548 1148 CURVE SMOOTH",
"652 1148 OFFCURVE",
"700 1053 OFFCURVE",
"725 963 CURVE SMOOTH",
"756 851 OFFCURVE",
"890 891 OFFCURVE",
"856 1017 CURVE SMOOTH",
"827 1123 OFFCURVE",
"758 1268 OFFCURVE",
"563 1268 CURVE SMOOTH"
);
}
);
width = 1000;
}
);
},
{
glyphname = one;
layers = (
{
layerId = master01;
paths = (
{
closed = 1;
nodes = (
"241 746 OFFCURVE",
"301 807 OFFCURVE",
"366 880 CURVE SMOOTH",
"419 939 OFFCURVE",
"476 1006 OFFCURVE",
"511 1059 CURVE",
"430 1080 LINE",
"425 915 OFFCURVE",
"413 749 OFFCURVE",
"404 584 CURVE SMOOTH",
"394 411 OFFCURVE",
"373 226 OFFCURVE",
"365 63 CURVE SMOOTH",
"361 -35 OFFCURVE",
"498 -33 OFFCURVE",
"501 62 CURVE SMOOTH",
"509 283 OFFCURVE",
"524 473 OFFCURVE",
"538 741 CURVE SMOOTH",
"546 891 OFFCURVE",
"560 1029 OFFCURVE",
"553 1086 CURVE SMOOTH",
"548 1126 OFFCURVE",
"522 1146 OFFCURVE",
"491 1146 CURVE SMOOTH",
"429 1146 OFFCURVE",
"368 1035 OFFCURVE",
"322 993 CURVE SMOOTH",
"245 921 OFFCURVE",
"165 853 OFFCURVE",
"95 789 CURVE SMOOTH",
"17 718 OFFCURVE",
"121 606 OFFCURVE",
"199 697 CURVE SMOOTH"
);
},
{
closed = 1;
nodes = (
"466 911 LINE",
"466 991 LINE",
"402 991 LINE",
"401 934 LINE"
);
}
);
width = 784;
}
);
unicode = 0031;
},
{
glyphname = one.latn_DEU;
layers = (
{
layerId = master01;
paths = (
{
closed = 1;
nodes = (
"322 885 OFFCURVE",
"123 648 OFFCURVE",
"56 512 CURVE SMOOTH",
"39 477 OFFCURVE",
"38 438 OFFCURVE",
"62 417 CURVE SMOOTH",
"105 379 OFFCURVE",
"204 428 OFFCURVE",
"188 588 CURVE",
"141 440 LINE",
"283 646 OFFCURVE",
"460 873 OFFCURVE",
"664 1041 CURVE",
"596 1020 LINE",
"584 865 OFFCURVE",
"574 719 OFFCURVE",
"562 589 CURVE SMOOTH",
"547 422 OFFCURVE",
"518 191 OFFCURVE",
"518 101 CURVE SMOOTH",
"518 26 OFFCURVE",
"540 -13 OFFCURVE",
"596 -13 CURVE SMOOTH",
"626 -13 OFFCURVE",
"643 9 OFFCURVE",
"646 49 CURVE SMOOTH",
"659 226 OFFCURVE",
"674 407 OFFCURVE",
"688 579 CURVE SMOOTH",
"701 741 OFFCURVE",
"717 905 OFFCURVE",
"719 1044 CURVE SMOOTH",
"720 1102 OFFCURVE",
"701 1144 OFFCURVE",
"649 1144 CURVE SMOOTH",
"597 1144 OFFCURVE",
"529 1077 OFFCURVE",
"496 1047 CURVE SMOOTH"
);
}
);
width = 880;
}
);
},
{
glyphname = one.latn_ENG;
layers = (
{
layerId = master01;
paths = (
{
closed = 1;
nodes = (
"210 243 OFFCURVE",
"218 426 OFFCURVE",
"222 500 CURVE SMOOTH",
"228 600 OFFCURVE",
"233 731 OFFCURVE",
"238 811 CURVE SMOOTH",
"241 864 OFFCURVE",
"248 1012 OFFCURVE",
"249 1056 CURVE SMOOTH",
"250 1113 OFFCURVE",
"227 1143 OFFCURVE",
"192 1143 CURVE SMOOTH",
"147 1143 OFFCURVE",
"123 1108 OFFCURVE",
"119 1056 CURVE SMOOTH",
"106 898 OFFCURVE",
"99 770 OFFCURVE",
"90 608 CURVE SMOOTH",
"80 430 OFFCURVE",
"70 237 OFFCURVE",
"70 95 CURVE SMOOTH",
"70 20 OFFCURVE",
"95 -12 OFFCURVE",
"146 -12 CURVE SMOOTH",
"215 -12 OFFCURVE",
"244 46 OFFCURVE",
"190 170 CURVE",
"210 87 LINE"
);
}
);
width = 400;
}
);
},
{
glyphname = one.latn_ENG.lf;
layers = (
{
layerId = master01;
paths = (
{
closed = 1;
nodes = (
"216 243 OFFCURVE",
"224 426 OFFCURVE",
"228 500 CURVE SMOOTH",
"234 600 OFFCURVE",
"240 731 OFFCURVE",
"244 811 CURVE SMOOTH",
"250 923 OFFCURVE",
"259 1070 OFFCURVE",
"261 1139 CURVE SMOOTH",
"263 1196 OFFCURVE",
"239 1226 OFFCURVE",
"196 1226 CURVE SMOOTH",
"153 1226 OFFCURVE",
"129 1191 OFFCURVE",
"125 1139 CURVE SMOOTH",
"112 981 OFFCURVE",
"105 770 OFFCURVE",
"96 608 CURVE SMOOTH",
"86 430 OFFCURVE",
"76 237 OFFCURVE",
"76 95 CURVE SMOOTH",
"76 20 OFFCURVE",
"101 -12 OFFCURVE",
"152 -12 CURVE SMOOTH",
"221 -12 OFFCURVE",
"250 46 OFFCURVE",
"196 170 CURVE",
"216 87 LINE"
);
}
);
width = 400;
}
);
},
{
glyphname = one.lf;
layers = (
{
layerId = master01;
paths = (
{
closed = 1;
nodes = (
"257 853 OFFCURVE",
"317 914 OFFCURVE",
"382 987 CURVE SMOOTH",
"435 1046 OFFCURVE",
"492 1113 OFFCURVE",
"527 1166 CURVE",
"446 1187 LINE",
"433 792 OFFCURVE",
"406 420 OFFCURVE",
"372 62 CURVE SMOOTH",
"362 -41 OFFCURVE",
"499 -35 OFFCURVE",
"507 53 CURVE SMOOTH",
"528 282 OFFCURVE",
"548 582 OFFCURVE",
"562 850 CURVE SMOOTH",
"570 1000 OFFCURVE",
"576 1136 OFFCURVE",
"569 1193 CURVE SMOOTH",
"564 1233 OFFCURVE",
"538 1253 OFFCURVE",
"507 1253 CURVE SMOOTH",
"445 1253 OFFCURVE",
"384 1142 OFFCURVE",
"338 1100 CURVE SMOOTH",
"261 1028 OFFCURVE",
"181 960 OFFCURVE",
"111 896 CURVE SMOOTH",
"33 825 OFFCURVE",
"137 713 OFFCURVE",
"215 804 CURVE SMOOTH"
);
},
{
closed = 1;
nodes = (
"482 1018 LINE",
"482 1098 LINE",
"418 1098 LINE",
"417 1041 LINE"
);
}
);
width = 784;
}
);
},
{
glyphname = one.ss01;
layers = (
{
layerId = master01;
paths = (
{
closed = 1;
nodes = (
"338 784 LINE",
"335 603 OFFCURVE",
"321 353 OFFCURVE",
"293 55 CURVE SMOOTH",
"284 -40 OFFCURVE",
"420 -57 OFFCURVE",
"429 55 CURVE SMOOTH",
"451 319 OFFCURVE",
"468 601 OFFCURVE",
"470 781 CURVE SMOOTH",
"470 831 OFFCURVE",
"441 876 OFFCURVE",
"358 840 CURVE SMOOTH",
"95 724 LINE SMOOTH",
"10 687 OFFCURVE",
"50 572 OFFCURVE",
"144 614 CURVE SMOOTH",
"405 730 LINE"
);
}
);
width = 688;
}
);
},
{
glyphname = one.tf;
layers = (
{
layerId = master01;
paths = (
{
closed = 1;
nodes = (
"293 853 OFFCURVE",
"353 914 OFFCURVE",
"418 987 CURVE SMOOTH",
"471 1046 OFFCURVE",
"528 1113 OFFCURVE",
"563 1166 CURVE",
"482 1187 LINE",
"469 792 OFFCURVE",
"443 421 OFFCURVE",
"407 53 CURVE",
"543 53 LINE",
"566 282 OFFCURVE",
"584 582 OFFCURVE",
"598 850 CURVE SMOOTH",
"606 1000 OFFCURVE",
"612 1136 OFFCURVE",
"605 1193 CURVE SMOOTH",
"600 1233 OFFCURVE",
"574 1253 OFFCURVE",
"543 1253 CURVE SMOOTH",
"481 1253 OFFCURVE",
"420 1142 OFFCURVE",
"374 1100 CURVE SMOOTH",
"297 1028 OFFCURVE",
"217 960 OFFCURVE",
"147 896 CURVE SMOOTH",
"69 825 OFFCURVE",
"173 713 OFFCURVE",
"251 804 CURVE SMOOTH"
);
},
{
closed = 1;
nodes = (
"373 2 OFFCURVE",
"573 4 OFFCURVE",
"773 4 CURVE SMOOTH",
"866 4 OFFCURVE",
"866 124 OFFCURVE",
"773 124 CURVE SMOOTH",
"555 124 OFFCURVE",
"326 123 OFFCURVE",
"180 98 CURVE SMOOTH",
"73 80 OFFCURVE",
"92 -18 OFFCURVE",
"169 -13 CURVE SMOOTH"
);
},
{
closed = 1;
nodes = (
"518 1018 LINE",
"518 1098 LINE",
"454 1098 LINE",
"453 1041 LINE"
);
}
);
width = 1000;
}
);
},
{
glyphname = one.tosf;
layers = (
{
layerId = master01;
paths = (
{
closed = 1;
nodes = (
"275 746 OFFCURVE",
"335 807 OFFCURVE",
"400 880 CURVE SMOOTH",
"453 939 OFFCURVE",
"510 1006 OFFCURVE",
"545 1059 CURVE",
"464 1080 LINE",
"459 915 OFFCURVE",
"447 749 OFFCURVE",
"438 584 CURVE SMOOTH",
"428 411 OFFCURVE",
"405 226 OFFCURVE",
"399 53 CURVE",
"535 53 LINE",
"544 283 OFFCURVE",
"558 473 OFFCURVE",
"572 741 CURVE SMOOTH",
"580 891 OFFCURVE",
"594 1029 OFFCURVE",
"587 1086 CURVE SMOOTH",
"582 1126 OFFCURVE",
"556 1146 OFFCURVE",
"525 1146 CURVE SMOOTH",
"463 1146 OFFCURVE",
"402 1035 OFFCURVE",
"356 993 CURVE SMOOTH",
"279 921 OFFCURVE",
"199 853 OFFCURVE",
"129 789 CURVE SMOOTH",
"51 718 OFFCURVE",
"155 606 OFFCURVE",
"233 697 CURVE SMOOTH"
);
},
{
closed = 1;
nodes = (
"218 -13 OFFCURVE",
"298 -4 OFFCURVE",
"384 -1 CURVE SMOOTH",
"511 3 OFFCURVE",
"638 4 OFFCURVE",
"765 4 CURVE SMOOTH",
"858 4 OFFCURVE",
"858 124 OFFCURVE",
"765 124 CURVE SMOOTH",
"547 124 OFFCURVE",
"318 119 OFFCURVE",
"176 88 CURVE SMOOTH",
"61 63 OFFCURVE",
"88 -35 OFFCURVE",
"164 -22 CURVE SMOOTH"
);
},
{
closed = 1;
nodes = (
"500 911 LINE",
"500 991 LINE",
"436 991 LINE",
"435 934 LINE"
);
}
);
width = 1000;
}
);
},
{
glyphname = one.tosf.ss01;
layers = (
{
layerId = master01;
paths = (
{
closed = 1;
nodes = (
"447 603 OFFCURVE",
"431 342 OFFCURVE",
"404 44 CURVE",
"540 44 LINE",
"562 308 OFFCURVE",
"580 601 OFFCURVE",
"582 781 CURVE",
"450 784 LINE"
);
},
{
closed = 1;
nodes = (
"848 831 OFFCURVE",
"817 855 OFFCURVE",
"772 854 CURVE SMOOTH",
"273 845 LINE SMOOTH",
"141 843 OFFCURVE",
"167 716 OFFCURVE",
"251 718 CURVE SMOOTH",
"774 732 LINE SMOOTH",
"817 733 OFFCURVE",
"848 756 OFFCURVE",
"848 796 CURVE SMOOTH"
);
},
{
closed = 1;
nodes = (
"234 -10 OFFCURVE",
"303 -13 OFFCURVE",
"389 -10 CURVE SMOOTH",
"516 -6 OFFCURVE",
"643 -5 OFFCURVE",
"770 -5 CURVE SMOOTH",
"863 -5 OFFCURVE",
"863 115 OFFCURVE",
"770 115 CURVE SMOOTH",
"552 115 OFFCURVE",
"337 111 OFFCURVE",
"180 97 CURVE SMOOTH",
"81 88 OFFCURVE",
"91 -17 OFFCURVE",
"168 -13 CURVE SMOOTH"
);
}
);
width = 1000;
}
);
},
{
glyphname = two;
layers = (
{
layerId = master01;
paths = (
{
closed = 1;
nodes = (
"385 1156 OFFCURVE",
"169 1075 OFFCURVE",
"137 864 CURVE SMOOTH",
"119 747 OFFCURVE",
"163 666 OFFCURVE",
"229 666 CURVE SMOOTH",
"300 666 OFFCURVE",
"324 771 OFFCURVE",
"243 844 CURVE",
"253 754 LINE",
"251 948 OFFCURVE",
"361 1038 OFFCURVE",
"508 1038 CURVE SMOOTH",
"699 1038 OFFCURVE",
"699 885 OFFCURVE",
"664 770 CURVE SMOOTH",
"614 607 OFFCURVE",
"485 470 OFFCURVE",
"374 374 CURVE SMOOTH",
"288 299 OFFCURVE",
"126 166 OFFCURVE",
"55 117 CURVE",
"-6 88 OFFCURVE",
"-6 -12 OFFCURVE",
"136 -12 CURVE SMOOTH",
"175 -12 OFFCURVE",
"219 -8 OFFCURVE",
"271 0 CURVE",
"433 2 OFFCURVE",
"596 4 OFFCURVE",
"758 11 CURVE SMOOTH",
"852 15 OFFCURVE",
"843 128 OFFCURVE",
"769 128 CURVE SMOOTH",
"583 128 OFFCURVE",
"332 117 OFFCURVE",
"129 99 CURVE",
"136 59 LINE",
"236 121 OFFCURVE",
"345 206 OFFCURVE",
"436 280 CURVE SMOOTH",
"601 415 OFFCURVE",
"737 573 OFFCURVE",
"797 745 CURVE SMOOTH",
"883 992 OFFCURVE",
"764 1156 OFFCURVE",
"531 1156 CURVE SMOOTH"
);
}
);
width = 1000;
}
);
unicode = 0032;
},
{
glyphname = two.ss01;
layers = (
{
layerId = master01;
paths = (
{
closed = 1;
nodes = (
"393 151 OFFCURVE",
"565 -33 OFFCURVE",
"792 -25 CURVE SMOOTH",
"828 -24 OFFCURVE",
"887 -8 OFFCURVE",
"918 23 CURVE SMOOTH",
"947 51 OFFCURVE",
"957 93 OFFCURVE",
"937 115 CURVE SMOOTH",
"909 146 OFFCURVE",
"849 95 OFFCURVE",
"771 95 CURVE SMOOTH",
"562 95 OFFCURVE",
"467 263 OFFCURVE",
"257 263 CURVE SMOOTH",
"147 263 OFFCURVE",
"58 208 OFFCURVE",
"47 131 CURVE SMOOTH",
"34 39 OFFCURVE",
"105 -16 OFFCURVE",
"207 -16 CURVE SMOOTH",
"478 -16 OFFCURVE",
"753 268 OFFCURVE",
"822 513 CURVE SMOOTH",
"874 699 OFFCURVE",
"772 883 OFFCURVE",
"510 883 CURVE SMOOTH",
"279 883 OFFCURVE",
"165 756 OFFCURVE",
"144 641 CURVE SMOOTH",
"128 552 OFFCURVE",
"165 482 OFFCURVE",
"241 482 CURVE SMOOTH",
"368 482 OFFCURVE",
"356 633 OFFCURVE",
"238 631 CURVE",
"246 591 LINE",
"279 700 OFFCURVE",
"358 763 OFFCURVE",
"499 763 CURVE SMOOTH",
"644 763 OFFCURVE",
"709 686 OFFCURVE",
"692 562 CURVE SMOOTH",
"659 320 OFFCURVE",
"388 80 OFFCURVE",
"213 80 CURVE SMOOTH",
"181 80 OFFCURVE",
"175 97 OFFCURVE",
"175 108 CURVE SMOOTH",
"175 133 OFFCURVE",
"208 151 OFFCURVE",
"257 151 CURVE SMOOTH"
);
}
);
width = 1040;
}
);
},
{
glyphname = two.tf;
layers = (
{
layerId = master01;
paths = (
{
closed = 1;
nodes = (
"303 1270 OFFCURVE",
"144 1152 OFFCURVE",
"117 978 CURVE SMOOTH",
"100 867 OFFCURVE",
"142 817 OFFCURVE",
"194 817 CURVE SMOOTH",
"270 817 OFFCURVE",
"292 913 OFFCURVE",
"208 1002 CURVE",
"230 876 LINE",
"227 1048 OFFCURVE",
"325 1152 OFFCURVE",
"495 1152 CURVE SMOOTH",
"727 1152 OFFCURVE",
"741 972 OFFCURVE",
"718 854 CURVE SMOOTH",
"678 651 OFFCURVE",
"515 497 OFFCURVE",
"404 401 CURVE SMOOTH",
"318 326 OFFCURVE",
"132 178 OFFCURVE",
"60 131 CURVE",
"-14 107 OFFCURVE",
"-28 80 OFFCURVE",
"-23 48 CURVE SMOOTH",
"-15 -1 OFFCURVE",
"48 -8 OFFCURVE",
"111 3 CURVE",
"281 13 OFFCURVE",
"592 1 OFFCURVE",
"760 -3 CURVE SMOOTH",
"854 -5 OFFCURVE",
"849 112 OFFCURVE",
"775 118 CURVE SMOOTH",
"608 132 OFFCURVE",
"326 126 OFFCURVE",
"126 100 CURVE",
"135 77 LINE",
"238 129 OFFCURVE",
"333 182 OFFCURVE",
"474 297 CURVE SMOOTH",
"639 432 OFFCURVE",
"809 608 OFFCURVE",
"857 829 CURVE SMOOTH",
"913 1085 OFFCURVE",
"792 1270 OFFCURVE",
"510 1270 CURVE SMOOTH"
);
}
);
width = 1000;
}
);
},
{
glyphname = three;
layers = (
{
layerId = master01;
paths = (
{
closed = 1;
nodes = (
"351 1180 OFFCURVE",
"241 1125 OFFCURVE",
"180 1064 CURVE SMOOTH",
"121 1005 OFFCURVE",
"114 958 OFFCURVE",
"141 945 CURVE SMOOTH",
"164 934 OFFCURVE",
"190 946 OFFCURVE",
"222 969 CURVE SMOOTH",
"274 1007 OFFCURVE",
"369 1060 OFFCURVE",
"486 1060 CURVE SMOOTH",
"634 1060 OFFCURVE",
"688 998 OFFCURVE",
"691 914 CURVE SMOOTH",
"696 782 OFFCURVE",
"520 682 OFFCURVE",
"396 654 CURVE",
"358 655 OFFCURVE",
"320 653 OFFCURVE",
"286 637 CURVE SMOOTH",
"214 603 OFFCURVE",
"243 516 OFFCURVE",
"315 516 CURVE SMOOTH",
"347 516 OFFCURVE",
"384 522 OFFCURVE",
"437 546 CURVE",
"650 488 OFFCURVE",
"681 339 OFFCURVE",
"650 232 CURVE SMOOTH",
"611 97 OFFCURVE",
"513 25 OFFCURVE",
"290 -2 CURVE SMOOTH",
"191 -14 OFFCURVE",
"95 -13 OFFCURVE",
"74 -15 CURVE SMOOTH",
"9 -20 OFFCURVE",
"14 -77 OFFCURVE",
"52 -95 CURVE SMOOTH",
"98 -117 OFFCURVE",
"174 -124 OFFCURVE",
"231 -124 CURVE SMOOTH",
"525 -124 OFFCURVE",
"728 3 OFFCURVE",
"779 200 CURVE SMOOTH",
"815 338 OFFCURVE",
"781 582 OFFCURVE",
"440 628 CURVE",
"448 584 LINE",
"637 628 OFFCURVE",
"779 740 OFFCURVE",
"818 865 CURVE SMOOTH",
"873 1044 OFFCURVE",
"741 1180 OFFCURVE",
"496 1180 CURVE SMOOTH"
);
}
);
width = 1000;
}
);
unicode = 0033;
},
{
glyphname = three.ss01;
layers = (
{
layerId = master01;
paths = (
{
closed = 1;
nodes = (
"71 870 OFFCURVE",
"54 754 OFFCURVE",
"155 743 CURVE SMOOTH",
"289 729 OFFCURVE",
"495 734 OFFCURVE",
"663 762 CURVE",
"623 787 LINE",
"532 664 OFFCURVE",
"393 535 OFFCURVE",
"294 457 CURVE",
"181 478 OFFCURVE",
"152 418 OFFCURVE",
"152 384 CURVE SMOOTH",
"152 324 OFFCURVE",
"222 295 OFFCURVE",
"315 334 CURVE",
"521 292 OFFCURVE",
"575 206 OFFCURVE",
"556 97 CURVE SMOOTH",
"533 -31 OFFCURVE",
"402 -126 OFFCURVE",
"191 -163 CURVE SMOOTH",
"139 -172 OFFCURVE",
"81 -180 OFFCURVE",
"38 -184 CURVE SMOOTH",
"-27 -190 OFFCURVE",
"-16 -245 OFFCURVE",
"22 -263 CURVE SMOOTH",
"68 -285 OFFCURVE",
"162 -286 OFFCURVE",
"266 -266 CURVE SMOOTH",
"475 -226 OFFCURVE",
"663 -107 OFFCURVE",
"699 72 CURVE SMOOTH",
"739 271 OFFCURVE",
"615 393 OFFCURVE",
"350 426 CURVE",
"358 382 LINE",
"504 473 OFFCURVE",
"659 614 OFFCURVE",
"742 743 CURVE SMOOTH",
"776 796 OFFCURVE",
"761 867 OFFCURVE",
"654 863 CURVE SMOOTH",
"485 857 OFFCURVE",
"324 854 OFFCURVE",
"155 865 CURVE SMOOTH"
);
}
);
width = 872;
}
);
},
{
glyphname = three.tf;
layers = (
{
layerId = master01;
paths = (
{
closed = 1;
nodes = (
"352 1263 OFFCURVE",
"218 1209 OFFCURVE",
"158 1129 CURVE SMOOTH",
"131 1092 OFFCURVE",
"133 1046 OFFCURVE",
"161 1029 CURVE SMOOTH",
"198 1007 OFFCURVE",
"272 1027 OFFCURVE",
"308 1133 CURVE",
"215 1061 LINE",
"282 1115 OFFCURVE",
"400 1143 OFFCURVE",
"509 1143 CURVE SMOOTH",
"647 1143 OFFCURVE",
"732 1081 OFFCURVE",
"731 988 CURVE SMOOTH",
"730 851 OFFCURVE",
"569 749 OFFCURVE",
"449 704 CURVE",
"344 720 OFFCURVE",
"261 695 OFFCURVE",
"283 615 CURVE SMOOTH",
"304 539 OFFCURVE",
"415 557 OFFCURVE",
"490 596 CURVE",
"640 539 OFFCURVE",
"714 415 OFFCURVE",
"684 276 CURVE SMOOTH",
"655 141 OFFCURVE",
"530 76 OFFCURVE",
"366 76 CURVE SMOOTH",
"253 76 OFFCURVE",
"174 123 OFFCURVE",
"107 163 CURVE SMOOTH",
"42 202 OFFCURVE",
"4 189 OFFCURVE",
"16 139 CURVE SMOOTH",
"37 52 OFFCURVE",
"191 -44 OFFCURVE",
"379 -44 CURVE SMOOTH",
"574 -44 OFFCURVE",
"774 45 OFFCURVE",
"819 254 CURVE SMOOTH",
"857 430 OFFCURVE",
"783 636 OFFCURVE",
"491 684 CURVE",
"498 639 LINE",
"728 703 OFFCURVE",
"834 824 OFFCURVE",
"858 948 CURVE SMOOTH",
"894 1132 OFFCURVE",
"758 1263 OFFCURVE",
"507 1263 CURVE SMOOTH"
);
}
);
width = 1000;
}
);
},
{
glyphname = four;
layers = (
{
layerId = master01;
paths = (
{
closed = 1;
nodes = (
"233 871 OFFCURVE",
"141 619 OFFCURVE",
"53 377 CURVE",
"7 305 OFFCURVE",
"43 254 OFFCURVE",
"142 265 CURVE SMOOTH",
"367 291 OFFCURVE",
"625 298 OFFCURVE",
"848 289 CURVE SMOOTH",
"926 286 OFFCURVE",
"932 389 OFFCURVE",
"843 398 CURVE SMOOTH",
"605 422 OFFCURVE",
"337 412 OFFCURVE",
"109 370 CURVE",
"145 296 LINE",
"252 564 OFFCURVE",
"343 785 OFFCURVE",
"473 1045 CURVE",
"490 1070 OFFCURVE",
"500 1087 OFFCURVE",
"504 1114 CURVE SMOOTH",
"510 1159 OFFCURVE",
"470 1184 OFFCURVE",
"435 1184 CURVE SMOOTH",
"399 1184 OFFCURVE",
"373 1154 OFFCURVE",
"359 1125 CURVE SMOOTH"
);
},
{
closed = 1;
nodes = (
"522 620 OFFCURVE",
"495 426 OFFCURVE",
"476 260 CURVE SMOOTH",
"469 196 OFFCURVE",
"457 136 OFFCURVE",
"457 83 CURVE SMOOTH",
"457 11 OFFCURVE",
"491 -22 OFFCURVE",
"540 -22 CURVE SMOOTH",
"591 -22 OFFCURVE",
"636 16 OFFCURVE",
"603 91 CURVE",
"620 366 OFFCURVE",
"670 650 OFFCURVE",
"670 790 CURVE SMOOTH",
"670 890 OFFCURVE",
"555 885 OFFCURVE",
"544 795 CURVE SMOOTH"
);
}
);
width = 1000;
}
);
unicode = 0034;
},
{
glyphname = four.ss01;
layers = (
{
layerId = master01;
paths = (
{
closed = 1;
nodes = (
"345 635 OFFCURVE",
"157 412 OFFCURVE",
"36 191 CURVE SMOOTH",
"7 138 OFFCURVE",
"21 82 OFFCURVE",
"85 76 CURVE SMOOTH",
"326 55 OFFCURVE",
"670 45 OFFCURVE",
"873 73 CURVE SMOOTH",
"963 85 OFFCURVE",
"964 193 OFFCURVE",
"869 186 CURVE SMOOTH",
"618 167 OFFCURVE",
"311 171 OFFCURVE",
"92 184 CURVE",
"143 110 LINE",
"258 326 OFFCURVE",
"480 611 OFFCURVE",
"688 766 CURVE",
"600 798 LINE",
"594 611 OFFCURVE",
"553 176 OFFCURVE",
"545 88 CURVE SMOOTH",
"531 -64 OFFCURVE",
"511 -131 OFFCURVE",
"511 -195 CURVE SMOOTH",
"511 -256 OFFCURVE",
"539 -282 OFFCURVE",
"581 -282 CURVE SMOOTH",
"633 -282 OFFCURVE",
"655 -241 OFFCURVE",
"662 -169 CURVE SMOOTH",
"689 105 OFFCURVE",
"718 535 OFFCURVE",
"732 777 CURVE",
"760 891 OFFCURVE",
"658 885 OFFCURVE",
"605 843 CURVE SMOOTH"
);
}
);
width = 1024;
}
);
},
{
glyphname = four.tf;
layers = (
{
layerId = master01;
paths = (
{
closed = 1;
nodes = (
"224 962 OFFCURVE",
"124 712 OFFCURVE",
"32 457 CURVE",
"-15 392 OFFCURVE",
"21 336 OFFCURVE",
"108 347 CURVE SMOOTH",
"335 374 OFFCURVE",
"643 369 OFFCURVE",
"847 369 CURVE SMOOTH",
"946 369 OFFCURVE",
"939 470 OFFCURVE",
"852 478 CURVE SMOOTH",
"684 494 OFFCURVE",
"497 497 OFFCURVE",
"306 479 CURVE SMOOTH",
"232 473 OFFCURVE",
"150 463 OFFCURVE",
"88 450 CURVE",
"124 376 LINE",
"227 640 OFFCURVE",
"330 865 OFFCURVE",
"452 1125 CURVE",
"469 1150 OFFCURVE",
"479 1167 OFFCURVE",
"483 1194 CURVE SMOOTH",
"489 1239 OFFCURVE",
"449 1264 OFFCURVE",
"414 1264 CURVE SMOOTH",
"378 1264 OFFCURVE",
"352 1234 OFFCURVE",
"338 1205 CURVE SMOOTH"
);
},
{
closed = 1;
nodes = (
"472 575 OFFCURVE",
"431 185 OFFCURVE",
"431 71 CURVE SMOOTH",
"431 -1 OFFCURVE",
"465 -34 OFFCURVE",
"514 -34 CURVE SMOOTH",
"565 -34 OFFCURVE",
"610 4 OFFCURVE",
"577 79 CURVE",
"594 354 OFFCURVE",
"622 680 OFFCURVE",
"639 850 CURVE SMOOTH",
"649 950 OFFCURVE",
"520 944 OFFCURVE",
"508 854 CURVE SMOOTH"
);
}
);
width = 1000;
}
);
},
{
glyphname = five;
layers = (
{
layerId = master01;
paths = (
{
closed = 1;
nodes = (
"225 918 OFFCURVE",
"148 691 OFFCURVE",
"131 596 CURVE SMOOTH",
"121 538 OFFCURVE",
"163 491 OFFCURVE",
"220 515 CURVE",
"486 535 OFFCURVE",
"696 406 OFFCURVE",
"643 169 CURVE SMOOTH",
"610 20 OFFCURVE",
"475 -50 OFFCURVE",
"315 -50 CURVE SMOOTH",
"248 -50 OFFCURVE",
"212 -45 OFFCURVE",
"172 -33 CURVE",
"209 -65 LINE",
"199 49 OFFCURVE",
"146 62 OFFCURVE",
"123 62 CURVE SMOOTH",
"92 62 OFFCURVE",
"60 38 OFFCURVE",
"60 -17 CURVE SMOOTH",
"60 -62 OFFCURVE",
"88 -110 OFFCURVE",
"147 -138 CURVE SMOOTH",
"185 -156 OFFCURVE",
"241 -168 OFFCURVE",
"325 -168 CURVE SMOOTH",
"491 -168 OFFCURVE",
"737 -72 OFFCURVE",
"783 163 CURVE SMOOTH",
"848 494 OFFCURVE",
"561 658 OFFCURVE",
"208 627 CURVE",
"264 561 LINE",
"290 694 OFFCURVE",
"342 891 OFFCURVE",
"403 1056 CURVE",
"278 1056 LINE"
);
},
{
closed = 1;
nodes = (
"398 1023 OFFCURVE",
"623 1025 OFFCURVE",
"831 1018 CURVE SMOOTH",
"877 1016 OFFCURVE",
"901 1045 OFFCURVE",
"901 1078 CURVE SMOOTH",
"901 1106 OFFCURVE",
"881 1132 OFFCURVE",
"831 1136 CURVE SMOOTH",
"626 1153 OFFCURVE",
"358 1131 OFFCURVE",
"223 1100 CURVE SMOOTH",
"184 1091 OFFCURVE",
"144 1074 OFFCURVE",
"144 1036 CURVE SMOOTH",
"144 989 OFFCURVE",
"185 990 OFFCURVE",
"231 997 CURVE SMOOTH"
);
}
);
width = 1000;
}
);
unicode = 0035;
},
{
glyphname = five.001;
layers = (
{
layerId = master01;
paths = (
{
closed = 1;
nodes = (
"265 890 OFFCURVE",
"169 750 OFFCURVE",
"157 662 CURVE SMOOTH",
"149 606 OFFCURVE",
"160 568 OFFCURVE",
"232 555 CURVE",
"493 460 OFFCURVE",
"706 386 OFFCURVE",
"641 136 CURVE SMOOTH",
"606 1 OFFCURVE",
"479 -50 OFFCURVE",
"319 -50 CURVE SMOOTH",
"252 -50 OFFCURVE",
"216 -45 OFFCURVE",
"176 -33 CURVE",
"213 -65 LINE",
"203 49 OFFCURVE",
"150 62 OFFCURVE",
"127 62 CURVE SMOOTH",
"96 62 OFFCURVE",
"64 38 OFFCURVE",
"64 -17 CURVE SMOOTH",
"64 -62 OFFCURVE",
"91 -107 OFFCURVE",
"161 -140 CURVE SMOOTH",
"193 -155 OFFCURVE",
"245 -168 OFFCURVE",
"329 -168 CURVE SMOOTH",
"495 -168 OFFCURVE",
"722 -92 OFFCURVE",
"778 129 CURVE SMOOTH",
"819 290 OFFCURVE",
"760 420 OFFCURVE",
"628 503 CURVE SMOOTH",
"537 560 OFFCURVE",
"376 626 OFFCURVE",
"220 667 CURVE",
"289 606 LINE",
"296 732 OFFCURVE",
"390 890 OFFCURVE",
"399 1056 CURVE",
"276 1056 LINE"
);
},
{
closed = 1;
nodes = (
"355 1004 OFFCURVE",
"515 1020 OFFCURVE",
"664 1020 CURVE SMOOTH",
"728 1020 OFFCURVE",
"788 1018 OFFCURVE",
"835 1018 CURVE SMOOTH",
"881 1018 OFFCURVE",
"905 1045 OFFCURVE",
"905 1078 CURVE SMOOTH",
"905 1106 OFFCURVE",
"885 1132 OFFCURVE",
"835 1136 CURVE SMOOTH",
"798 1139 OFFCURVE",
"760 1139 OFFCURVE",
"722 1139 CURVE SMOOTH",
"515 1139 OFFCURVE",
"373 1131 OFFCURVE",
"236 1087 CURVE SMOOTH",
"191 1072 OFFCURVE",
"159 1046 OFFCURVE",
"159 1008 CURVE SMOOTH",
"159 961 OFFCURVE",
"215 948 OFFCURVE",
"257 965 CURVE SMOOTH"
);
}
);
width = 1000;
}
);
},
{
glyphname = five.ss01;
layers = (
{
layerId = master01;
paths = (
{
closed = 1;
nodes = (
"189 683 OFFCURVE",
"144 538 OFFCURVE",
"121 435 CURVE",
"91 382 OFFCURVE",
"115 320 OFFCURVE",
"196 328 CURVE",
"432 303 OFFCURVE",
"621 262 OFFCURVE",
"597 60 CURVE SMOOTH",
"580 -87 OFFCURVE",
"416 -164 OFFCURVE",
"183 -170 CURVE SMOOTH",
"93 -172 OFFCURVE",
"37 -180 OFFCURVE",
"37 -215 CURVE SMOOTH",
"37 -261 OFFCURVE",
"120 -286 OFFCURVE",
"235 -286 CURVE SMOOTH",
"416 -286 OFFCURVE",
"704 -194 OFFCURVE",
"739 48 CURVE SMOOTH",
"784 357 OFFCURVE",
"499 414 OFFCURVE",
"185 435 CURVE",
"242 380 LINE",
"269 507 OFFCURVE",
"308 658 OFFCURVE",
"347 776 CURVE",
"224 776 LINE"
);
},
{
closed = 1;
nodes = (
"342 742 OFFCURVE",
"446 740 OFFCURVE",
"562 740 CURVE SMOOTH",
"626 740 OFFCURVE",
"686 738 OFFCURVE",
"733 738 CURVE SMOOTH",
"779 738 OFFCURVE",
"803 765 OFFCURVE",
"803 798 CURVE SMOOTH",
"803 826 OFFCURVE",
"783 852 OFFCURVE",
"733 856 CURVE SMOOTH",
"696 859 OFFCURVE",
"658 859 OFFCURVE",
"620 859 CURVE SMOOTH",
"413 859 OFFCURVE",
"317 852 OFFCURVE",
"210 837 CURVE SMOOTH",
"151 829 OFFCURVE",
"133 806 OFFCURVE",
"133 779 CURVE SMOOTH",
"133 737 OFFCURVE",
"173 730 OFFCURVE",
"218 733 CURVE SMOOTH"
);
}
);
width = 928;
}
);
},
{
glyphname = five.tf;
layers = (
{
layerId = master01;
paths = (
{
closed = 1;
nodes = (
"219 1180 LINE",
"175 1016 OFFCURVE",
"125 780 OFFCURVE",
"119 663 CURVE SMOOTH",
"114 557 OFFCURVE",
"226 532 OFFCURVE",
"264 605 CURVE",
"308 630 OFFCURVE",
"382 652 OFFCURVE",
"455 652 CURVE SMOOTH",
"586 652 OFFCURVE",
"698 566 OFFCURVE",
"670 353 CURVE SMOOTH",
"646 168 OFFCURVE",
"520 76 OFFCURVE",
"315 76 CURVE SMOOTH",
"259 76 OFFCURVE",
"236 83 OFFCURVE",
"216 91 CURVE",
"195 116 OFFCURVE",
"161 148 OFFCURVE",
"111 148 CURVE SMOOTH",
"50 148 OFFCURVE",
"30 83 OFFCURVE",
"71 37 CURVE SMOOTH",
"123 -22 OFFCURVE",
"226 -44 OFFCURVE",
"321 -44 CURVE SMOOTH",
"572 -44 OFFCURVE",
"774 89 OFFCURVE",
"813 339 CURVE SMOOTH",
"858 625 OFFCURVE",
"696 772 OFFCURVE",
"489 772 CURVE SMOOTH",
"369 772 OFFCURVE",
"292 738 OFFCURVE",
"222 699 CURVE",
"268 657 LINE",
"282 812 OFFCURVE",
"305 1003 OFFCURVE",
"344 1180 CURVE"
);
},
{
closed = 1;
nodes = (
"830 1118 OFFCURVE",
"860 1139 OFFCURVE",
"860 1174 CURVE SMOOTH",
"860 1205 OFFCURVE",
"839 1235 OFFCURVE",
"781 1237 CURVE SMOOTH",
"625 1244 OFFCURVE",
"446 1237 OFFCURVE",
"229 1227 CURVE SMOOTH",
"103 1221 OFFCURVE",
"118 1104 OFFCURVE",
"203 1107 CURVE SMOOTH",
"370 1113 OFFCURVE",
"628 1122 OFFCURVE",
"792 1119 CURVE SMOOTH"
);
}
);
width = 1000;
}
);
},
{
glyphname = six;
layers = (
{
layerId = master01;
paths = (
{
closed = 1;
nodes = (
"550 1188 OFFCURVE",
"386 1071 OFFCURVE",
"291 964 CURVE SMOOTH",
"201 865 OFFCURVE",
"120 721 OFFCURVE",
"85 579 CURVE SMOOTH",
"51 442 OFFCURVE",
"47 286 OFFCURVE",
"108 158 CURVE SMOOTH",
"158 55 OFFCURVE",
"266 -27 OFFCURVE",
"428 -28 CURVE SMOOTH",
"604 -29 OFFCURVE",
"766 74 OFFCURVE",
"824 264 CURVE SMOOTH",
"895 497 OFFCURVE",
"778 665 OFFCURVE",
"554 665 CURVE SMOOTH",
"390 665 OFFCURVE",
"191 552 OFFCURVE",
"169 322 CURVE",
"202 312 LINE",
"299 490 OFFCURVE",
"410 552 OFFCURVE",
"528 552 CURVE SMOOTH",
"667 552 OFFCURVE",
"727 449 OFFCURVE",
"681 285 CURVE SMOOTH",
"643 155 OFFCURVE",
"537 92 OFFCURVE",
"442 92 CURVE SMOOTH",
"181 92 OFFCURVE",
"180 373 OFFCURVE",
"217 552 CURVE SMOOTH",
"244 679 OFFCURVE",
"306 785 OFFCURVE",
"390 876 CURVE SMOOTH",
"492 985 OFFCURVE",
"616 1069 OFFCURVE",
"742 1136 CURVE SMOOTH",
"804 1169 OFFCURVE",
"778 1252 OFFCURVE",
"695 1229 CURVE SMOOTH"
);
}
);
width = 1000;
}
);
unicode = 0036;
},
{
glyphname = six.ss01;
layers = (
{
layerId = master01;
paths = (
{
closed = 1;
nodes = (
"451 1079 OFFCURVE",
"185 846 OFFCURVE",
"121 540 CURVE SMOOTH",
"100 441 OFFCURVE",
"93 286 OFFCURVE",
"154 158 CURVE SMOOTH",
"204 55 OFFCURVE",
"320 -27 OFFCURVE",
"459 -28 CURVE SMOOTH",
"636 -29 OFFCURVE",
"794 68 OFFCURVE",
"850 264 CURVE SMOOTH",
"917 498 OFFCURVE",
"805 665 OFFCURVE",
"585 665 CURVE SMOOTH",
"436 665 OFFCURVE",
"237 552 OFFCURVE",
"215 322 CURVE",
"248 312 LINE",
"345 490 OFFCURVE",
"456 552 OFFCURVE",
"560 552 CURVE SMOOTH",
"697 552 OFFCURVE",
"754 449 OFFCURVE",
"707 285 CURVE SMOOTH",
"670 155 OFFCURVE",
"563 92 OFFCURVE",
"473 92 CURVE SMOOTH",
"227 92 OFFCURVE",
"229 372 OFFCURVE",
"259 532 CURVE SMOOTH",
"310 803 OFFCURVE",
"560 967 OFFCURVE",
"802 1039 CURVE SMOOTH",
"870 1059 OFFCURVE",
"854 1159 OFFCURVE",
"778 1144 CURVE SMOOTH"
);
}
);
width = 1032;
}
);
},
{
glyphname = six.tf;
layers = (
{
layerId = master01;
paths = (
{
closed = 1;
nodes = (
"392 1200 OFFCURVE",
"144 975 OFFCURVE",
"71 605 CURVE SMOOTH",
"16 325 OFFCURVE",
"90 -26 OFFCURVE",
"444 -28 CURVE SMOOTH",
"628 -29 OFFCURVE",
"788 80 OFFCURVE",
"846 253 CURVE SMOOTH",
"926 492 OFFCURVE",
"822 741 OFFCURVE",
"561 741 CURVE SMOOTH",
"345 741 OFFCURVE",
"187 601 OFFCURVE",
"114 410 CURVE",
"180 370 LINE",
"270 550 OFFCURVE",
"402 621 OFFCURVE",
"527 621 CURVE SMOOTH",
"705 621 OFFCURVE",
"755 451 OFFCURVE",
"715 301 CURVE SMOOTH",
"675 152 OFFCURVE",
"574 92 OFFCURVE",
"452 92 CURVE SMOOTH",
"191 92 OFFCURVE",
"179 405 OFFCURVE",
"212 585 CURVE SMOOTH",
"275 926 OFFCURVE",
"457 1058 OFFCURVE",
"731 1167 CURVE SMOOTH",
"803 1196 OFFCURVE",
"781 1289 OFFCURVE",
"682 1266 CURVE SMOOTH"
);
}
);
width = 1000;
}
);
},
{
glyphname = seven;
layers = (
{
layerId = master01;
paths = (
{
closed = 1;
nodes = (
"362 1132 OFFCURVE",
"262 1130 OFFCURVE",
"194 1124 CURVE SMOOTH",
"136 1119 OFFCURVE",
"99 1093 OFFCURVE",
"99 1043 CURVE SMOOTH",
"99 987 OFFCURVE",
"164 930 OFFCURVE",
"251 1007 CURVE",
"163 992 LINE",
"265 1001 OFFCURVE",
"372 1001 OFFCURVE",
"442 1001 CURVE SMOOTH",
"574 1001 OFFCURVE",
"719 989 OFFCURVE",
"835 962 CURVE",
"763 1038 LINE",
"620 753 OFFCURVE",
"515 524 OFFCURVE",
"426 290 CURVE SMOOTH",
"394 205 OFFCURVE",
"360 114 OFFCURVE",
"337 25 CURVE SMOOTH",
"318 -48 OFFCURVE",
"323 -121 OFFCURVE",
"381 -121 CURVE SMOOTH",
"419 -121 OFFCURVE",
"444 -81 OFFCURVE",
"465 -8 CURVE SMOOTH",
"491 81 OFFCURVE",
"522 156 OFFCURVE",
"581 307 CURVE SMOOTH",
"666 524 OFFCURVE",
"788 775 OFFCURVE",
"879 974 CURVE SMOOTH",
"909 1040 OFFCURVE",
"876 1086 OFFCURVE",
"831 1097 CURVE SMOOTH",
"758 1114 OFFCURVE",
"576 1132 OFFCURVE",
"425 1132 CURVE SMOOTH"
);
}
);
width = 1000;
}
);
unicode = 0037;
},
{
glyphname = seven.001;
layers = (
{
layerId = master01;
paths = (
{
closed = 1;
nodes = (
"313 1171 OFFCURVE",
"207 1176 OFFCURVE",
"123 1176 CURVE",
"165 1145 LINE",
"139 1192 OFFCURVE",
"119 1222 OFFCURVE",
"77 1222 CURVE SMOOTH",
"1 1222 OFFCURVE",
"7 1144 OFFCURVE",
"15 1115 CURVE SMOOTH",
"28 1066 OFFCURVE",
"63 1051 OFFCURVE",
"114 1051 CURVE SMOOTH",
"214 1051 OFFCURVE",
"295 1048 OFFCURVE",
"385 1041 CURVE SMOOTH",
"434 1037 OFFCURVE",
"483 1034 OFFCURVE",
"530 1023 CURVE SMOOTH",
"635 1000 OFFCURVE",
"660 956 OFFCURVE",
"645 836 CURVE SMOOTH",
"632 731 OFFCURVE",
"578 597 OFFCURVE",
"530 487 CURVE SMOOTH",
"457 321 OFFCURVE",
"347 178 OFFCURVE",
"275 -1 CURVE SMOOTH",
"234 -104 OFFCURVE",
"261 -165 OFFCURVE",
"322 -165 CURVE SMOOTH",
"377 -165 OFFCURVE",
"404 -117 OFFCURVE",
"404 -57 CURVE",
"483 135 OFFCURVE",
"559 250 OFFCURVE",
"651 434 CURVE SMOOTH",
"722 577 OFFCURVE",
"775 738 OFFCURVE",
"787 821 CURVE SMOOTH",
"816 1021 OFFCURVE",
"741 1099 OFFCURVE",
"572 1135 CURVE SMOOTH",
"526 1145 OFFCURVE",
"471 1155 OFFCURVE",
"413 1161 CURVE SMOOTH"
);
},
{
closed = 1;
nodes = (
"413 462 OFFCURVE",
"637 448 OFFCURVE",
"824 474 CURVE SMOOTH",
"932 489 OFFCURVE",
"911 602 OFFCURVE",
"834 593 CURVE SMOOTH",
"641 570 OFFCURVE",
"416 590 OFFCURVE",
"244 622 CURVE SMOOTH",
"170 636 OFFCURVE",
"128 527 OFFCURVE",
"234 503 CURVE SMOOTH"
);
}
);
width = 1000;
}
);
},
{
glyphname = seven.002;
layers = (
{
layerId = master01;
paths = (
{
closed = 1;
nodes = (
"375 1073 OFFCURVE",
"292 1101 OFFCURVE",
"220 1118 CURVE",
"214 1138 OFFCURVE",
"191 1156 OFFCURVE",
"162 1156 CURVE SMOOTH",
"101 1156 OFFCURVE",
"86 1110 OFFCURVE",
"82 1067 CURVE SMOOTH",
"77 1014 OFFCURVE",
"74 943 OFFCURVE",
"60 881 CURVE SMOOTH",
"48 826 OFFCURVE",
"75 792 OFFCURVE",
"124 792 CURVE SMOOTH",
"160 792 OFFCURVE",
"196 815 OFFCURVE",
"203 864 CURVE SMOOTH",
"212 925 OFFCURVE",
"210 976 OFFCURVE",
"207 1030 CURVE",
"168 1018 LINE",
"245 989 OFFCURVE",
"346 954 OFFCURVE",
"472 954 CURVE SMOOTH",
"588 954 OFFCURVE",
"704 976 OFFCURVE",
"807 1002 CURVE",
"770 1023 LINE",
"656 892 OFFCURVE",
"525 686 OFFCURVE",
"461 510 CURVE SMOOTH",
"392 320 OFFCURVE",
"357 127 OFFCURVE",
"357 -8 CURVE SMOOTH",
"357 -84 OFFCURVE",
"381 -126 OFFCURVE",
"440 -126 CURVE SMOOTH",
"505 -126 OFFCURVE",
"576 -63 OFFCURVE",
"448 70 CURVE",
"497 -39 LINE",
"504 144 OFFCURVE",
"530 330 OFFCURVE",
"584 477 CURVE SMOOTH",
"650 657 OFFCURVE",
"735 802 OFFCURVE",
"865 949 CURVE",
"883 968 OFFCURVE",
"893 980 OFFCURVE",
"903 992 CURVE",
"984 1030 OFFCURVE",
"952 1122 OFFCURVE",
"875 1122 CURVE SMOOTH",
"851 1122 OFFCURVE",
"822 1109 OFFCURVE",
"811 1097 CURVE",
"686 1080 OFFCURVE",
"602 1073 OFFCURVE",
"515 1073 CURVE SMOOTH"
);
},
{
closed = 1;
nodes = (
"196 551 OFFCURVE",
"190 428 OFFCURVE",
"275 425 CURVE SMOOTH",
"760 410 LINE SMOOTH",
"851 407 OFFCURVE",
"853 521 OFFCURVE",
"778 524 CURVE SMOOTH",
"311 546 LINE SMOOTH"
);
}
);
width = 1000;
}
);
},
{
glyphname = seven.comp;
layers = (
{
layerId = master01;
paths = (
{
closed = 1;
nodes = (
"339 1132 OFFCURVE",
"272 1129 OFFCURVE",
"203 1126 CURVE SMOOTH",
"139 1123 OFFCURVE",
"103 1102 OFFCURVE",
"99 1053 CURVE SMOOTH",
"96 1014 OFFCURVE",
"92 943 OFFCURVE",
"78 881 CURVE SMOOTH",
"66 826 OFFCURVE",
"93 792 OFFCURVE",
"142 792 CURVE SMOOTH",
"178 792 OFFCURVE",
"214 815 OFFCURVE",
"221 864 CURVE SMOOTH",
"230 925 OFFCURVE",
"225 975 OFFCURVE",
"231 1030 CURVE",
"163 992 LINE",
"260 1002 OFFCURVE",
"329 1003 OFFCURVE",
"423 1003 CURVE SMOOTH",
"568 1003 OFFCURVE",
"721 997 OFFCURVE",
"832 968 CURVE",
"781 1025 LINE",
"658 889 OFFCURVE",
"529 689 OFFCURVE",
"465 496 CURVE SMOOTH",
"405 315 OFFCURVE",
"375 113 OFFCURVE",
"375 -8 CURVE SMOOTH",
"375 -84 OFFCURVE",
"399 -126 OFFCURVE",
"458 -126 CURVE SMOOTH",
"523 -126 OFFCURVE",
"587 -74 OFFCURVE",
"477 74 CURVE",
"515 -39 LINE",
"522 144 OFFCURVE",
"551 329 OFFCURVE",
"602 477 CURVE SMOOTH",
"661 647 OFFCURVE",
"752 803 OFFCURVE",
"865 929 CURVE SMOOTH",
"934 1006 OFFCURVE",
"906 1076 OFFCURVE",
"829 1093 CURVE SMOOTH",
"695 1122 OFFCURVE",
"512 1132 OFFCURVE",
"425 1132 CURVE SMOOTH"
);
}
);
width = 1000;
}
);
},
{
glyphname = seven.ss01;
layers = (
{
layerId = master01;
paths = (
{
closed = 1;
nodes = (
"421 832 OFFCURVE",
"288 842 OFFCURVE",
"205 854 CURVE SMOOTH",
"133 864 OFFCURVE",
"114 837 OFFCURVE",
"102 795 CURVE SMOOTH",
"89 749 OFFCURVE",
"80 683 OFFCURVE",
"83 621 CURVE SMOOTH",
"85 577 OFFCURVE",
"110 543 OFFCURVE",
"147 543 CURVE SMOOTH",
"183 543 OFFCURVE",
"207 566 OFFCURVE",
"215 604 CURVE SMOOTH",
"225 652 OFFCURVE",
"224 705 OFFCURVE",
"223 760 CURVE",
"179 743 LINE",
"284 719 OFFCURVE",
"410 713 OFFCURVE",
"477 713 CURVE SMOOTH",
"581 713 OFFCURVE",
"683 725 OFFCURVE",
"786 751 CURVE",
"749 772 LINE",
"616 626 OFFCURVE",
"475 440 OFFCURVE",
"401 252 CURVE SMOOTH",
"343 104 OFFCURVE",
"293 -63 OFFCURVE",
"293 -198 CURVE SMOOTH",
"293 -269 OFFCURVE",
"313 -305 OFFCURVE",
"359 -305 CURVE SMOOTH",
"419 -305 OFFCURVE",
"433 -224 OFFCURVE",
"439 -178 CURVE SMOOTH",
"457 -35 OFFCURVE",
"482 103 OFFCURVE",
"530 223 CURVE SMOOTH",
"593 380 OFFCURVE",
"708 550 OFFCURVE",
"844 698 CURVE",
"935 780 OFFCURVE",
"879 855 OFFCURVE",
"805 848 CURVE SMOOTH",
"721 839 OFFCURVE",
"617 832 OFFCURVE",
"524 832 CURVE SMOOTH"
);
}
);
width = 968;
}
);
},
{
glyphname = seven.tf;
layers = (
{
layerId = master01;
paths = (
{
closed = 1;
nodes = (
"362 1232 OFFCURVE",
"262 1230 OFFCURVE",
"194 1224 CURVE SMOOTH",
"136 1219 OFFCURVE",
"99 1193 OFFCURVE",
"99 1143 CURVE SMOOTH",
"99 1087 OFFCURVE",
"164 1030 OFFCURVE",
"251 1107 CURVE",
"163 1092 LINE",
"265 1101 OFFCURVE",
"372 1101 OFFCURVE",
"442 1101 CURVE SMOOTH",
"574 1101 OFFCURVE",
"727 1087 OFFCURVE",
"833 1065 CURVE",
"763 1138 LINE",
"621 853 OFFCURVE",
"515 624 OFFCURVE",
"426 390 CURVE SMOOTH",
"394 305 OFFCURVE",
"355 195 OFFCURVE",
"333 101 CURVE SMOOTH",
"316 27 OFFCURVE",
"315 -45 OFFCURVE",
"373 -45 CURVE SMOOTH",
"411 -45 OFFCURVE",
"435 -2 OFFCURVE",
"463 88 CURVE SMOOTH",
"484 157 OFFCURVE",
"522 256 OFFCURVE",
"581 407 CURVE SMOOTH",
"666 624 OFFCURVE",
"788 875 OFFCURVE",
"879 1074 CURVE SMOOTH",
"909 1140 OFFCURVE",
"876 1186 OFFCURVE",
"831 1197 CURVE SMOOTH",
"758 1214 OFFCURVE",
"576 1232 OFFCURVE",
"425 1232 CURVE SMOOTH"
);
}
);
width = 1000;
}
);
},
{
glyphname = seven.tf.comp;
layers = (
{
layerId = master01;
paths = (
{
closed = 1;
nodes = (
"386 1220 OFFCURVE",
"248 1239 OFFCURVE",
"182 1239 CURVE SMOOTH",
"143 1239 OFFCURVE",
"113 1217 OFFCURVE",
"109 1164 CURVE SMOOTH",
"106 1127 OFFCURVE",
"103 1073 OFFCURVE",
"89 1011 CURVE SMOOTH",
"77 956 OFFCURVE",
"104 922 OFFCURVE",
"153 922 CURVE SMOOTH",
"189 922 OFFCURVE",
"218 942 OFFCURVE",
"228 991 CURVE SMOOTH",
"236 1029 OFFCURVE",
"241 1075 OFFCURVE",
"241 1143 CURVE",
"184 1114 LINE",
"283 1104 OFFCURVE",
"380 1101 OFFCURVE",
"530 1101 CURVE SMOOTH",
"622 1101 OFFCURVE",
"733 1105 OFFCURVE",
"835 1121 CURVE",
"811 1156 LINE",
"664 1003 OFFCURVE",
"520 797 OFFCURVE",
"446 603 CURVE SMOOTH",
"378 426 OFFCURVE",
"337 231 OFFCURVE",
"337 79 CURVE SMOOTH",
"337 3 OFFCURVE",
"361 -39 OFFCURVE",
"420 -39 CURVE SMOOTH",
"485 -39 OFFCURVE",
"543 45 OFFCURVE",
"438 193 CURVE",
"477 48 LINE",
"477 242 OFFCURVE",
"518 413 OFFCURVE",
"597 610 CURVE SMOOTH",
"670 793 OFFCURVE",
"767 932 OFFCURVE",
"894 1071 CURVE SMOOTH",
"972 1157 OFFCURVE",
"919 1230 OFFCURVE",
"840 1227 CURVE SMOOTH",
"722 1223 OFFCURVE",
"636 1220 OFFCURVE",
"549 1220 CURVE SMOOTH"
);
}
);
width = 1000;
}
);
},
{
glyphname = eight;
layers = (
{
layerId = master01;
paths = (
{
closed = 1;
nodes = (
"684 652 OFFCURVE",
"819 713 OFFCURVE",
"853 859 CURVE SMOOTH",
"880 975 OFFCURVE",
"797 1076 OFFCURVE",
"738 1054 CURVE SMOOTH",
"692 1037 OFFCURVE",
"734 964 OFFCURVE",
"717 886 CURVE SMOOTH",
"696 781 OFFCURVE",
"591 733 OFFCURVE",
"411 673 CURVE SMOOTH",
"167 591 OFFCURVE",
"70 453 OFFCURVE",
"47 323 CURVE SMOOTH",
"11 118 OFFCURVE",
"147 -44 OFFCURVE",
"414 -44 CURVE SMOOTH",
"640 -44 OFFCURVE",
"786 64 OFFCURVE",
"816 219 CURVE SMOOTH",
"848 384 OFFCURVE",
"764 545 OFFCURVE",
"521 666 CURVE SMOOTH",
"316 768 OFFCURVE",
"263 897 OFFCURVE",
"309 1007 CURVE SMOOTH",
"347 1098 OFFCURVE",
"422 1136 OFFCURVE",
"516 1136 CURVE SMOOTH",
"578 1136 OFFCURVE",
"616 1120 OFFCURVE",
"648 1111 CURVE",
"608 1165 LINE",
"583 1107 OFFCURVE",
"623 1075 OFFCURVE",
"663 1075 CURVE SMOOTH",
"692 1075 OFFCURVE",
"723 1092 OFFCURVE",
"723 1133 CURVE SMOOTH",
"723 1206 OFFCURVE",
"625 1250 OFFCURVE",
"508 1250 CURVE SMOOTH",
"363 1250 OFFCURVE",
"211 1172 OFFCURVE",
"163 1014 CURVE SMOOTH",
"121 876 OFFCURVE",
"167 711 OFFCURVE",
"455 552 CURVE SMOOTH",
"653 443 OFFCURVE",
"697 332 OFFCURVE",
"671 230 CURVE SMOOTH",
"646 132 OFFCURVE",
"547 76 OFFCURVE",
"424 76 CURVE SMOOTH",
"228 76 OFFCURVE",
"161 199 OFFCURVE",
"186 317 CURVE SMOOTH",
"207 417 OFFCURVE",
"290 508 OFFCURVE",
"501 585 CURVE SMOOTH"
);
}
);
width = 1000;
}
);
unicode = 0038;
},
{
glyphname = eight.001;
layers = (
{
layerId = master01;
paths = (
{
closed = 1;
nodes = (
"366 1268 OFFCURVE",
"218 1171 OFFCURVE",
"167 1033 CURVE SMOOTH",
"108 872 OFFCURVE",
"167 680 OFFCURVE",
"383 591 CURVE",
"443 627 LINE",
"306 741 OFFCURVE",
"246 862 OFFCURVE",
"308 1011 CURVE SMOOTH",
"339 1086 OFFCURVE",
"406 1148 OFFCURVE",
"519 1148 CURVE SMOOTH",
"683 1148 OFFCURVE",
"742 1004 OFFCURVE",
"724 907 CURVE SMOOTH",
"703 792 OFFCURVE",
"578 722 OFFCURVE",
"449 666 CURVE SMOOTH",
"280 593 OFFCURVE",
"83 513 OFFCURVE",
"49 321 CURVE SMOOTH",
"15 128 OFFCURVE",
"175 -24 OFFCURVE",
"430 -24 CURVE SMOOTH",
"652 -24 OFFCURVE",
"788 81 OFFCURVE",
"820 250 CURVE SMOOTH",
"845 384 OFFCURVE",
"794 564 OFFCURVE",
"631 659 CURVE",
"562 608 LINE",
"686 473 OFFCURVE",
"703 350 OFFCURVE",
"677 250 CURVE SMOOTH",
"652 152 OFFCURVE",
"553 96 OFFCURVE",
"420 96 CURVE SMOOTH",
"234 96 OFFCURVE",
"167 219 OFFCURVE",
"187 315 CURVE SMOOTH",
"215 447 OFFCURVE",
"363 502 OFFCURVE",
"507 565 CURVE SMOOTH",
"661 632 OFFCURVE",
"824 736 OFFCURVE",
"861 885 CURVE SMOOTH",
"907 1069 OFFCURVE",
"785 1268 OFFCURVE",
"532 1268 CURVE SMOOTH"
);
}
);
width = 1000;
}
);
},
{
glyphname = eight.002;
layers = (
{
layerId = master01;
paths = (
{
closed = 1;
nodes = (
"686 652 OFFCURVE",
"821 713 OFFCURVE",
"855 859 CURVE SMOOTH",
"886 993 OFFCURVE",
"808 1089 OFFCURVE",
"713 1135 CURVE SMOOTH",
"684 1149 OFFCURVE",
"639 1166 OFFCURVE",
"580 1166 CURVE SMOOTH",
"491 1166 OFFCURVE",
"481 1132 OFFCURVE",
"481 1111 CURVE SMOOTH",
"481 1072 OFFCURVE",
"539 1044 OFFCURVE",
"618 1058 CURVE",
"580 1058 LINE",
"683 1044 OFFCURVE",
"737 971 OFFCURVE",
"719 886 CURVE SMOOTH",
"698 781 OFFCURVE",
"593 733 OFFCURVE",
"413 673 CURVE SMOOTH",
"169 591 OFFCURVE",
"72 453 OFFCURVE",
"49 323 CURVE SMOOTH",
"13 118 OFFCURVE",
"149 -44 OFFCURVE",
"416 -44 CURVE SMOOTH",
"642 -44 OFFCURVE",
"788 64 OFFCURVE",
"818 219 CURVE SMOOTH",
"850 384 OFFCURVE",
"766 545 OFFCURVE",
"523 666 CURVE SMOOTH",
"318 768 OFFCURVE",
"265 897 OFFCURVE",
"311 1007 CURVE SMOOTH",
"329 1050 OFFCURVE",
"355 1085 OFFCURVE",
"395 1116 CURVE SMOOTH",
"436 1148 OFFCURVE",
"479 1170 OFFCURVE",
"481 1201 CURVE SMOOTH",
"484 1246 OFFCURVE",
"439 1253 OFFCURVE",
"380 1231 CURVE SMOOTH",
"252 1183 OFFCURVE",
"190 1096 OFFCURVE",
"165 1014 CURVE SMOOTH",
"123 876 OFFCURVE",
"169 711 OFFCURVE",
"457 552 CURVE SMOOTH",
"655 443 OFFCURVE",
"699 332 OFFCURVE",
"673 230 CURVE SMOOTH",
"648 132 OFFCURVE",
"549 76 OFFCURVE",
"426 76 CURVE SMOOTH",
"230 76 OFFCURVE",
"163 199 OFFCURVE",
"188 317 CURVE SMOOTH",
"209 417 OFFCURVE",
"292 508 OFFCURVE",
"503 585 CURVE SMOOTH"
);
}
);
width = 1000;
}
);
},
{
glyphname = eight.latn_NLD;
layers = (
{
layerId = master01;
paths = (
{
closed = 1;
nodes = (
"188 582 OFFCURVE",
"72 453 OFFCURVE",
"49 323 CURVE SMOOTH",
"13 118 OFFCURVE",
"149 -44 OFFCURVE",
"416 -44 CURVE SMOOTH",
"642 -44 OFFCURVE",
"782 59 OFFCURVE",
"813 220 CURVE SMOOTH",
"845 385 OFFCURVE",
"765 542 OFFCURVE",
"535 656 CURVE SMOOTH",
"307 769 OFFCURVE",
"260 900 OFFCURVE",
"306 1010 CURVE SMOOTH",
"335 1079 OFFCURVE",
"407 1128 OFFCURVE",
"508 1128 CURVE SMOOTH",
"679 1128 OFFCURVE",
"745 1011 OFFCURVE",
"717 874 CURVE SMOOTH",
"698 781 OFFCURVE",
"625 711 OFFCURVE",
"523 645 CURVE",
"603 583 LINE",
"729 657 OFFCURVE",
"814 726 OFFCURVE",
"845 850 CURVE SMOOTH",
"896 1056 OFFCURVE",
"772 1248 OFFCURVE",
"515 1248 CURVE SMOOTH",
"342 1248 OFFCURVE",
"210 1158 OFFCURVE",
"168 1018 CURVE SMOOTH",
"125 876 OFFCURVE",
"170 714 OFFCURVE",
"458 555 CURVE SMOOTH",
"666 440 OFFCURVE",
"706 341 OFFCURVE",
"679 233 CURVE SMOOTH",
"653 130 OFFCURVE",
"549 76 OFFCURVE",
"426 76 CURVE SMOOTH",
"230 76 OFFCURVE",
"163 199 OFFCURVE",
"188 317 CURVE SMOOTH",
"209 417 OFFCURVE",
"273 509 OFFCURVE",
"444 589 CURVE",
"390 661 LINE"
);
}
);
width = 1000;
}
);
},
{
glyphname = eight.ss01;
layers = (
{
layerId = master01;
paths = (
{
closed = 1;
nodes = (
"226 529 OFFCURVE",
"100 435 OFFCURVE",
"81 291 CURVE SMOOTH",
"56 102 OFFCURVE",
"204 -44 OFFCURVE",
"469 -44 CURVE SMOOTH",
"667 -44 OFFCURVE",
"835 42 OFFCURVE",
"864 210 CURVE SMOOTH",
"882 311 OFFCURVE",
"840 426 OFFCURVE",
"733 500 CURVE SMOOTH",
"681 536 OFFCURVE",
"609 571 OFFCURVE",
"538 609 CURVE SMOOTH",
"364 701 OFFCURVE",
"333 809 OFFCURVE",
"352 890 CURVE SMOOTH",
"371 968 OFFCURVE",
"453 1017 OFFCURVE",
"553 1017 CURVE SMOOTH",
"689 1017 OFFCURVE",
"750 911 OFFCURVE",
"728 795 CURVE SMOOTH",
"709 694 OFFCURVE",
"633 630 OFFCURVE",
"555 587 CURVE",
"592 512 LINE",
"726 568 OFFCURVE",
"839 675 OFFCURVE",
"867 790 CURVE SMOOTH",
"911 967 OFFCURVE",
"803 1137 OFFCURVE",
"564 1137 CURVE SMOOTH",
"389 1137 OFFCURVE",
"250 1035 OFFCURVE",
"221 910 CURVE SMOOTH",
"198 811 OFFCURVE",
"199 653 OFFCURVE",
"465 506 CURVE SMOOTH",
"534 468 OFFCURVE",
"600 433 OFFCURVE",
"641 401 CURVE SMOOTH",
"716 342 OFFCURVE",
"733 264 OFFCURVE",
"722 214 CURVE SMOOTH",
"703 121 OFFCURVE",
"612 76 OFFCURVE",
"472 76 CURVE SMOOTH",
"275 76 OFFCURVE",
"200 179 OFFCURVE",
"224 297 CURVE SMOOTH",
"241 380 OFFCURVE",
"308 448 OFFCURVE",
"473 520 CURVE",
"435 593 LINE"
);
}
);
width = 1048;
}
);
},
{
glyphname = eight.tf;
layers = (
{
layerId = master01;
paths = (
{
closed = 1;
nodes = (
"688 666 OFFCURVE",
"795 738 OFFCURVE",
"834 844 CURVE SMOOTH",
"882 973 OFFCURVE",
"815 1064 OFFCURVE",
"754 1048 CURVE SMOOTH",
"701 1034 OFFCURVE",
"738 938 OFFCURVE",
"704 866 CURVE SMOOTH",
"661 774 OFFCURVE",
"564 729 OFFCURVE",
"411 687 CURVE SMOOTH",
"155 617 OFFCURVE",
"49 466 OFFCURVE",
"33 333 CURVE SMOOTH",
"8 124 OFFCURVE",
"144 -44 OFFCURVE",
"411 -44 CURVE SMOOTH",
"658 -44 OFFCURVE",
"791 70 OFFCURVE",
"823 217 CURVE SMOOTH",
"866 414 OFFCURVE",
"739 583 OFFCURVE",
"497 696 CURVE SMOOTH",
"310 783 OFFCURVE",
"263 896 OFFCURVE",
"289 994 CURVE SMOOTH",
"319 1105 OFFCURVE",
"419 1166 OFFCURVE",
"513 1166 CURVE SMOOTH",
"652 1166 OFFCURVE",
"713 1067 OFFCURVE",
"727 1001 CURVE SMOOTH",
"747 906 OFFCURVE",
"858 927 OFFCURVE",
"851 1019 CURVE SMOOTH",
"839 1173 OFFCURVE",
"701 1280 OFFCURVE",
"518 1280 CURVE SMOOTH",
"332 1280 OFFCURVE",
"182 1168 OFFCURVE",
"153 1015 CURVE SMOOTH",
"128 885 OFFCURVE",
"159 734 OFFCURVE",
"446 588 CURVE SMOOTH",
"650 484 OFFCURVE",
"719 356 OFFCURVE",
"689 241 CURVE SMOOTH",
"663 140 OFFCURVE",
"560 76 OFFCURVE",
"421 76 CURVE SMOOTH",
"225 76 OFFCURVE",
"157 196 OFFCURVE",
"171 317 CURVE SMOOTH",
"185 441 OFFCURVE",
"284 536 OFFCURVE",
"498 605 CURVE SMOOTH"
);
}
);
width = 1000;
}
);
},
{
glyphname = nine;
layers = (
{
layerId = master01;
paths = (
{
closed = 1;
nodes = (
"253 1150 OFFCURVE",
"120 1017 OFFCURVE",
"87 855 CURVE SMOOTH",
"46 657 OFFCURVE",
"144 470 OFFCURVE",
"374 470 CURVE SMOOTH",
"544 470 OFFCURVE",
"686 579 OFFCURVE",
"776 830 CURVE",
"722 830 LINE",
"714 577 OFFCURVE",
"662 389 OFFCURVE",
"610 266 CURVE SMOOTH",
"560 148 OFFCURVE",
"478 32 OFFCURVE",
"323 32 CURVE SMOOTH",
"254 32 OFFCURVE",
"191 52 OFFCURVE",
"160 65 CURVE SMOOTH",
"111 85 OFFCURVE",
"74 80 OFFCURVE",
"61 56 CURVE SMOOTH",
"48 31 OFFCURVE",
"58 2 OFFCURVE",
"100 -27 CURVE SMOOTH",
"146 -58 OFFCURVE",
"220 -89 OFFCURVE",
"319 -89 CURVE SMOOTH",
"560 -89 OFFCURVE",
"664 69 OFFCURVE",
"719 181 CURVE SMOOTH",
"793 331 OFFCURVE",
"835 573 OFFCURVE",
"836 831 CURVE",
"869 904 OFFCURVE",
"861 989 OFFCURVE",
"793 989 CURVE SMOOTH",
"721 989 OFFCURVE",
"705 904 OFFCURVE",
"707 841 CURVE",
"629 698 OFFCURVE",
"533 594 OFFCURVE",
"384 594 CURVE SMOOTH",
"241 594 OFFCURVE",
"200 698 OFFCURVE",
"219 818 CURVE SMOOTH",
"240 951 OFFCURVE",
"323 1030 OFFCURVE",
"456 1030 CURVE SMOOTH",
"538 1030 OFFCURVE",
"590 999 OFFCURVE",
"645 962 CURVE SMOOTH",
"724 909 OFFCURVE",
"800 976 OFFCURVE",
"721 1055 CURVE SMOOTH",
"666 1110 OFFCURVE",
"567 1150 OFFCURVE",
"449 1150 CURVE SMOOTH"
);
}
);
width = 1000;
}
);
unicode = 0039;
},
{
glyphname = nine.latn_ENG;
layers = (
{
layerId = master01;
paths = (
{
closed = 1;
nodes = (
"640 611 OFFCURVE",
"529 545 OFFCURVE",
"410 545 CURVE SMOOTH",
"243 545 OFFCURVE",
"206 682 OFFCURVE",
"217 805 CURVE SMOOTH",
"230 952 OFFCURVE",
"323 1030 OFFCURVE",
"456 1030 CURVE SMOOTH",
"645 1030 OFFCURVE",
"708 838 OFFCURVE",
"684 578 CURVE SMOOTH",
"654 258 OFFCURVE",
"536 32 OFFCURVE",
"323 32 CURVE SMOOTH",
"254 32 OFFCURVE",
"191 52 OFFCURVE",
"160 65 CURVE SMOOTH",
"111 85 OFFCURVE",
"74 80 OFFCURVE",
"61 56 CURVE SMOOTH",
"48 31 OFFCURVE",
"58 2 OFFCURVE",
"100 -27 CURVE SMOOTH",
"146 -58 OFFCURVE",
"220 -89 OFFCURVE",
"319 -89 CURVE SMOOTH",
"658 -89 OFFCURVE",
"780 237 OFFCURVE",
"812 526 CURVE SMOOTH",
"851 879 OFFCURVE",
"759 1150 OFFCURVE",
"449 1150 CURVE SMOOTH",
"251 1150 OFFCURVE",
"108 1017 OFFCURVE",
"82 829 CURVE SMOOTH",
"53 611 OFFCURVE",
"166 425 OFFCURVE",
"390 425 CURVE SMOOTH",
"544 425 OFFCURVE",
"670 512 OFFCURVE",
"784 686 CURVE",
"726 738 LINE"
);
}
);
width = 1000;
}
);
},
{
glyphname = nine.latn_ENG.lf;
layers = (
{
layerId = master01;
paths = (
{
closed = 1;
nodes = (
"665 734 OFFCURVE",
"554 668 OFFCURVE",
"435 668 CURVE SMOOTH",
"268 668 OFFCURVE",
"231 805 OFFCURVE",
"242 928 CURVE SMOOTH",
"255 1075 OFFCURVE",
"348 1153 OFFCURVE",
"481 1153 CURVE SMOOTH",
"670 1153 OFFCURVE",
"757 957 OFFCURVE",
"708 591 CURVE SMOOTH",
"670 307 OFFCURVE",
"563 72 OFFCURVE",
"350 72 CURVE SMOOTH",
"281 72 OFFCURVE",
"209 102 OFFCURVE",
"157 133 CURVE SMOOTH",
"106 164 OFFCURVE",
"70 177 OFFCURVE",
"51 153 CURVE SMOOTH",
"32 129 OFFCURVE",
"39 86 OFFCURVE",
"76 51 CURVE SMOOTH",
"146 -15 OFFCURVE",
"247 -49 OFFCURVE",
"346 -49 CURVE SMOOTH",
"685 -49 OFFCURVE",
"814 260 OFFCURVE",
"850 586 CURVE SMOOTH",
"873 790 OFFCURVE",
"866 965 OFFCURVE",
"808 1084 CURVE SMOOTH",
"748 1209 OFFCURVE",
"632 1273 OFFCURVE",
"474 1273 CURVE SMOOTH",
"276 1273 OFFCURVE",
"131 1140 OFFCURVE",
"105 952 CURVE SMOOTH",
"76 734 OFFCURVE",
"191 548 OFFCURVE",
"415 548 CURVE SMOOTH",
"569 548 OFFCURVE",
"705 635 OFFCURVE",
"809 809 CURVE",
"751 861 LINE"
);
}
);
width = 1000;
}
);
},
{
glyphname = nine.ss01;
layers = (
{
layerId = master01;
paths = (
{
closed = 1;
nodes = (
"567 -186 OFFCURVE",
"783 28 OFFCURVE",
"840 300 CURVE SMOOTH",
"861 399 OFFCURVE",
"875 575 OFFCURVE",
"813 696 CURVE SMOOTH",
"759 802 OFFCURVE",
"649 867 OFFCURVE",
"502 868 CURVE SMOOTH",
"325 869 OFFCURVE",
"156 761 OFFCURVE",
"113 586 CURVE SMOOTH",
"59 365 OFFCURVE",
"187 175 OFFCURVE",
"410 175 CURVE SMOOTH",
"520 175 OFFCURVE",
"628 218 OFFCURVE",
"734 303 CURVE",
"716 380 LINE",
"615 314 OFFCURVE",
"531 288 OFFCURVE",
"449 288 CURVE SMOOTH",
"284 288 OFFCURVE",
"228 415 OFFCURVE",
"252 546 CURVE SMOOTH",
"276 676 OFFCURVE",
"389 748 OFFCURVE",
"497 748 CURVE SMOOTH",
"587 748 OFFCURVE",
"647 708 OFFCURVE",
"679 651 CURVE SMOOTH",
"726 569 OFFCURVE",
"725 447 OFFCURVE",
"700 307 CURVE SMOOTH",
"651 36 OFFCURVE",
"399 -115 OFFCURVE",
"197 -186 CURVE SMOOTH",
"124 -212 OFFCURVE",
"92 -230 OFFCURVE",
"95 -260 CURVE SMOOTH",
"102 -325 OFFCURVE",
"251 -288 OFFCURVE",
"290 -276 CURVE SMOOTH"
);
}
);
width = 1032;
}
);
},
{
glyphname = nine.tf;
layers = (
{
layerId = master01;
paths = (
{
closed = 1;
nodes = (
"278 1273 OFFCURVE",
"130 1145 OFFCURVE",
"94 972 CURVE SMOOTH",
"50 763 OFFCURVE",
"172 575 OFFCURVE",
"402 575 CURVE SMOOTH",
"521 575 OFFCURVE",
"667 620 OFFCURVE",
"799 795 CURVE",
"737 851 LINE",
"724 611 OFFCURVE",
"698 472 OFFCURVE",
"650 345 CURVE SMOOTH",
"593 194 OFFCURVE",
"502 81 OFFCURVE",
"351 81 CURVE SMOOTH",
"260 81 OFFCURVE",
"190 115 OFFCURVE",
"142 143 CURVE SMOOTH",
"91 173 OFFCURVE",
"65 170 OFFCURVE",
"50 153 CURVE SMOOTH",
"33 133 OFFCURVE",
"38 89 OFFCURVE",
"74 53 CURVE SMOOTH",
"126 1 OFFCURVE",
"222 -49 OFFCURVE",
"346 -49 CURVE SMOOTH",
"587 -49 OFFCURVE",
"699 108 OFFCURVE",
"758 228 CURVE SMOOTH",
"835 384 OFFCURVE",
"867 616 OFFCURVE",
"862 852 CURVE",
"895 925 OFFCURVE",
"880 1016 OFFCURVE",
"804 1016 CURVE SMOOTH",
"733 1016 OFFCURVE",
"718 944 OFFCURVE",
"733 862 CURVE",
"637 741 OFFCURVE",
"538 699 OFFCURVE",
"425 699 CURVE SMOOTH",
"269 699 OFFCURVE",
"214 823 OFFCURVE",
"233 943 CURVE SMOOTH",
"254 1076 OFFCURVE",
"352 1153 OFFCURVE",
"484 1153 CURVE SMOOTH",
"608 1153 OFFCURVE",
"688 1074 OFFCURVE",
"732 993 CURVE SMOOTH",
"775 914 OFFCURVE",
"856 963 OFFCURVE",
"838 1037 CURVE SMOOTH",
"816 1126 OFFCURVE",
"702 1273 OFFCURVE",
"474 1273 CURVE SMOOTH"
);
}
);
width = 1000;
}
);
},
{
glyphname = zero.dnom;
layers = (
{
layerId = master01;
paths = (
{
closed = 1;
nodes = (
"502 611 OFFCURVE",
"508 430 OFFCURVE",
"499 331 CURVE SMOOTH",
"483 168 OFFCURVE",
"394 42 OFFCURVE",
"285 42 CURVE SMOOTH",
"152 42 OFFCURVE",
"141 200 OFFCURVE",
"160 329 CURVE SMOOTH",
"183 485 OFFCURVE",
"272 611 OFFCURVE",
"377 611 CURVE SMOOTH"
);
},
{
closed = 1;
nodes = (
"312 716 OFFCURVE",
"255 693 OFFCURVE",
"214 664 CURVE SMOOTH",
"132 606 OFFCURVE",
"52 491 OFFCURVE",
"33 321 CURVE SMOOTH",
"10 108 OFFCURVE",
"94 -63 OFFCURVE",
"280 -63 CURVE SMOOTH",
"331 -63 OFFCURVE",
"386 -50 OFFCURVE",
"434 -20 CURVE SMOOTH",
"525 36 OFFCURVE",
"595 132 OFFCURVE",
"619 288 CURVE SMOOTH",
"643 441 OFFCURVE",
"619 716 OFFCURVE",
"384 716 CURVE SMOOTH"
);
}
);
width = 736;
}
);
},
{
glyphname = one.dnom;
layers = (
{
layerId = master01;
paths = (
{
closed = 1;
nodes = (
"264 641 OFFCURVE",
"247 504 OFFCURVE",
"232 373 CURVE SMOOTH",
"217 239 OFFCURVE",
"212 134 OFFCURVE",
"208 14 CURVE SMOOTH",
"206 -35 OFFCURVE",
"235 -60 OFFCURVE",
"265 -60 CURVE SMOOTH",
"296 -60 OFFCURVE",
"326 -43 OFFCURVE",
"328 9 CURVE SMOOTH",
"331 92 OFFCURVE",
"335 180 OFFCURVE",
"341 260 CURVE SMOOTH",
"359 514 OFFCURVE",
"382 637 OFFCURVE",
"376 677 CURVE SMOOTH",
"371 710 OFFCURVE",
"344 729 OFFCURVE",
"318 729 CURVE SMOOTH",
"280 729 OFFCURVE",
"254 690 OFFCURVE",
"224 660 CURVE SMOOTH",
"162 598 OFFCURVE",
"101 552 OFFCURVE",
"48 505 CURVE SMOOTH",
"25 486 OFFCURVE",
"19 467 OFFCURVE",
"19 450 CURVE SMOOTH",
"19 414 OFFCURVE",
"41 397 OFFCURVE",
"68 397 CURVE SMOOTH",
"85 397 OFFCURVE",
"109 406 OFFCURVE",
"131 431 CURVE SMOOTH",
"196 505 OFFCURVE",
"322 635 OFFCURVE",
"342 656 CURVE",
"266 672 LINE"
);
}
);
width = 552;
}
);
},
{
glyphname = two.dnom;
layers = (
{
layerId = master01;
paths = (
{
closed = 1;
nodes = (
"246 730 OFFCURVE",
"162 706 OFFCURVE",
"101 632 CURVE SMOOTH",
"46 565 OFFCURVE",
"52 510 OFFCURVE",
"82 495 CURVE SMOOTH",
"109 482 OFFCURVE",
"148 484 OFFCURVE",
"181 546 CURVE SMOOTH",
"210 601 OFFCURVE",
"268 626 OFFCURVE",
"325 626 CURVE SMOOTH",
"439 626 OFFCURVE",
"467 542 OFFCURVE",
"446 468 CURVE SMOOTH",
"398 303 OFFCURVE",
"123 113 OFFCURVE",
"29 45 CURVE SMOOTH",
"3 26 OFFCURVE",
"-4 8 OFFCURVE",
"-2 -12 CURVE SMOOTH",
"1 -41 OFFCURVE",
"21 -52 OFFCURVE",
"66 -53 CURVE SMOOTH",
"203 -55 OFFCURVE",
"404 -53 OFFCURVE",
"500 -47 CURVE SMOOTH",
"544 -45 OFFCURVE",
"561 -14 OFFCURVE",
"561 11 CURVE SMOOTH",
"561 42 OFFCURVE",
"542 63 OFFCURVE",
"504 63 CURVE SMOOTH",
"422 63 OFFCURVE",
"201 55 OFFCURVE",
"91 34 CURVE",
"97 -1 LINE",
"158 30 OFFCURVE",
"280 107 OFFCURVE",
"362 173 CURVE SMOOTH",
"433 230 OFFCURVE",
"525 315 OFFCURVE",
"565 425 CURVE SMOOTH",
"597 511 OFFCURVE",
"587 596 OFFCURVE",
"536 654 CURVE SMOOTH",
"494 702 OFFCURVE",
"423 730 OFFCURVE",
"334 730 CURVE SMOOTH"
);
}
);
width = 696;
}
);
},
{
glyphname = three.dnom;
layers = (
{
layerId = master01;
paths = (
{
closed = 1;
nodes = (
"228 731 OFFCURVE",
"149 694 OFFCURVE",
"91 640 CURVE SMOOTH",
"54 605 OFFCURVE",
"50 564 OFFCURVE",
"78 545 CURVE SMOOTH",
"110 524 OFFCURVE",
"140 545 OFFCURVE",
"167 569 CURVE SMOOTH",
"209 607 OFFCURVE",
"255 626 OFFCURVE",
"319 626 CURVE SMOOTH",
"390 626 OFFCURVE",
"435 600 OFFCURVE",
"435 541 CURVE SMOOTH",
"435 484 OFFCURVE",
"378 437 OFFCURVE",
"260 397 CURVE SMOOTH",
"214 381 OFFCURVE",
"192 365 OFFCURVE",
"192 335 CURVE SMOOTH",
"192 305 OFFCURVE",
"211 279 OFFCURVE",
"291 292 CURVE",
"384 270 OFFCURVE",
"429 210 OFFCURVE",
"407 127 CURVE SMOOTH",
"387 50 OFFCURVE",
"308 27 OFFCURVE",
"230 27 CURVE SMOOTH",
"174 27 OFFCURVE",
"123 42 OFFCURVE",
"90 63 CURVE SMOOTH",
"36 97 OFFCURVE",
"-10 49 OFFCURVE",
"25 2 CURVE SMOOTH",
"61 -46 OFFCURVE",
"153 -80 OFFCURVE",
"252 -80 CURVE SMOOTH",
"349 -80 OFFCURVE",
"497 -39 OFFCURVE",
"535 92 CURVE SMOOTH",
"571 216 OFFCURVE",
"510 347 OFFCURVE",
"299 368 CURVE",
"299 333 LINE",
"459 373 OFFCURVE",
"550 450 OFFCURVE",
"561 537 CURVE SMOOTH",
"578 672 OFFCURVE",
"456 731 OFFCURVE",
"329 731 CURVE SMOOTH"
);
}
);
width = 688;
}
);
},
{
glyphname = four.dnom;
layers = (
{
layerId = master01;
paths = (
{
closed = 1;
nodes = (
"127 551 OFFCURVE",
"68 349 OFFCURVE",
"29 204 CURVE SMOOTH",
"14 150 OFFCURVE",
"27 117 OFFCURVE",
"83 121 CURVE SMOOTH",
"263 135 OFFCURVE",
"418 138 OFFCURVE",
"571 143 CURVE SMOOTH",
"636 145 OFFCURVE",
"647 245 OFFCURVE",
"568 245 CURVE SMOOTH",
"457 245 OFFCURVE",
"240 234 OFFCURVE",
"72 209 CURVE",
"118 151 LINE",
"170 333 OFFCURVE",
"235 488 OFFCURVE",
"305 638 CURVE SMOOTH",
"331 693 OFFCURVE",
"312 744 OFFCURVE",
"266 744 CURVE SMOOTH",
"231 744 OFFCURVE",
"205 722 OFFCURVE",
"190 688 CURVE SMOOTH"
);
},
{
closed = 1;
nodes = (
"302 298 OFFCURVE",
"291 92 OFFCURVE",
"291 21 CURVE SMOOTH",
"291 -52 OFFCURVE",
"320 -80 OFFCURVE",
"358 -80 CURVE SMOOTH",
"398 -80 OFFCURVE",
"395 -32 OFFCURVE",
"397 21 CURVE SMOOTH",
"403 208 OFFCURVE",
"427 323 OFFCURVE",
"439 469 CURVE SMOOTH",
"442 510 OFFCURVE",
"431 530 OFFCURVE",
"395 530 CURVE SMOOTH",
"359 530 OFFCURVE",
"332 505 OFFCURVE",
"327 471 CURVE SMOOTH"
);
}
);
width = 720;
}
);
},
{
glyphname = five.dnom;
layers = (
{
layerId = master01;
paths = (
{
closed = 1;
nodes = (
"99 545 OFFCURVE",
"77 436 OFFCURVE",
"69 378 CURVE SMOOTH",
"63 341 OFFCURVE",
"73 293 OFFCURVE",
"121 299 CURVE SMOOTH",
"293 321 OFFCURVE",
"435 317 OFFCURVE",
"414 179 CURVE SMOOTH",
"398 76 OFFCURVE",
"303 37 OFFCURVE",
"205 37 CURVE SMOOTH",
"153 37 OFFCURVE",
"123 45 OFFCURVE",
"91 58 CURVE SMOOTH",
"56 72 OFFCURVE",
"26 87 OFFCURVE",
"9 69 CURVE SMOOTH",
"-41 16 OFFCURVE",
"72 -63 OFFCURVE",
"208 -63 CURVE SMOOTH",
"306 -63 OFFCURVE",
"492 -26 OFFCURVE",
"530 152 CURVE SMOOTH",
"558 282 OFFCURVE",
"502 411 OFFCURVE",
"300 411 CURVE SMOOTH",
"254 411 OFFCURVE",
"198 405 OFFCURVE",
"119 383 CURVE",
"182 360 LINE",
"186 443 OFFCURVE",
"216 551 OFFCURVE",
"254 657 CURVE",
"136 655 LINE"
);
},
{
closed = 1;
nodes = (
"188 602 OFFCURVE",
"300 618 OFFCURVE",
"404 618 CURVE SMOOTH",
"453 618 OFFCURVE",
"505 616 OFFCURVE",
"536 616 CURVE SMOOTH",
"596 616 OFFCURVE",
"607 700 OFFCURVE",
"540 714 CURVE SMOOTH",
"521 718 OFFCURVE",
"474 722 OFFCURVE",
"449 722 CURVE SMOOTH",
"309 722 OFFCURVE",
"208 706 OFFCURVE",
"140 690 CURVE SMOOTH",
"91 679 OFFCURVE",
"64 657 OFFCURVE",
"63 627 CURVE SMOOTH",
"62 595 OFFCURVE",
"89 578 OFFCURVE",
"125 587 CURVE SMOOTH"
);
}
);
width = 680;
}
);
},
{
glyphname = six.dnom;
layers = (
{
layerId = master01;
paths = (
{
closed = 1;
nodes = (
"572 676 OFFCURVE",
"546 769 OFFCURVE",
"467 747 CURVE SMOOTH",
"375 721 OFFCURVE",
"254 650 OFFCURVE",
"189 583 CURVE SMOOTH",
"91 482 OFFCURVE",
"39 351 OFFCURVE",
"42 218 CURVE SMOOTH",
"45 63 OFFCURVE",
"116 -69 OFFCURVE",
"298 -70 CURVE SMOOTH",
"423 -71 OFFCURVE",
"546 0 OFFCURVE",
"581 128 CURVE SMOOTH",
"621 274 OFFCURVE",
"552 402 OFFCURVE",
"401 402 CURVE SMOOTH",
"302 402 OFFCURVE",
"170 353 OFFCURVE",
"116 164 CURVE",
"165 151 LINE",
"217 259 OFFCURVE",
"294 298 OFFCURVE",
"362 298 CURVE SMOOTH",
"455 298 OFFCURVE",
"477 222 OFFCURVE",
"457 147 CURVE SMOOTH",
"437 70 OFFCURVE",
"361 34 OFFCURVE",
"299 34 CURVE SMOOTH",
"204 34 OFFCURVE",
"163 115 OFFCURVE",
"163 228 CURVE SMOOTH",
"163 370 OFFCURVE",
"224 459 OFFCURVE",
"264 501 CURVE SMOOTH",
"331 573 OFFCURVE",
"430 617 OFFCURVE",
"512 651 CURVE SMOOTH"
);
}
);
width = 720;
}
);
},
{
glyphname = seven.dnom;
layers = (
{
layerId = master01;
paths = (
{
closed = 1;
nodes = (
"190 593 OFFCURVE",
"388 589 OFFCURVE",
"513 592 CURVE",
"476 627 LINE",
"289 459 OFFCURVE",
"167 227 OFFCURVE",
"150 36 CURVE SMOOTH",
"144 -35 OFFCURVE",
"169 -64 OFFCURVE",
"200 -64 CURVE SMOOTH",
"241 -64 OFFCURVE",
"258 -23 OFFCURVE",
"275 57 CURVE SMOOTH",
"320 263 OFFCURVE",
"398 390 OFFCURVE",
"555 569 CURVE",
"618 612 OFFCURVE",
"595 680 OFFCURVE",
"532 686 CURVE SMOOTH",
"396 699 OFFCURVE",
"222 704 OFFCURVE",
"92 704 CURVE SMOOTH",
"43 704 OFFCURVE",
"12 691 OFFCURVE",
"12 654 CURVE SMOOTH",
"12 625 OFFCURVE",
"38 602 OFFCURVE",
"86 599 CURVE SMOOTH"
);
}
);
width = 656;
}
);
},
{
glyphname = eight.dnom;
layers = (
{
layerId = master01;
paths = (
{
closed = 1;
nodes = (
"460 472 OFFCURVE",
"419 442 OFFCURVE",
"283 391 CURVE SMOOTH",
"94 320 OFFCURVE",
"46 236 OFFCURVE",
"33 164 CURVE",
"8 1 OFFCURVE",
"135 -81 OFFCURVE",
"283 -81 CURVE SMOOTH",
"436 -81 OFFCURVE",
"544 -22 OFFCURVE",
"569 91 CURVE SMOOTH",
"594 205 OFFCURVE",
"514 300 OFFCURVE",
"367 385 CURVE SMOOTH",
"290 429 OFFCURVE",
"193 494 OFFCURVE",
"230 585 CURVE SMOOTH",
"250 634 OFFCURVE",
"293 654 OFFCURVE",
"348 654 CURVE SMOOTH",
"439 654 OFFCURVE",
"485 600 OFFCURVE",
"470 525 CURVE SMOOTH"
);
},
{
closed = 1;
nodes = (
"619 641 OFFCURVE",
"523 755 OFFCURVE",
"353 755 CURVE SMOOTH",
"246 755 OFFCURVE",
"145 707 OFFCURVE",
"114 613 CURVE SMOOTH",
"81 513 OFFCURVE",
"115 418 OFFCURVE",
"266 321 CURVE SMOOTH",
"383 246 OFFCURVE",
"466 189 OFFCURVE",
"448 107 CURVE SMOOTH",
"435 48 OFFCURVE",
"361 23 OFFCURVE",
"289 23 CURVE SMOOTH",
"197 23 OFFCURVE",
"137 68 OFFCURVE",
"149 147 CURVE SMOOTH",
"158 206 OFFCURVE",
"198 262 OFFCURVE",
"349 320 CURVE SMOOTH",
"511 382 OFFCURVE",
"567 438 OFFCURVE",
"584 505 CURVE SMOOTH"
);
}
);
width = 720;
}
);
},
{
glyphname = nine.dnom;
layers = (
{
layerId = master01;
paths = (
{
closed = 1;
nodes = (
"199 729 OFFCURVE",
"96 630 OFFCURVE",
"71 509 CURVE SMOOTH",
"42 368 OFFCURVE",
"109 241 OFFCURVE",
"272 241 CURVE SMOOTH",
"373 241 OFFCURVE",
"472 286 OFFCURVE",
"552 412 CURVE",
"521 450 LINE",
"449 370 OFFCURVE",
"371 340 OFFCURVE",
"301 340 CURVE SMOOTH",
"205 340 OFFCURVE",
"177 417 OFFCURVE",
"188 489 CURVE SMOOTH",
"202 582 OFFCURVE",
"276 625 OFFCURVE",
"345 625 CURVE SMOOTH",
"493 625 OFFCURVE",
"489 476 OFFCURVE",
"476 344 CURVE SMOOTH",
"468 267 OFFCURVE",
"451 203 OFFCURVE",
"432 158 CURVE SMOOTH",
"403 88 OFFCURVE",
"352 18 OFFCURVE",
"261 18 CURVE SMOOTH",
"206 18 OFFCURVE",
"152 41 OFFCURVE",
"119 59 CURVE SMOOTH",
"92 73 OFFCURVE",
"65 79 OFFCURVE",
"51 56 CURVE SMOOTH",
"39 37 OFFCURVE",
"52 3 OFFCURVE",
"74 -19 CURVE SMOOTH",
"110 -55 OFFCURVE",
"181 -88 OFFCURVE",
"259 -88 CURVE SMOOTH",
"419 -88 OFFCURVE",
"490 17 OFFCURVE",
"527 91 CURVE SMOOTH",
"558 152 OFFCURVE",
"586 249 OFFCURVE",
"598 364 CURVE SMOOTH",
"617 542 OFFCURVE",
"582 729 OFFCURVE",
"355 729 CURVE SMOOTH"
);
}
);
width = 736;
}
);
},
{
glyphname = fraction;
layers = (
{
layerId = master01;
paths = (
{
closed = 1;
nodes = (
"128 674 OFFCURVE",
"-30 484 OFFCURVE",
"-174 285 CURVE SMOOTH",
"-233 203 OFFCURVE",
"-312 99 OFFCURVE",
"-334 23 CURVE SMOOTH",
"-355 -49 OFFCURVE",
"-307 -85 OFFCURVE",
"-257 -22 CURVE SMOOTH",
"-195 59 OFFCURVE",
"-95 196 OFFCURVE",
"-26 286 CURVE SMOOTH",
"101 451 OFFCURVE",
"226 612 OFFCURVE",
"366 770 CURVE SMOOTH",
"465 881 OFFCURVE",
"636 1070 OFFCURVE",
"734 1174 CURVE SMOOTH",
"800 1244 OFFCURVE",
"713 1322 OFFCURVE",
"646 1255 CURVE SMOOTH",
"560 1169 OFFCURVE",
"401 997 OFFCURVE",
"287 862 CURVE SMOOTH"
);
}
);
width = 360;
}
);
unicode = 2044;
},
{
glyphname = "One-roman";
lastChange = "2019-03-29 09:27:15 +0000";
layers = (
{
layerId = master01;
paths = (
{
closed = 1;
nodes = (
"261 848 OFFCURVE",
"240 667 OFFCURVE",
"226 514 CURVE SMOOTH",
"218 424 OFFCURVE",
"212 316 OFFCURVE",
"208 218 CURVE SMOOTH",
"204 125 OFFCURVE",
"337 117 OFFCURVE",
"343 219 CURVE SMOOTH",
"349 310 OFFCURVE",
"345 389 OFFCURVE",
"354 505 CURVE SMOOTH",
"363 620 OFFCURVE",
"392 854 OFFCURVE",
"402 939 CURVE SMOOTH",
"411 1023 OFFCURVE",
"283 1046 OFFCURVE",
"271 940 CURVE SMOOTH"
);
},
{
closed = 1;
nodes = (
"234 999 OFFCURVE",
"288 999 OFFCURVE",
"355 999 CURVE",
"416 1000 OFFCURVE",
"481 993 OFFCURVE",
"542 993 CURVE SMOOTH",
"621 993 OFFCURVE",
"629 1091 OFFCURVE",
"563 1111 CURVE SMOOTH",
"519 1124 OFFCURVE",
"469 1120 OFFCURVE",
"396 1120 CURVE SMOOTH",
"333 1120 OFFCURVE",
"241 1119 OFFCURVE",
"152 1110 CURVE SMOOTH",
"76 1102 OFFCURVE",
"81 999 OFFCURVE",
"167 999 CURVE SMOOTH"
);
},
{
closed = 1;
nodes = (
"213 -10 OFFCURVE",
"375 -15 OFFCURVE",
"513 17 CURVE SMOOTH",
"590 35 OFFCURVE",
"576 138 OFFCURVE",
"496 131 CURVE SMOOTH",
"424 125 OFFCURVE",
"369 123 OFFCURVE",
"305 121 CURVE SMOOTH",
"223 118 OFFCURVE",
"145 122 OFFCURVE",
"80 115 CURVE SMOOTH",
"0 106 OFFCURVE",
"1 14 OFFCURVE",
"92 4 CURVE SMOOTH"
);
}
);
width = 656;
}
);
unicode = 2160;
},
{
glyphname = "Two-roman";
lastChange = "2019-03-29 09:27:15 +0000";
layers = (
{
layerId = master01;
paths = (
{
closed = 1;
nodes = (
"302 -6 OFFCURVE",
"582 1 OFFCURVE",
"717 4 CURVE SMOOTH",
"877 8 OFFCURVE",
"973 -5 OFFCURVE",
"968 72 CURVE SMOOTH",
"966 104 OFFCURVE",
"934 136 OFFCURVE",
"862 135 CURVE SMOOTH",
"644 131 OFFCURVE",
"778 133 OFFCURVE",
"569 126 CURVE SMOOTH",
"362 119 OFFCURVE",
"279 116 OFFCURVE",
"93 106 CURVE SMOOTH",
"45 104 OFFCURVE",
"27 77 OFFCURVE",
"27 51 CURVE SMOOTH",
"27 22 OFFCURVE",
"47 -6 OFFCURVE",
"94 -6 CURVE SMOOTH"
);
},
{
closed = 1;
nodes = (
"477 997 OFFCURVE",
"711 997 OFFCURVE",
"958 1007 CURVE SMOOTH",
"1045 1011 OFFCURVE",
"1041 1117 OFFCURVE",
"960 1117 CURVE SMOOTH",
"649 1117 OFFCURVE",
"442 1120 OFFCURVE",
"159 1105 CURVE SMOOTH",
"70 1101 OFFCURVE",
"76 985 OFFCURVE",
"175 988 CURVE SMOOTH"
);
},
{
closed = 1;
nodes = (
"243 746 OFFCURVE",
"222 491 OFFCURVE",
"222 254 CURVE SMOOTH",
"222 133 OFFCURVE",
"354 148 OFFCURVE",
"354 255 CURVE SMOOTH",
"354 541 OFFCURVE",
"367 745 OFFCURVE",
"388 1059 CURVE",
"274 1059 LINE"
);
},
{
closed = 1;
nodes = (
"607 671 OFFCURVE",
"587 396 OFFCURVE",
"587 219 CURVE SMOOTH",
"587 129 OFFCURVE",
"717 125 OFFCURVE",
"723 229 CURVE SMOOTH",
"731 368 OFFCURVE",
"722 582 OFFCURVE",
"764 904 CURVE SMOOTH",
"778 1015 OFFCURVE",
"655 997 OFFCURVE",
"644 920 CURVE SMOOTH"
);
}
);
width = 1064;
}
);
unicode = 2161;
},
{
glyphname = "Three-roman";
lastChange = "2019-03-29 09:27:15 +0000";
layers = (
{
layerId = master01;
paths = (
{
closed = 1;
nodes = (
"353 20 OFFCURVE",
"435 20 OFFCURVE",
"650 23 CURVE SMOOTH",
"916 26 OFFCURVE",
"1040 15 OFFCURVE",
"1305 15 CURVE SMOOTH",
"1398 15 OFFCURVE",
"1398 135 OFFCURVE",
"1305 135 CURVE SMOOTH",
"1040 135 OFFCURVE",
"916 146 OFFCURVE",
"650 143 CURVE SMOOTH",
"428 140 OFFCURVE",
"291 142 OFFCURVE",
"94 117 CURVE SMOOTH",
"0 105 OFFCURVE",
"12 -3 OFFCURVE",
"102 3 CURVE SMOOTH"
);
},
{
closed = 1;
nodes = (
"401 993 OFFCURVE",
"890 1015 OFFCURVE",
"1180 1002 CURVE",
"1235 1001 OFFCURVE",
"1395 976 OFFCURVE",
"1414 1052 CURVE SMOOTH",
"1426 1100 OFFCURVE",
"1387 1128 OFFCURVE",
"1334 1128 CURVE SMOOTH",
"1298 1128 OFFCURVE",
"1262 1124 OFFCURVE",
"1227 1120 CURVE",
"1069 1128 OFFCURVE",
"939 1128 OFFCURVE",
"769 1122 CURVE SMOOTH",
"529 1113 OFFCURVE",
"347 1112 OFFCURVE",
"153 1094 CURVE SMOOTH",
"74 1087 OFFCURVE",
"75 980 OFFCURVE",
"156 983 CURVE SMOOTH"
);
},
{
closed = 1;
nodes = (
"240 126 OFFCURVE",
"366 119 OFFCURVE",
"361 236 CURVE SMOOTH",
"354 445 OFFCURVE",
"408 638 OFFCURVE",
"388 892 CURVE SMOOTH",
"381 983 OFFCURVE",
"254 981 OFFCURVE",
"263 881 CURVE SMOOTH",
"283 659 OFFCURVE",
"237 436 OFFCURVE",
"239 225 CURVE SMOOTH"
);
},
{
closed = 1;
nodes = (
"632 556 OFFCURVE",
"619 409 OFFCURVE",
"617 222 CURVE SMOOTH",
"616 135 OFFCURVE",
"730 134 OFFCURVE",
"734 229 CURVE SMOOTH",
"747 507 OFFCURVE",
"771 718 OFFCURVE",
"781 888 CURVE SMOOTH",
"787 984 OFFCURVE",
"656 980 OFFCURVE",
"651 891 CURVE SMOOTH"
);
},
{
closed = 1;
nodes = (
"977 593 OFFCURVE",
"971 396 OFFCURVE",
"977 178 CURVE SMOOTH",
"979 105 OFFCURVE",
"1091 101 OFFCURVE",
"1092 178 CURVE SMOOTH",
"1095 416 OFFCURVE",
"1114 615 OFFCURVE",
"1141 910 CURVE SMOOTH",
"1150 1005 OFFCURVE",
"1015 1000 OFFCURVE",
"1006 903 CURVE SMOOTH"
);
}
);
width = 1472;
}
);
unicode = 2162;
},
{
glyphname = "Four-roman";
lastChange = "2019-03-29 09:27:15 +0000";
layers = (
{
layerId = master01;
paths = (
{
closed = 1;
nodes = (
"253 802 OFFCURVE",
"232 621 OFFCURVE",
"218 468 CURVE SMOOTH",
"210 378 OFFCURVE",
"204 270 OFFCURVE",
"200 172 CURVE SMOOTH",
"196 79 OFFCURVE",
"329 71 OFFCURVE",
"335 173 CURVE SMOOTH",
"341 264 OFFCURVE",
"337 343 OFFCURVE",
"346 459 CURVE SMOOTH",
"355 574 OFFCURVE",
"384 808 OFFCURVE",
"394 893 CURVE SMOOTH",
"403 977 OFFCURVE",
"275 1000 OFFCURVE",
"263 894 CURVE SMOOTH"
);
},
{
closed = 1;
nodes = (
"230 999 OFFCURVE",
"303 999 OFFCURVE",
"351 999 CURVE SMOOTH",
"600 999 OFFCURVE",
"888 981 OFFCURVE",
"1335 969 CURVE SMOOTH",
"1414 967 OFFCURVE",
"1424 1077 OFFCURVE",
"1356 1087 CURVE SMOOTH",
"1264 1101 OFFCURVE",
"465 1120 OFFCURVE",
"392 1120 CURVE SMOOTH",
"329 1120 OFFCURVE",
"237 1119 OFFCURVE",
"148 1110 CURVE SMOOTH",
"72 1102 OFFCURVE",
"77 999 OFFCURVE",
"163 999 CURVE SMOOTH"
);
},
{
closed = 1;
nodes = (
"447 -8 OFFCURVE",
"1012 -2 OFFCURVE",
"1281 36 CURVE SMOOTH",
"1359 47 OFFCURVE",
"1344 155 OFFCURVE",
"1264 150 CURVE SMOOTH",
"1011 135 OFFCURVE",
"808 121 OFFCURVE",
"624 115 CURVE SMOOTH",
"382 107 OFFCURVE",
"141 122 OFFCURVE",
"76 115 CURVE SMOOTH",
"-4 106 OFFCURVE",
"-4 15 OFFCURVE",
"88 10 CURVE SMOOTH"
);
},
{
closed = 1;
nodes = (
"562 852 OFFCURVE",
"574 778 OFFCURVE",
"581 731 CURVE SMOOTH",
"611 535 OFFCURVE",
"663 342 OFFCURVE",
"754 165 CURVE",
"771 135 OFFCURVE",
"791 110 OFFCURVE",
"825 110 CURVE SMOOTH",
"866 110 OFFCURVE",
"891 131 OFFCURVE",
"912 193 CURVE",
"981 286 OFFCURVE",
"1095 488 OFFCURVE",
"1141 590 CURVE SMOOTH",
"1182 679 OFFCURVE",
"1235 803 OFFCURVE",
"1253 889 CURVE SMOOTH",
"1271 977 OFFCURVE",
"1152 998 OFFCURVE",
"1124 915 CURVE SMOOTH",
"1100 844 OFFCURVE",
"1061 728 OFFCURVE",
"1023 638 CURVE SMOOTH",
"962 494 OFFCURVE",
"886 340 OFFCURVE",
"790 211 CURVE",
"868 211 LINE",
"847 242 OFFCURVE",
"814 328 OFFCURVE",
"802 364 CURVE SMOOTH",
"738 553 OFFCURVE",
"711 729 OFFCURVE",
"689 912 CURVE SMOOTH",
"679 998 OFFCURVE",
"562 990 OFFCURVE",
"562 902 CURVE SMOOTH"
);
}
);
width = 1448;
}
);
unicode = 2163;
},
{
glyphname = "Five-roman";
lastChange = "2019-03-29 09:27:15 +0000";
layers = (
{
layerId = master01;
paths = (
{
closed = 1;
nodes = (
"202 1004 OFFCURVE",
"295 1004 OFFCURVE",
"343 1004 CURVE SMOOTH",
"450 1004 OFFCURVE",
"811 990 OFFCURVE",
"1044 984 CURVE SMOOTH",
"1123 982 OFFCURVE",
"1134 1097 OFFCURVE",
"1032 1105 CURVE SMOOTH",
"776 1121 OFFCURVE",
"457 1125 OFFCURVE",
"384 1125 CURVE SMOOTH",
"321 1125 OFFCURVE",
"209 1124 OFFCURVE",
"120 1115 CURVE SMOOTH",
"44 1107 OFFCURVE",
"49 1004 OFFCURVE",
"135 1004 CURVE SMOOTH"
);
},
{
closed = 1;
nodes = (
"736 139 OFFCURVE",
"360 136 OFFCURVE",
"96 115 CURVE SMOOTH",
"4 108 OFFCURVE",
"20 -5 OFFCURVE",
"100 0 CURVE SMOOTH",
"442 20 OFFCURVE",
"701 20 OFFCURVE",
"951 23 CURVE SMOOTH",
"1031 24 OFFCURVE",
"1031 123 OFFCURVE",
"939 128 CURVE SMOOTH"
);
},
{
closed = 1;
nodes = (
"229 893 OFFCURVE",
"241 819 OFFCURVE",
"248 772 CURVE SMOOTH",
"278 576 OFFCURVE",
"330 383 OFFCURVE",
"421 206 CURVE SMOOTH",
"438 172 OFFCURVE",
"458 151 OFFCURVE",
"492 151 CURVE SMOOTH",
"533 151 OFFCURVE",
"558 172 OFFCURVE",
"579 234 CURVE",
"648 327 OFFCURVE",
"762 529 OFFCURVE",
"808 631 CURVE SMOOTH",
"849 720 OFFCURVE",
"902 844 OFFCURVE",
"920 930 CURVE SMOOTH",
"938 1018 OFFCURVE",
"819 1039 OFFCURVE",
"791 956 CURVE SMOOTH",
"767 885 OFFCURVE",
"728 769 OFFCURVE",
"690 679 CURVE SMOOTH",
"629 535 OFFCURVE",
"553 381 OFFCURVE",
"457 252 CURVE",
"535 252 LINE",
"514 283 OFFCURVE",
"481 369 OFFCURVE",
"469 405 CURVE SMOOTH",
"405 594 OFFCURVE",
"378 770 OFFCURVE",
"356 953 CURVE SMOOTH",
"346 1039 OFFCURVE",
"229 1031 OFFCURVE",
"229 943 CURVE SMOOTH"
);
}
);
width = 1136;
}
);
unicode = 2164;
},
{
glyphname = "Six-roman";
lastChange = "2019-03-29 09:27:15 +0000";
layers = (
{
layerId = master01;
paths = (
{
closed = 1;
nodes = (
"182 974 OFFCURVE",
"275 974 OFFCURVE",
"323 974 CURVE SMOOTH",
"572 974 OFFCURVE",
"860 956 OFFCURVE",
"1307 944 CURVE SMOOTH",
"1386 942 OFFCURVE",
"1396 1052 OFFCURVE",
"1328 1062 CURVE SMOOTH",
"1236 1076 OFFCURVE",
"437 1095 OFFCURVE",
"364 1095 CURVE SMOOTH",
"301 1095 OFFCURVE",
"189 1094 OFFCURVE",
"100 1085 CURVE SMOOTH",
"24 1077 OFFCURVE",
"29 974 OFFCURVE",
"115 974 CURVE SMOOTH"
);
},
{
closed = 1;
nodes = (
"890 155 OFFCURVE",
"392 152 OFFCURVE",
"123 114 CURVE SMOOTH",
"45 103 OFFCURVE",
"60 -5 OFFCURVE",
"140 0 CURVE SMOOTH",
"393 15 OFFCURVE",
"529 26 OFFCURVE",
"713 32 CURVE SMOOTH",
"955 40 OFFCURVE",
"1196 25 OFFCURVE",
"1261 32 CURVE SMOOTH",
"1341 41 OFFCURVE",
"1341 132 OFFCURVE",
"1249 137 CURVE"
);
},
{
closed = 1;
nodes = (
"179 863 OFFCURVE",
"191 789 OFFCURVE",
"198 742 CURVE SMOOTH",
"228 546 OFFCURVE",
"280 353 OFFCURVE",
"371 176 CURVE",
"388 142 OFFCURVE",
"408 121 OFFCURVE",
"442 121 CURVE SMOOTH",
"483 121 OFFCURVE",
"508 142 OFFCURVE",
"529 204 CURVE",
"598 297 OFFCURVE",
"712 499 OFFCURVE",
"758 601 CURVE SMOOTH",
"799 690 OFFCURVE",
"852 814 OFFCURVE",
"870 900 CURVE SMOOTH",
"888 988 OFFCURVE",
"769 1009 OFFCURVE",
"741 926 CURVE SMOOTH",
"717 855 OFFCURVE",
"678 739 OFFCURVE",
"640 649 CURVE SMOOTH",
"579 505 OFFCURVE",
"503 351 OFFCURVE",
"407 222 CURVE",
"485 222 LINE",
"464 253 OFFCURVE",
"431 339 OFFCURVE",
"419 375 CURVE SMOOTH",
"355 564 OFFCURVE",
"328 740 OFFCURVE",
"306 923 CURVE SMOOTH",
"296 1009 OFFCURVE",
"179 1001 OFFCURVE",
"179 913 CURVE SMOOTH"
);
},
{
closed = 1;
nodes = (
"1015 802 OFFCURVE",
"994 621 OFFCURVE",
"980 468 CURVE SMOOTH",
"972 378 OFFCURVE",
"966 270 OFFCURVE",
"962 172 CURVE SMOOTH",
"958 79 OFFCURVE",
"1091 71 OFFCURVE",
"1097 173 CURVE SMOOTH",
"1103 264 OFFCURVE",
"1099 343 OFFCURVE",
"1108 459 CURVE SMOOTH",
"1117 574 OFFCURVE",
"1146 808 OFFCURVE",
"1156 893 CURVE SMOOTH",
"1165 977 OFFCURVE",
"1037 1000 OFFCURVE",
"1025 894 CURVE SMOOTH"
);
}
);
width = 1448;
}
);
unicode = 2165;
},
{
glyphname = "Seven-roman";
lastChange = "2019-03-29 09:27:15 +0000";
layers = (
{
layerId = master01;
paths = (
{
closed = 1;
nodes = (
"202 1004 OFFCURVE",
"295 1004 OFFCURVE",
"343 1004 CURVE SMOOTH",
"906 1004 OFFCURVE",
"1284 995 OFFCURVE",
"1786 977 CURVE SMOOTH",
"1865 974 OFFCURVE",
"1876 1093 OFFCURVE",
"1774 1098 CURVE SMOOTH",
"1276 1121 OFFCURVE",
"886 1125 OFFCURVE",
"384 1125 CURVE SMOOTH",
"321 1125 OFFCURVE",
"209 1124 OFFCURVE",
"120 1115 CURVE SMOOTH",
"44 1107 OFFCURVE",
"49 1004 OFFCURVE",
"135 1004 CURVE SMOOTH"
);
},
{
closed = 1;
nodes = (
"1194 142 OFFCURVE",
"594 141 OFFCURVE",
"96 115 CURVE SMOOTH",
"4 110 OFFCURVE",
"20 -4 OFFCURVE",
"100 0 CURVE SMOOTH",
"670 32 OFFCURVE",
"1082 20 OFFCURVE",
"1724 15 CURVE SMOOTH",
"1804 14 OFFCURVE",
"1804 116 OFFCURVE",
"1712 120 CURVE SMOOTH"
);
},
{
closed = 1;
nodes = (
"229 893 OFFCURVE",
"241 819 OFFCURVE",
"248 772 CURVE SMOOTH",
"278 576 OFFCURVE",
"330 383 OFFCURVE",
"421 206 CURVE SMOOTH",
"438 172 OFFCURVE",
"458 151 OFFCURVE",
"492 151 CURVE SMOOTH",
"533 151 OFFCURVE",
"558 172 OFFCURVE",
"579 234 CURVE",
"648 327 OFFCURVE",
"762 529 OFFCURVE",
"808 631 CURVE SMOOTH",
"849 720 OFFCURVE",
"902 844 OFFCURVE",
"920 930 CURVE SMOOTH",
"938 1018 OFFCURVE",
"819 1039 OFFCURVE",
"791 956 CURVE SMOOTH",
"767 885 OFFCURVE",
"728 769 OFFCURVE",
"690 679 CURVE SMOOTH",
"629 535 OFFCURVE",
"553 381 OFFCURVE",
"457 252 CURVE",
"535 252 LINE",
"514 283 OFFCURVE",
"481 369 OFFCURVE",
"469 405 CURVE SMOOTH",
"405 594 OFFCURVE",
"378 770 OFFCURVE",
"356 953 CURVE SMOOTH",
"346 1039 OFFCURVE",
"229 1031 OFFCURVE",
"229 943 CURVE SMOOTH"
);
},
{
closed = 1;
nodes = (
"1073 746 OFFCURVE",
"1052 491 OFFCURVE",
"1052 254 CURVE SMOOTH",
"1052 133 OFFCURVE",
"1184 148 OFFCURVE",
"1184 255 CURVE SMOOTH",
"1184 541 OFFCURVE",
"1197 745 OFFCURVE",
"1218 1059 CURVE",
"1104 1059 LINE"
);
},
{
closed = 1;
nodes = (
"1437 691 OFFCURVE",
"1417 416 OFFCURVE",
"1417 239 CURVE SMOOTH",
"1417 149 OFFCURVE",
"1547 145 OFFCURVE",
"1553 249 CURVE SMOOTH",
"1561 388 OFFCURVE",
"1552 602 OFFCURVE",
"1594 924 CURVE SMOOTH",
"1608 1035 OFFCURVE",
"1485 1017 OFFCURVE",
"1474 940 CURVE SMOOTH"
);
}
);
width = 1896;
}
);
unicode = 2166;
},
